SplineFontDB: 3.0
FontName: Monaco-Bold
FullName: Monaco-Bold
FamilyName: Monaco
Weight: Bold
Copyright: (c) 1990-2008 Apple Inc. (c) 1990-97 Type Solutions Inc. (c) 1990-97 The Font Bureau Inc.  TrueType outline design of Monaco typeface created by Kris Holmes and Charles Bigelow.
Version: 
ItalicAngle: 0
UnderlinePosition: 0
UnderlineWidth: 155
Ascent: 1638
Descent: 410
sfntRevision: 0x00020000
LayerCount: 2
Layer: 0 0 "Back"  1
Layer: 1 0 "Fore"  0
XUID: [1021 664 1202113233 205177]
FSType: 0
OS2Version: 0
OS2_WeightWidthSlopeOnly: 0
OS2_UseTypoMetrics: 1
CreationTime: 1412599394
ModificationTime: 1412599757
PfmFamily: 49
TTFWeight: 700
TTFWidth: 5
LineGap: 171
VLineGap: 0
Panose: 2 0 0 0 0 0 0 0 0 0
OS2TypoAscent: 2048
OS2TypoAOffset: 0
OS2TypoDescent: -512
OS2TypoDOffset: 0
OS2TypoLinegap: 171
OS2WinAscent: 2504
OS2WinAOffset: 0
OS2WinDescent: 862
OS2WinDOffset: 0
HheadAscent: 2048
HheadAOffset: 0
HheadDescent: -512
HheadDOffset: 0
OS2SubXSize: 1331
OS2SubYSize: 1228
OS2SubXOff: 0
OS2SubYOff: 153
OS2SupXSize: 1331
OS2SupYSize: 1228
OS2SupXOff: 0
OS2SupYOff: 716
OS2StrikeYSize: 155
OS2StrikeYPos: 670
OS2Vendor: 'pyrs'
OS2CodePages: 60000197.00000000
OS2UnicodeRanges: a000027f.00000003.00000000.00000000
MarkAttachClasses: 1
DEI: 91125
LangName: 1065 "Copyright 1990-2008 Apple Inc. Copyright 1990-97 Type Solutions Inc. Copyright 1990-97 The Font Bureau Inc.  TrueType outline design of Monaco typeface created by Kris Holmes and Charles Bigelow." 
LangName: 1025 "Copyright 1990-2008 Apple Inc. Copyright 1990-97 Type Solutions Inc. Copyright 1990-97 The Font Bureau Inc.  TrueType outline design of Monaco typeface created by Kris Holmes and Charles Bigelow." 

StartChar: .notdef
Encoding: 65536 -1 0
Width: 1229
Flags: MW
HStem: 0 219<333 665 333 885> 1333 219<333 665 333 333>
VStem: 114 219<219 1333 219 1552> 665 220<219 1333 1333 1333>
LayerCount: 2
Fore
SplineSet
885 1552 m 1
 885 0 l 1
 114 0 l 1
 114 1552 l 1
 885 1552 l 1
665 219 m 1
 665 1333 l 1
 333 1333 l 1
 333 219 l 1
 665 219 l 1
EndSplineSet
EndChar

StartChar: exclam
Encoding: 33 33 4
Width: 1229
Flags: MW
HStem: -45 21G<576 622> 1532 20G<434 750 750 750>
VStem: 424 350<107.5 154>
LayerCount: 2
Fore
SplineSet
702 420 m 1
 481 420 l 1
 434 1552 l 1
 750 1552 l 1
 702 420 l 1
599 -45 m 0
 553 -45 511 -27 476 8 c 0
 441 42 424 84 424 131 c 0
 424 177 441 219 476 253 c 0
 512 288 553 305 599 305 c 0
 645 305 687 287 720 255 c 0
 755 222 774 179 774 131 c 0
 774 81 757 40 721 6 c 1
 721 7 l 1
 686 -27 645 -45 599 -45 c 0
EndSplineSet
EndChar

StartChar: quotedbl
Encoding: 34 34 5
Width: 1229
Flags: MW
HStem: 1002 608<301 492 301 301 711 711 711 902>
VStem: 232 734<1610 1610>
LayerCount: 2
Fore
SplineSet
554 1610 m 1
 492 1002 l 1
 301 1002 l 1
 232 1610 l 1
 554 1610 l 1
966 1610 m 1
 902 1002 l 1
 711 1002 l 1
 649 1610 l 1
 966 1610 l 1
EndSplineSet
EndChar

StartChar: numbersign
Encoding: 35 35 6
Width: 1229
Flags: MW
HStem: 0 21G<78 298 78 78 478 698 478 478> 398 210<44 185 44 240 44 402 457 590 864 1153> 922 209<44 324 44 378 595 734 44 539 1005 1153> 1532 20G<489 707 707 707 902 1119 1119 1119>
VStem: 44 1109<398 608 398 608 922 1131 398 1131>
LayerCount: 2
Fore
SplineSet
185 398 m 1
 44 398 l 1
 44 608 l 1
 240 608 l 1
 245 629 252 652 257 672 c 0
 283 763 298 823 324 922 c 1
 44 922 l 1
 44 1131 l 1
 378 1131 l 1
 489 1552 l 1
 707 1552 l 1
 595 1131 l 1
 786 1131 l 1
 824 1269 865 1414 902 1552 c 1
 1119 1552 l 1
 1005 1131 l 1
 1153 1131 l 1
 1153 922 l 1
 946 922 l 1
 917 812 894 720 864 608 c 1
 1153 608 l 1
 1153 398 l 1
 806 398 l 1
 755 213 l 1
 698 0 l 1
 478 0 l 1
 590 398 l 1
 402 398 l 1
 354 213 l 2
 337 147 315 66 298 0 c 1
 78 0 l 1
 185 398 l 1
539 922 m 1
 457 608 l 1
 646 608 l 1
 661 664 677 719 691 770 c 0
 707 829 718 864 734 922 c 1
 539 922 l 1
EndSplineSet
EndChar

StartChar: dollar
Encoding: 36 36 7
Width: 1229
Flags: MW
HStem: -147 1846<528 738 528 738>
VStem: 528 210<-147 2 2 2 259 566 991 1309 1309 1309 1541 1699>
LayerCount: 2
Fore
SplineSet
738 -147 m 1
 528 -147 l 1
 528 2 l 1
 452 5 361 14 296 28 c 0
 258 37 204 58 130 92 c 1
 130 363 l 1
 275 288 398 246 528 231 c 1
 528 693 l 1
 501 708 474 724 447 739 c 1
 448 739 l 1
 242 850 138 985 138 1147 c 0
 138 1233 177 1321 244 1400 c 0
 309 1473 406 1521 528 1537 c 1
 528 1699 l 1
 738 1699 l 1
 738 1541 l 1
 807 1537 894 1521 1003 1493 c 1
 1003 1250 l 1
 922 1272 l 2
 852 1293 793 1306 738 1314 c 1
 738 863 l 1
 826 812 l 2
 931 751 1003 691 1044 631 c 0
 1085 569 1107 502 1107 430 c 0
 1102 254 986 73 738 20 c 1
 738 -147 l 1
528 991 m 1
 528 1309 l 1
 449 1280 406 1230 406 1170 c 0
 406 1137 420 1101 442 1069 c 1
 442 1070 l 1
 461 1044 488 1021 528 991 c 1
738 566 m 1
 738 259 l 1
 770 276 795 294 807 314 c 0
 827 344 838 377 838 413 c 0
 838 446 828 476 810 500 c 0
 797 519 772 541 738 566 c 1
EndSplineSet
EndChar

StartChar: percent
Encoding: 37 37 8
Width: 1229
Flags: MW
HStem: -45 21G<-54 194 -54 -54> 0 195<871 915 871 928> 620 194<868 902> 738 194<297 329 297 366.5> 1356 196<296.5 331> 1576 20G<1004 1254 1254 1254>
VStem: -21 226<1113.5 1176.5 1113.5 1202> 422 225<1114.5 1176.5> 551 225<364 436 364 465.5> 993 224<357.5 440.5>
LayerCount: 2
Fore
SplineSet
314 1552 m 0xdec0
 418 1552 500 1512 560 1434 c 0
 618 1360 647 1263 647 1145 c 0
 647 1026 618 929 560 855 c 0xdf40
 500 778 419 738 314 738 c 0
 207 738 126 778 66 855 c 0
 8 929 -21 1026 -21 1145 c 0
 -21 1259 12 1361 66 1434 c 0
 126 1509 211 1552 314 1552 c 0xdec0
314 1356 m 0
 279 1356 253 1339 236 1303 c 0
 214 1261 205 1208 205 1145 c 0
 205 1082 215 1027 236 984 c 1
 236 985 l 1
 253 951 280 932 314 932 c 0
 344 932 373 955 390 985 c 0
 410 1028 422 1084 422 1145 c 0
 422 1208 412 1261 390 1303 c 0xdf40
 373 1339 348 1356 314 1356 c 0
1254 1596 m 1xeec0
 194 -45 l 1
 -54 -45 l 1
 1004 1596 l 1
 1254 1596 l 1xeec0
882 814 m 0
 982 814 1062 776 1126 702 c 0
 1186 630 1217 535 1217 422 c 0
 1217 293 1184 190 1121 115 c 0
 1056 39 976 0 880 0 c 0
 788 0 709 37 645 110 c 0
 583 183 551 282 551 407 c 0
 551 524 583 625 638 697 c 0
 699 770 784 814 882 814 c 0
885 620 m 0
 851 620 826 602 808 568 c 0
 788 525 776 470 776 402 c 0
 776 326 788 272 812 238 c 1
 812 239 l 1
 833 209 858 195 884 195 c 0
 946 195 993 272 993 411 c 0
 993 470 983 522 961 565 c 0
 944 602 919 620 885 620 c 0
EndSplineSet
EndChar

StartChar: ampersand
Encoding: 38 38 9
Width: 1229
Flags: MW
HStem: -45 224<439 492 439 507.5> 0 21G<939 939 939 1266> 1385 211<443 483>
VStem: -21 249<381 465.5 381 484> 585 238<1257.5 1289> 835 253<744 746 746 829 724.5 829>
LayerCount: 2
Fore
SplineSet
939 0 m 1x74
 850 105 l 1
 794 53 734 13 680 -8 c 0
 616 -33 546 -45 469 -45 c 0
 322 -45 203 -3 114 80 c 0
 24 165 -21 272 -21 403 c 0
 -21 565 71 733 225 874 c 1
 130 999 83 1109 83 1211 c 0
 83 1275 100 1339 135 1402 c 0
 169 1463 217 1510 277 1544 c 0
 338 1578 405 1596 477 1596 c 0
 573 1596 654 1570 720 1518 c 0
 788 1463 823 1385 823 1286 c 0
 823 1216 803 1145 764 1074 c 0xbc
 728 1012 666 943 564 864 c 1
 824 542 l 1
 827 563 830 601 832 645 c 0
 834 695 835 732 835 744 c 2
 835 829 l 1
 1088 829 l 1
 1088 746 l 2
 1088 703 1083 640 1074 562 c 0
 1066 486 1042 405 1002 322 c 1
 1266 0 l 1
 939 0 l 1x74
355 983 m 1
 480 962 l 1
 422 1033 l 1
 355 983 l 1
408 1022 m 1
 436 1016 l 1
 424 1033 l 1
 423 1033 l 1
 408 1022 l 1
346 1163 m 1
 347 1162 l 1
 353 1137 379 1094 423 1033 c 1
 470 1069 508 1108 535 1149 c 0
 568 1198 585 1241 585 1274 c 0
 585 1304 576 1332 555 1353 c 0
 536 1375 505 1385 461 1385 c 0
 425 1385 395 1370 373 1346 c 0
 349 1317 336 1281 336 1241 c 0
 336 1214 340 1187 346 1163 c 1
703 281 m 1
 365 696 l 1
 276 610 228 515 228 416 c 0
 228 346 252 289 298 246 c 0
 346 202 405 179 473 179 c 0
 511 179 549 187 588 200 c 0
 619 210 657 237 703 281 c 1
EndSplineSet
EndChar

StartChar: quotesingle
Encoding: 39 39 10
Width: 1229
Flags: MW
HStem: 944 666<504 697 504 504>
VStem: 391 416<1610 1610>
LayerCount: 2
Fore
SplineSet
807 1610 m 1
 697 944 l 1
 504 944 l 1
 391 1610 l 1
 807 1610 l 1
EndSplineSet
EndChar

StartChar: parenleft
Encoding: 40 40 11
Width: 1229
Flags: MW
HStem: -356 1999<1072 1072>
VStem: 156 269<577.5 708.5 577.5 721> 156 916<-356 721>
LayerCount: 2
Fore
SplineSet
1072 -134 m 1xa0
 1072 -356 l 1
 862 -343 694 -289 567 -197 c 0
 441 -104 341 19 267 175 c 0
 194 330 156 486 156 643 c 0
 156 799 194 955 267 1111 c 0
 341 1267 441 1390 567 1483 c 0
 694 1574 862 1629 1072 1643 c 1
 1072 1419 l 1
 927 1405 805 1360 717 1289 c 1
 718 1290 l 1
 629 1216 552 1120 503 1011 c 0
 450 898 425 774 425 643 c 0
 425 512 450 388 503 275 c 0xc0
 552 166 629 70 718 -4 c 1
 717 -3 l 1
 806 -74 928 -119 1072 -134 c 1xa0
EndSplineSet
EndChar

StartChar: parenright
Encoding: 41 41 12
Width: 1229
Flags: MW
HStem: -356 1999<125 125>
VStem: 125 918<-356 720 -134 720 565.5 1643> 775 268<578 708.5>
LayerCount: 2
Fore
SplineSet
125 1419 m 1xc0
 125 1643 l 1
 337 1629 505 1574 631 1483 c 0
 754 1392 858 1261 931 1111 c 0
 1003 957 1043 797 1043 643 c 0
 1043 488 1003 329 931 175 c 0
 858 24 754 -106 631 -197 c 0
 505 -289 337 -343 125 -356 c 1
 125 -134 l 1
 271 -119 391 -76 480 -3 c 0
 574 72 645 165 696 275 c 0
 749 388 775 513 775 643 c 0
 775 774 749 897 696 1010 c 0xa0
 644 1122 572 1214 480 1289 c 0
 391 1362 271 1405 125 1419 c 1xc0
EndSplineSet
EndChar

StartChar: asterisk
Encoding: 42 42 13
Width: 1229
Flags: MW
HStem: 1576 20G<468 727 727 727>
VStem: 117 963<986 986 986 1238> 485 232
LayerCount: 2
Fore
SplineSet
727 626 m 1xc0
 468 626 l 1
 485 920 l 1
 389 854 l 1
 247 758 l 1
 117 986 l 1
 374 1110 l 1
 117 1238 l 1
 247 1460 l 1
 485 1302 l 1
 479 1399 473 1503 468 1596 c 1
 727 1596 l 1
 707 1301 l 1xa0
 948 1460 l 1
 1080 1238 l 1
 823 1110 l 1
 1080 986 l 1
 949 759 l 1
 706 918 l 1
 709 881 l 2
 714 802 723 699 727 626 c 1xc0
EndSplineSet
EndChar

StartChar: plus
Encoding: 43 43 14
Width: 1229
Flags: MW
HStem: 0 21G<486 711 486 486> 442 225<44 486 44 486 711 1153>
VStem: 486 225<0 442 0 442 667 1109>
LayerCount: 2
Fore
SplineSet
711 667 m 1
 1153 667 l 1
 1153 442 l 1
 711 442 l 1
 711 0 l 1
 486 0 l 1
 486 442 l 1
 44 442 l 1
 44 667 l 1
 486 667 l 1
 486 1109 l 1
 711 1109 l 1
 711 667 l 1
EndSplineSet
EndChar

StartChar: comma
Encoding: 44 44 15
Width: 1229
Flags: MW
HStem: -418 21G<380 380> -30 21G
VStem: 380 438<-418 105 -227 105>
LayerCount: 2
Fore
SplineSet
380 -418 m 1
 380 -227 l 1
 478 -202 519 -163 542 -105 c 0
 552 -84 558 -56 561 -30 c 1
 508 -23 470 -4 441 30 c 0
 408 71 390 115 390 163 c 0
 390 219 409 266 448 301 c 1
 448 300 l 1
 487 338 533 358 584 358 c 0
 647 358 704 330 750 275 c 0
 794 221 818 149 818 61 c 0
 815 -160 649 -385 380 -418 c 1
EndSplineSet
EndChar

StartChar: hyphen
Encoding: 45 45 16
Width: 1229
Flags: MW
HStem: 524 224<193 1007 193 1007>
VStem: 193 814<524 748 524 748>
LayerCount: 2
Fore
SplineSet
1007 524 m 1
 193 524 l 1
 193 748 l 1
 1007 748 l 1
 1007 524 l 1
EndSplineSet
EndChar

StartChar: period
Encoding: 46 46 17
Width: 1229
Flags: MW
HStem: -45 21G<572.5 624.5>
VStem: 405 387<123 176 123 176>
LayerCount: 2
Fore
SplineSet
598 -45 m 0
 547 -45 501 -25 463 13 c 0
 424 51 405 96 405 149 c 0
 405 203 424 250 463 286 c 1
 463 285 l 1
 502 323 548 342 598 342 c 0
 650 342 696 323 734 286 c 1
 734 287 l 1
 773 250 792 203 792 149 c 0
 792 97 773 51 735 13 c 0
 697 -25 651 -45 598 -45 c 0
EndSplineSet
EndChar

StartChar: slash
Encoding: 47 47 18
Width: 1229
Flags: MW
HStem: -45 21G<-21 242 -21 -21> 1576 20G<963 1220 1220 1220>
VStem: -21 1241
LayerCount: 2
Fore
SplineSet
1220 1596 m 1
 242 -45 l 1
 -21 -45 l 1
 963 1596 l 1
 1220 1596 l 1
EndSplineSet
EndChar

StartChar: zero
Encoding: 48 48 19
Width: 1229
Flags: MW
HStem: -45 224<557.5 640.5 557.5 690> 1372 224<555.5 615>
VStem: 44 269<766.5 872 766.5 898> 885 268<716 824>
LayerCount: 2
Fore
SplineSet
598 1596 m 0
 781 1596 919 1520 1016 1367 c 0
 1107 1220 1153 1023 1153 776 c 0
 1153 528 1107 331 1016 183 c 0
 919 31 782 -45 598 -45 c 0
 418 -45 278 31 182 183 c 0
 90 331 44 528 44 776 c 0
 44 1020 91 1221 182 1367 c 0
 277 1516 419 1596 598 1596 c 0
328 562 m 1
 776 1261 l 1
 752 1299 723 1330 696 1344 c 0
 665 1363 632 1372 598 1372 c 0
 513 1372 441 1315 392 1216 c 0
 342 1106 313 957 313 787 c 0
 313 746 314 703 317 655 c 0
 318 630 322 599 328 562 c 1
867 984 m 1
 424 279 l 1
 470 211 524 179 591 179 c 0
 690 179 766 248 811 356 c 1
 855 484 885 640 885 792 c 0
 885 856 878 920 867 984 c 1
EndSplineSet
EndChar

StartChar: one
Encoding: 49 49 20
Width: 1229
Flags: MW
HStem: 0 224<156 517 771 1125 156 517> 1532 20G<538 771 771 771>
VStem: 517 254<224 1245 1245 1245>
LayerCount: 2
Fore
SplineSet
156 224 m 1
 517 224 l 1
 517 1245 l 1
 487 1223 450 1201 421 1183 c 0
 363 1150 273 1111 156 1069 c 1
 156 1309 l 1
 303 1372 431 1453 538 1552 c 1
 771 1552 l 1
 771 224 l 1
 1125 224 l 1
 1125 0 l 1
 156 0 l 1
 156 224 l 1
EndSplineSet
EndChar

StartChar: two
Encoding: 50 50 21
Width: 1229
Flags: MW
HStem: 0 240<382 1088 382 1088> 1372 224<595.5 616> 1576 20G<595.5 665.5>
VStem: 119 969<0 201 201 240 0 246.5>
LayerCount: 2
Fore
SplineSet
1088 240 m 1xb0
 1088 0 l 1
 119 0 l 1
 119 201 l 2
 119 292 151 396 249 521 c 0
 288 569 357 644 406 695 c 2
 507 798 l 2
 528 820 573 869 638 942 c 0
 705 1016 748 1069 767 1108 c 0
 788 1145 797 1179 797 1211 c 0
 797 1261 777 1298 737 1325 c 0
 693 1356 643 1372 589 1372 c 0
 558 1372 519 1368 475 1359 c 1
 476 1360 l 1
 462 1356 l 2
 421 1347 383 1339 362 1332 c 0xd0
 330 1321 258 1292 148 1241 c 1
 148 1483 l 1
 245 1530 335 1559 419 1573 c 1
 418 1573 l 1
 499 1588 566 1596 625 1596 c 0
 706 1596 784 1582 849 1556 c 0
 917 1529 976 1482 1012 1422 c 0
 1046 1366 1065 1300 1065 1235 c 0
 1065 1168 1038 1083 998 1012 c 0
 956 940 876 844 765 735 c 2
 657 628 l 1
 566 538 l 2
 518 488 464 424 432 374 c 0
 407 337 389 291 382 240 c 1
 1088 240 l 1xb0
EndSplineSet
EndChar

StartChar: three
Encoding: 51 51 22
Width: 1229
Flags: MW
HStem: -45 224<486 572.5 481 595.5> 738 224<270 405 270 443> 1372 224<470.5 561>
VStem: 115 984<40 503 315 503> 830 269<417.5 499.5>
LayerCount: 2
Fore
SplineSet
115 40 m 1xf0
 115 315 l 1
 292 224 432 179 530 179 c 0
 615 179 691 209 746 258 c 1
 799 311 830 377 830 458 c 0
 830 541 798 607 737 659 c 0
 676 712 564 738 405 738 c 2
 270 738 l 1
 270 962 l 1
 443 962 l 2
 558 962 637 986 685 1033 c 0
 732 1081 756 1134 756 1191 c 0
 756 1242 737 1283 700 1318 c 0
 662 1354 602 1372 520 1372 c 0
 421 1372 296 1335 144 1260 c 1
 144 1517 l 1
 286 1569 408 1596 514 1596 c 0
 706 1596 837 1557 911 1478 c 1
 910 1478 l 1
 987 1399 1025 1309 1025 1210 c 0
 1025 1139 1002 1064 965 1001 c 0
 936 953 890 909 829 870 c 1
 877 849 918 826 951 798 c 0
 997 759 1036 707 1061 654 c 0
 1084 600 1099 535 1099 471 c 0xe8
 1099 322 1042 198 931 99 c 0
 823 4 681 -45 510 -45 c 0
 462 -45 406 -41 352 -34 c 0
 294 -26 212 -1 115 40 c 1xf0
EndSplineSet
EndChar

StartChar: four
Encoding: 52 52 23
Width: 1229
Flags: MW
HStem: 0 21G<648 904 648 648> 412 226<321 648 321 648 904 1176> 1532 20G<666 904 904 904>
VStem: 648 256<0 412 638 1118 1118 1118>
LayerCount: 2
Fore
SplineSet
904 0 m 1
 648 0 l 1
 648 412 l 1
 22 412 l 1
 22 612 l 1
 666 1552 l 1
 904 1552 l 1
 904 638 l 1
 1176 638 l 1
 1176 412 l 1
 904 412 l 1
 904 0 l 1
321 638 m 1
 648 638 l 1
 648 1118 l 1
 601 1049 550 975 504 907 c 0
 438 809 390 741 321 638 c 1
EndSplineSet
EndChar

StartChar: five
Encoding: 53 53 24
Width: 1229
Flags: MW
HStem: -45 21G<479 580.5> -45 240<503 554.5 503 580.5> 767 254<156 409 156 409> 1305 247<409 1059 409 409>
VStem: 156 253<1021 1305 1021 1552 1021 1552> 827 276<453.5 517>
LayerCount: 2
Fore
SplineSet
309 767 m 2xbc
 156 767 l 1
 156 1552 l 1
 1059 1552 l 1
 1059 1305 l 1
 409 1305 l 1
 409 1021 l 1
 627 1020 796 973 914 880 c 0
 1039 784 1103 654 1103 491 c 0
 1103 286 997 117 816 22 c 0
 726 -21 632 -45 529 -45 c 0
 429 -45 295 -18 126 34 c 1
 126 323 l 1
 221 268 295 239 356 220 c 1
 355 220 l 1
 414 206 477 195 529 195 c 0
 580 195 630 207 678 232 c 0x7c
 725 255 761 289 787 335 c 0
 813 383 827 430 827 477 c 0
 827 557 792 623 719 679 c 0
 644 737 508 767 309 767 c 2xbc
EndSplineSet
EndChar

StartChar: six
Encoding: 54 54 25
Width: 1229
Flags: MW
HStem: -45 224<611 659.5 611 705> 775 224<641.5 706.5> 1372 224<648.5 751>
VStem: 74 259 74 1079<444 887.5> 900 253<473.5 545.5>
LayerCount: 2
Fore
SplineSet
434 1209 m 0xf4
 374 1110 341 988 333 841 c 1
 366 873 405 904 441 928 c 0
 514 974 598 999 685 999 c 0
 771 999 849 978 921 939 c 1
 920 939 l 1
 996 898 1056 840 1096 766 c 0
 1134 693 1153 609 1153 515 c 0
 1153 373 1096 231 1009 124 c 1
 912 15 783 -45 627 -45 c 0
 441 -45 300 33 207 190 c 0
 119 340 74 531 74 759 c 0
 74 1016 130 1218 244 1366 c 0
 360 1519 517 1596 715 1596 c 0
 821 1596 928 1577 1043 1542 c 1
 1043 1273 l 1
 905 1339 794 1372 708 1372 c 0
 589 1372 498 1316 434 1209 c 0xf4
640 179 m 0
 679 179 724 195 765 216 c 2
 763 215 l 1
 804 241 837 279 862 330 c 1
 862 329 l 1
 887 382 900 442 900 505 c 0
 900 586 878 650 837 703 c 1
 837 702 l 1
 798 750 743 775 670 775 c 0
 592 775 528 745 478 687 c 0
 426 629 402 556 402 469 c 0
 402 385 427 314 476 259 c 0
 524 211 582 179 640 179 c 0
EndSplineSet
EndChar

StartChar: seven
Encoding: 55 55 26
Width: 1229
Flags: MW
HStem: 0 21G<281 550 281 281> 1298 254<134 879 134 1147>
VStem: 281 269<0 171 0 225.5>
LayerCount: 2
Fore
SplineSet
550 0 m 1
 281 0 l 1
 281 171 l 2
 281 280 292 370 318 444 c 1
 318 443 l 1
 343 519 385 600 445 687 c 0
 504 773 554 842 589 888 c 0
 638 953 694 1028 743 1092 c 2
 798 1163 l 2
 828 1203 854 1247 879 1298 c 1
 134 1298 l 1
 134 1552 l 1
 1147 1552 l 1
 1147 1396 l 2
 1147 1343 1135 1295 1115 1250 c 0
 1094 1206 1037 1118 941 987 c 1
 942 988 l 1
 923 960 l 2
 917 951 909 942 902 933 c 1
 902 934 l 1
 874 895 l 1
 775 755 l 2
 710 665 665 595 636 545 c 0
 611 497 586 441 571 387 c 1
 571 388 l 1
 557 335 550 263 550 171 c 2
 550 0 l 1
EndSplineSet
EndChar

StartChar: eight
Encoding: 56 56 27
Width: 1229
Flags: MW
HStem: -45 225<579 642 579 689> 1372 224<580.5 637.5>
VStem: 103 269<351.5 425 351.5 457.5> 103 1005<330 424.5 330 457.5> 184 247<1196.5 1232 1196.5 1256>
LayerCount: 2
Fore
SplineSet
103 376 m 0xe0
 103 539 199 692 387 834 c 1
 342 868 298 915 256 975 c 0
 208 1045 184 1121 184 1202 c 0xc8
 184 1310 230 1406 314 1482 c 0
 398 1555 507 1596 633 1596 c 0
 791 1596 926 1536 997 1420 c 1
 997 1421 l 1
 1032 1365 1051 1300 1051 1233 c 0
 1051 1142 1016 1053 955 972 c 0
 929 937 879 888 815 834 c 1
 823 827 l 1
 858 799 l 2
 944 728 1022 646 1055 593 c 0
 1090 533 1108 461 1108 388 c 0
 1108 272 1065 171 982 84 c 0
 898 -2 772 -45 606 -45 c 0
 442 -45 316 -5 231 76 c 0
 146 157 103 258 103 376 c 0xe0
611 988 m 2
 633 972 l 1
 707 1030 747 1073 765 1111 c 0
 787 1151 796 1188 796 1222 c 0
 796 1257 779 1290 745 1322 c 0
 710 1355 665 1372 610 1372 c 0
 551 1372 506 1354 477 1321 c 0
 445 1286 431 1250 431 1214 c 0
 431 1179 444 1145 470 1112 c 1
 469 1113 l 1xc8
 499 1076 547 1033 611 988 c 2
619 665 m 1
 584 691 l 1
 449 581 372 471 372 379 c 0
 372 324 396 277 442 240 c 0xe0
 488 200 546 180 612 180 c 0
 672 180 724 201 772 239 c 1
 772 238 l 1
 817 276 840 319 840 371 c 0
 840 425 811 482 753 539 c 0
 689 602 642 645 618 666 c 2
 619 665 l 1
EndSplineSet
EndChar

StartChar: nine
Encoding: 57 57 28
Width: 1229
Flags: MW
HStem: -45 225<446 549.5 446 581.5> 553 224<491.5 555.5> 1372 224<536 586.5>
VStem: 43 255<1006 1077.5 1006 1110> 43 1081<664.5 1110> 863 261
LayerCount: 2
Fore
SplineSet
763 343 m 0xf4
 822 442 856 563 863 709 c 1
 831 676 793 646 755 623 c 0
 683 577 600 553 511 553 c 0
 427 553 349 573 274 612 c 0
 199 653 143 711 102 785 c 0
 64 859 43 943 43 1037 c 0
 43 1183 96 1317 188 1426 c 1
 284 1533 417 1596 571 1596 c 0
 757 1596 897 1518 989 1360 c 0
 1079 1211 1124 1020 1124 792 c 0
 1124 537 1067 335 953 184 c 0
 837 32 681 -45 482 -45 c 0
 377 -45 269 -25 154 10 c 1
 154 276 l 1
 290 213 402 180 490 180 c 0
 609 180 699 236 763 343 c 0xf4
557 1372 m 0
 515 1372 475 1359 433 1335 c 0
 392 1310 360 1273 335 1221 c 0
 309 1168 298 1109 298 1046 c 0
 298 966 318 902 359 849 c 1
 359 850 l 1
 398 802 455 777 528 777 c 0
 603 777 670 811 719 864 c 0
 768 923 795 998 795 1082 c 0
 795 1167 771 1238 720 1291 c 0
 670 1344 616 1372 557 1372 c 0
EndSplineSet
EndChar

StartChar: colon
Encoding: 58 58 29
Width: 1229
Flags: MW
HStem: -45 21G<572.5 624.5>
VStem: 405 387<123 176 123 176 948.5 1001.5>
LayerCount: 2
Fore
SplineSet
598 -45 m 0
 547 -45 501 -25 463 13 c 0
 424 51 405 96 405 149 c 0
 405 203 424 250 463 286 c 1
 463 285 l 1
 502 323 548 342 598 342 c 0
 650 342 696 323 734 286 c 1
 734 287 l 1
 773 250 792 203 792 149 c 0
 792 97 773 51 735 13 c 0
 697 -25 651 -45 598 -45 c 0
598 781 m 0
 547 781 501 800 463 838 c 0
 424 876 405 921 405 975 c 0
 405 1028 424 1075 463 1112 c 1
 463 1111 l 1
 503 1149 548 1168 598 1168 c 0
 650 1168 696 1149 734 1111 c 1
 734 1112 l 1
 773 1075 792 1028 792 975 c 0
 792 922 773 876 735 838 c 0
 697 800 651 781 598 781 c 0
EndSplineSet
EndChar

StartChar: semicolon
Encoding: 59 59 30
Width: 1229
Flags: MW
HStem: -418 21G<380 380> -30 21G
VStem: 380 438<-418 105 -227 105>
LayerCount: 2
Fore
SplineSet
380 -418 m 1
 380 -227 l 1
 478 -202 519 -163 542 -105 c 0
 552 -84 558 -56 561 -30 c 1
 508 -23 470 -4 441 30 c 0
 408 71 390 115 390 163 c 0
 390 219 409 266 448 301 c 1
 448 300 l 1
 487 338 533 358 584 358 c 0
 647 358 704 330 750 275 c 0
 794 221 818 149 818 61 c 0
 815 -160 649 -385 380 -418 c 1
584 781 m 0
 531 781 485 800 447 838 c 0
 409 876 390 922 390 975 c 0
 390 1028 409 1074 447 1111 c 0
 487 1149 532 1168 584 1168 c 0
 634 1168 680 1149 718 1111 c 1
 718 1112 l 1
 758 1075 777 1028 777 975 c 0
 777 921 758 876 719 838 c 0
 681 800 635 781 584 781 c 0
EndSplineSet
EndChar

StartChar: less
Encoding: 60 60 31
Width: 1229
Flags: MW
HStem: -25 21G<1153 1153> 1112 20G<1153 1153>
VStem: -4 1157<-25 555>
LayerCount: 2
Fore
SplineSet
1153 -25 m 1
 -4 555 l 1
 1153 1132 l 1
 1153 881 l 1
 497 556 l 1
 753 426 l 1
 1153 224 l 1
 1153 -25 l 1
EndSplineSet
EndChar

StartChar: equal
Encoding: 61 61 32
Width: 1229
Flags: MW
HStem: 273 224<44 1153 44 1153> 604 225<44 1153 44 1153>
VStem: 44 1109<273 497 273 497 604 829 273 829>
LayerCount: 2
Fore
SplineSet
44 829 m 1
 1153 829 l 1
 1153 604 l 1
 44 604 l 1
 44 829 l 1
44 497 m 1
 1153 497 l 1
 1153 273 l 1
 44 273 l 1
 44 497 l 1
EndSplineSet
EndChar

StartChar: greater
Encoding: 62 62 33
Width: 1229
Flags: MW
HStem: -25 21G<45 45> 1112 20G<45 45>
VStem: 45 1157<-25 555 228 555 555 1132 555 1132>
LayerCount: 2
Fore
SplineSet
45 1132 m 1
 1202 555 l 1
 45 -25 l 1
 45 228 l 1
 703 554 l 1
 465 674 l 1
 45 885 l 1
 45 1132 l 1
EndSplineSet
EndChar

StartChar: question
Encoding: 63 63 34
Width: 1229
Flags: MW
HStem: -45 21G<470 516.5> 1372 224<555 620>
VStem: 358 254<420 492 492 502 420 519>
LayerCount: 2
Fore
SplineSet
612 420 m 1
 358 420 l 1
 358 492 l 2
 358 546 363 593 373 633 c 0
 383 672 401 713 429 754 c 1
 428 754 l 1
 454 794 492 841 546 895 c 2
 604 958 l 2
 613 967 624 980 640 999 c 2
 651 1014 l 2
 672 1039 694 1068 714 1094 c 0
 758 1151 786 1204 786 1241 c 0
 786 1274 771 1303 742 1330 c 0
 712 1358 658 1372 582 1372 c 0
 528 1372 476 1364 422 1350 c 0
 373 1339 290 1299 174 1234 c 1
 174 1496 l 1
 309 1564 445 1596 580 1596 c 0
 729 1596 847 1563 927 1500 c 0
 1008 1436 1055 1347 1055 1245 c 0
 1055 1146 997 1036 899 933 c 2
 836 869 l 1
 762 792 l 1
 695 723 l 2
 675 699 652 668 636 635 c 0
 619 605 612 562 612 502 c 2
 612 420 l 1
493 -45 m 0
 447 -45 406 -27 370 8 c 0
 336 42 319 84 319 131 c 0
 319 177 336 219 370 253 c 0
 407 288 446 305 493 305 c 0
 539 305 581 287 615 255 c 0
 650 222 669 179 669 131 c 0
 669 81 652 40 616 6 c 1
 616 7 l 1
 581 -27 540 -45 493 -45 c 0
EndSplineSet
EndChar

StartChar: at
Encoding: 64 64 35
Width: 1229
Flags: MW
HStem: -45 188<570.5 640.5> 412 211<910 913 910 914> 412 226<460.5 488 460.5 497> 1025 202<653 877 653 877 658 672 672 672> 1409 187<518 633.5>
VStem: -22 195<717.5 837.5 717.5 900.5> 196 232<716 779.5 716 815> 653 224<817 1025 1025 1025 1025 1025 1025 1044> 1025 195<860 910>
LayerCount: 2
Fore
SplineSet
929 319 m 1xbd80
 929 58 l 1
 864 16 804 -14 758 -25 c 1
 759 -25 l 1
 713 -39 665 -45 616 -45 c 0
 478 -45 358 -7 269 59 c 0
 182 128 109 224 56 343 c 0
 5 464 -22 610 -22 781 c 0
 -22 1020 34 1214 145 1365 c 0
 258 1518 411 1596 604 1596 c 0
 793 1596 944 1529 1056 1392 c 0
 1165 1258 1220 1083 1220 868 c 0
 1220 672 1157 549 1060 472 c 1
 1060 472 l 1
 1012 433 950 412 878 412 c 0
 822 412 775 425 737 451 c 0xdd80
 714 468 696 496 680 532 c 1
 668 516 653 499 637 482 c 0
 593 436 533 412 461 412 c 0xbf80
 384 412 317 450 268 517 c 0
 220 582 196 664 196 757 c 0
 196 873 229 978 293 1073 c 0
 362 1176 484 1227 658 1227 c 2
 877 1227 l 1
 877 772 l 2
 877 721 879 684 883 661 c 1
 883 662 l 2
 886 645 891 635 897 630 c 0
 902 625 907 623 913 623 c 0xdf80
 971 620 1030 730 1025 860 c 0
 1025 960 1007 1059 970 1156 c 0
 935 1247 882 1312 815 1350 c 0
 745 1389 672 1409 595 1409 c 0
 441 1409 314 1300 234 1114 c 1
 235 1115 l 1
 197 1015 173 896 173 779 c 0
 173 656 195 541 235 435 c 0
 276 331 327 256 392 212 c 0
 456 168 529 143 612 143 c 0
 703 143 808 202 929 319 c 1xbd80
653 1025 m 1
 658 1025 l 1
 672 1025 l 1
 653 1044 l 1
 653 1025 l 1
653 817 m 1xbf80
 653 1025 l 1
 588 1024 543 1014 518 997 c 1
 519 997 l 1
 492 978 471 948 455 904 c 0
 438 856 428 806 428 753 c 0
 428 679 445 638 476 638 c 0
 500 638 530 659 560 690 c 1
 560 689 l 1
 594 726 627 769 653 817 c 1xbf80
EndSplineSet
EndChar

StartChar: A
Encoding: 65 65 36
Width: 1229
Flags: MW
HStem: 0 21G<-5 260 -5 -5 921 921 921 1205> 324 225<359 753 429 753 429 821> 1532 20G<472 724 724 724>
VStem: -5 1210<0 0>
LayerCount: 2
Fore
SplineSet
359 324 m 1
 260 0 l 1
 -5 0 l 1
 472 1552 l 1
 724 1552 l 1
 1205 0 l 1
 921 0 l 1
 821 324 l 1
 359 324 l 1
592 1064 m 1
 592 1061 l 1
 592 1064 l 1
587 1058 m 1
 429 549 l 1
 753 549 l 1
 698 722 648 885 593 1058 c 1
 593 1059 l 2
 592 1060 592 1060 592 1061 c 1
 593 1060 592 1061 590 1067 c 2
 590 1067 591 1065 592 1064 c 1
 591 1067 590 1067 590 1067 c 1
 590 1069 l 1
 587 1058 l 1
EndSplineSet
EndChar

StartChar: B
Encoding: 66 66 37
Width: 1229
Flags: MW
HStem: 0 224<409 537> 663 225<409 566 409 424> 1327 225<409 409 409 467 467 505>
VStem: 140 269<224 663 888 1327> 766 262<1138.5 1186.5>
LayerCount: 2
Fore
SplineSet
537 0 m 2
 140 0 l 1
 140 1552 l 1
 467 1552 l 2
 645 1552 765 1536 830 1508 c 0
 894 1480 946 1433 979 1377 c 0
 1011 1320 1028 1252 1028 1182 c 0
 1028 1068 990 966 916 881 c 0
 892 854 861 828 825 802 c 1
 912 759 975 707 1012 644 c 0
 1056 572 1080 492 1080 419 c 0
 1080 348 1061 280 1022 211 c 0
 983 141 928 91 859 54 c 0
 791 19 683 0 537 0 c 2
409 1327 m 1
 409 888 l 1
 566 888 l 1
 623 912 663 937 688 961 c 0
 713 988 733 1016 746 1049 c 0
 759 1084 766 1119 766 1158 c 0
 766 1215 750 1258 718 1285 c 0
 685 1313 614 1327 505 1327 c 2
 409 1327 l 1
409 663 m 1
 409 224 l 1
 553 224 l 2
 644 224 709 245 750 284 c 0
 791 325 811 372 811 430 c 0
 811 514 767 588 671 630 c 0
 621 653 539 663 424 663 c 2
 409 663 l 1
EndSplineSet
EndChar

StartChar: C
Encoding: 67 67 38
Width: 1229
Flags: MW
HStem: -45 224<711.5 791.5 711.5 798> 1372 225<689.5 791.5>
VStem: 88 276<719 832 719 854.5> 88 1000<28 854.5>
LayerCount: 2
Fore
SplineSet
1088 295 m 1xd0
 1088 28 l 1
 956 -19 844 -45 752 -45 c 0
 629 -45 515 -13 413 54 c 0
 310 119 231 215 173 346 c 0
 117 475 88 618 88 776 c 0
 88 933 117 1075 172 1203 c 0
 229 1334 308 1431 411 1496 c 0
 513 1564 627 1597 752 1597 c 0
 844 1597 956 1571 1088 1524 c 1
 1088 1255 l 1
 954 1333 839 1372 744 1372 c 0
 610 1372 489 1275 420 1090 c 0
 383 992 364 888 364 776 c 0
 364 662 384 557 422 458 c 0xe0
 459 363 507 292 563 246 c 1
 562 247 l 1
 619 203 679 179 744 179 c 0
 839 179 953 218 1088 295 c 1xd0
EndSplineSet
EndChar

StartChar: D
Encoding: 68 68 39
Width: 1229
Flags: MW
HStem: 0 240<394 484 484 513> 1327 225<394 394 394 498>
VStem: 125 269<240 1327 240 1552 240 1552> 878 268<731.5 852.5 697.5 870.5>
LayerCount: 2
Fore
SplineSet
513 0 m 2
 125 0 l 1
 125 1552 l 1
 513 1552 l 2
 681 1552 809 1520 894 1459 c 0
 977 1400 1043 1306 1084 1187 c 1
 1084 1188 l 1
 1125 1071 1146 933 1146 772 c 0
 1146 623 1122 484 1081 371 c 0
 1039 255 972 162 891 97 c 1
 892 97 l 1
 810 31 684 0 513 0 c 2
394 1327 m 1
 394 240 l 1
 484 240 l 2
 604 240 689 258 736 299 c 0
 786 341 821 398 844 474 c 1
 844 473 l 1
 865 551 878 661 878 802 c 0
 878 939 863 1042 838 1115 c 0
 812 1185 777 1237 731 1272 c 0
 685 1308 608 1327 498 1327 c 2
 394 1327 l 1
EndSplineSet
EndChar

StartChar: E
Encoding: 69 69 40
Width: 1229
Flags: MW
HStem: 0 240<439 1043 439 1043> 679 224<439 969 439 969> 1327 225<439 1028 439 439>
VStem: 170 269<240 240 240 679 903 1327>
LayerCount: 2
Fore
SplineSet
439 240 m 1
 1043 240 l 1
 1043 0 l 1
 170 0 l 1
 170 1552 l 1
 1028 1552 l 1
 1028 1327 l 1
 439 1327 l 1
 439 903 l 1
 969 903 l 1
 969 679 l 1
 439 679 l 1
 439 240 l 1
EndSplineSet
EndChar

StartChar: F
Encoding: 70 70 41
Width: 1229
Flags: MW
HStem: 0 21G<193 462 193 193> 679 224<462 1022 462 1022> 1327 225<462 1081 462 462>
VStem: 193 269<0 679 903 1327>
LayerCount: 2
Fore
SplineSet
462 0 m 1
 193 0 l 1
 193 1552 l 1
 1081 1552 l 1
 1081 1327 l 1
 462 1327 l 1
 462 903 l 1
 1022 903 l 1
 1022 679 l 1
 462 679 l 1
 462 0 l 1
EndSplineSet
EndChar

StartChar: G
Encoding: 71 71 42
Width: 1229
Flags: MW
HStem: -45 224<709 790 709 808> 583 224<671 819 671 1088> 1372 225<689 791>
VStem: 88 276<697.5 828.5 697.5 854.5> 819 269<180 583 583 583>
LayerCount: 2
Fore
SplineSet
1088 807 m 1
 1088 11 l 1
 963 -25 853 -45 763 -45 c 0
 502 -45 290 85 174 344 c 0
 118 473 88 615 88 776 c 0
 88 933 117 1075 172 1203 c 0
 229 1334 308 1431 411 1496 c 0
 513 1564 627 1597 751 1597 c 0
 843 1597 955 1571 1087 1524 c 1
 1087 1255 l 1
 953 1333 838 1372 744 1372 c 0
 616 1372 491 1259 419 1090 c 1
 386 994 364 883 364 774 c 0
 364 621 398 483 469 357 c 1
 468 357 l 1
 534 240 638 179 780 179 c 0
 800 179 787 177 819 180 c 1
 819 583 l 1
 671 583 l 1
 671 807 l 1
 1088 807 l 1
EndSplineSet
EndChar

StartChar: H
Encoding: 72 72 43
Width: 1229
Flags: MW
HStem: 0 21G<96 365 96 96 834 834 834 1101> 693 224<365 834 365 834> 1532 20G<96 365 365 365 834 1101 1101 1101>
VStem: 96 269<0 693 917 1552> 834 267<0 693 693 693 917 1552 0 1552>
LayerCount: 2
Fore
SplineSet
365 0 m 1
 96 0 l 1
 96 1552 l 1
 365 1552 l 1
 365 917 l 1
 834 917 l 1
 834 1552 l 1
 1101 1552 l 1
 1101 0 l 1
 834 0 l 1
 834 693 l 1
 365 693 l 1
 365 0 l 1
EndSplineSet
EndChar

StartChar: I
Encoding: 73 73 44
Width: 1229
Flags: MW
HStem: 0 224<140 464 733 1058 140 464> 1327 225<140 464 140 1058 733 733 733 1058>
VStem: 464 269<224 1327 224 1327>
LayerCount: 2
Fore
SplineSet
1058 0 m 1
 140 0 l 1
 140 224 l 1
 464 224 l 1
 464 1327 l 1
 140 1327 l 1
 140 1552 l 1
 1058 1552 l 1
 1058 1327 l 1
 733 1327 l 1
 733 224 l 1
 1058 224 l 1
 1058 0 l 1
EndSplineSet
EndChar

StartChar: J
Encoding: 74 74 45
Width: 1229
Flags: MW
HStem: -45 225<421.5 506 421.5 523> 1327 225<360 691 360 960>
VStem: 691 269<553 1327 1327 1327>
LayerCount: 2
Fore
SplineSet
79 46 m 1
 79 316 l 1
 249 225 378 180 465 180 c 0
 547 180 620 210 659 283 c 0
 681 323 691 413 691 553 c 2
 691 1327 l 1
 360 1327 l 1
 360 1552 l 1
 960 1552 l 1
 960 548 l 2
 960 383 941 264 903 191 c 0
 864 115 807 58 737 17 c 0
 667 -24 576 -45 470 -45 c 0
 352 -45 222 -16 79 46 c 1
EndSplineSet
EndChar

StartChar: K
Encoding: 75 75 46
Width: 1229
Flags: MW
HStem: 0 21G<128 397 128 128 925 925 925 1264> 1532 20G<128 397 397 397 888 1187 1187 1187>
VStem: 128 269<0 679 904 1552>
LayerCount: 2
Fore
SplineSet
397 0 m 1
 128 0 l 1
 128 1552 l 1
 397 1552 l 1
 397 904 l 1
 888 1552 l 1
 1187 1552 l 1
 629 813 l 1
 788 608 962 386 1127 175 c 2
 1264 0 l 1
 925 0 l 1
 397 679 l 1
 397 0 l 1
EndSplineSet
EndChar

StartChar: L
Encoding: 76 76 47
Width: 1229
Flags: MW
HStem: 0 240<454 1059 454 1059> 1532 20G<185 454 454 454>
VStem: 185 269<240 240 240 1552>
LayerCount: 2
Fore
SplineSet
454 240 m 1
 1059 240 l 1
 1059 0 l 1
 185 0 l 1
 185 1552 l 1
 454 1552 l 1
 454 240 l 1
EndSplineSet
EndChar

StartChar: M
Encoding: 77 77 48
Width: 1229
Flags: MW
HStem: 0 21G<30 262 30 30 914 914 914 1169> 1532 20G<30 288 288 288 915 1169 1169 1169>
VStem: 30 232<0 858 0 1552> 914 255<0 869 869 869>
LayerCount: 2
Fore
SplineSet
464 294 m 1
 262 858 l 1
 262 0 l 1
 30 0 l 1
 30 1552 l 1
 288 1552 l 1
 601 661 l 1
 704 954 813 1262 915 1552 c 1
 1169 1552 l 1
 1169 0 l 1
 914 0 l 1
 914 869 l 1
 711 294 l 1
 464 294 l 1
EndSplineSet
EndChar

StartChar: N
Encoding: 78 78 49
Width: 1229
Flags: MW
HStem: 0 21G<96 350 96 96 864 1101 864 864> 1532 20G<96 331 331 331 848 1101 1101 1101>
VStem: 96 254<0 977 0 1552> 848 253<580 1552 0 1552>
LayerCount: 2
Fore
SplineSet
864 0 m 1
 350 977 l 1
 350 0 l 1
 96 0 l 1
 96 1552 l 1
 331 1552 l 1
 848 580 l 1
 848 1552 l 1
 1101 1552 l 1
 1101 0 l 1
 864 0 l 1
EndSplineSet
EndChar

StartChar: O
Encoding: 79 79 50
Width: 1229
Flags: MW
HStem: -45 225<560.5 636 560.5 690> 1372 224<560 636.5>
VStem: 44 269<677.5 877 677.5 898> 884 269<673.5 877>
LayerCount: 2
Fore
SplineSet
598 -45 m 0
 418 -45 278 31 182 183 c 0
 90 331 44 528 44 776 c 0
 44 1020 91 1221 182 1367 c 0
 277 1516 419 1596 598 1596 c 0
 781 1596 919 1520 1016 1367 c 0
 1107 1220 1153 1023 1153 776 c 0
 1153 528 1107 331 1016 183 c 0
 919 31 782 -45 598 -45 c 0
598 180 m 0
 674 180 744 232 797 319 c 1
 797 318 l 1
 853 418 884 571 884 776 c 0
 884 978 852 1134 797 1233 c 1
 744 1320 675 1372 598 1372 c 0
 522 1372 452 1320 400 1233 c 0
 345 1134 313 978 313 776 c 0
 313 579 348 418 400 318 c 1
 452 233 523 180 598 180 c 0
EndSplineSet
EndChar

StartChar: P
Encoding: 80 80 51
Width: 1229
Flags: MW
HStem: 0 21G<145 414 145 145> 538 224<414 454 414 459> 1327 225<414 414 414 491>
VStem: 145 269<0 538 0 762 762 1327> 863 269<1059 1127>
LayerCount: 2
Fore
SplineSet
454 538 m 2
 414 538 l 1
 414 0 l 1
 145 0 l 1
 145 1552 l 1
 550 1552 l 2
 705 1552 822 1533 897 1496 c 0
 968 1461 1033 1404 1072 1334 c 0
 1113 1261 1132 1182 1132 1096 c 0
 1132 999 1102 897 1052 812 c 0
 1000 725 924 654 830 607 c 0
 735 562 611 538 454 538 c 2
414 1327 m 1
 414 762 l 1
 459 762 l 2
 571 762 653 776 704 804 c 0
 755 832 793 870 820 920 c 0
 850 973 863 1028 863 1090 c 0
 863 1164 840 1222 792 1262 c 0
 745 1306 644 1327 491 1327 c 2
 414 1327 l 1
EndSplineSet
EndChar

StartChar: Q
Encoding: 81 81 52
Width: 1229
Flags: MW
HStem: -412 224<1074.5 1221 1165 1221 1165 1221> -9 21G 1372 224<561.5 638>
VStem: 45 269<723 877 673.5 908.5> 885 270<717.5 877>
LayerCount: 2
Fore
SplineSet
992 149 m 0
 938 79 867 24 783 -9 c 1
 814 -58 841 -90 868 -111 c 0
 900 -137 940 -157 990 -170 c 0
 1039 -181 1100 -188 1165 -188 c 2
 1221 -188 l 1
 1221 -412 l 1
 1138 -412 l 2
 1011 -412 917 -398 855 -370 c 0
 792 -341 735 -300 684 -246 c 1
 685 -246 l 1
 638 -197 593 -127 553 -41 c 1
 438 -25 346 15 277 77 c 0
 204 143 146 244 106 376 c 0
 65 508 45 648 45 798 c 0
 45 1019 90 1207 179 1358 c 0
 272 1517 413 1596 600 1596 c 0
 779 1596 920 1516 1015 1368 c 0
 1106 1222 1155 1021 1155 775 c 0
 1155 660 1142 545 1118 439 c 0
 1093 335 1048 228 992 149 c 0
600 1372 m 0
 523 1372 454 1320 400 1233 c 1
 345 1135 314 978 314 776 c 0
 314 571 344 418 400 318 c 1
 400 319 l 1
 454 232 524 180 600 180 c 0
 675 180 745 233 798 318 c 1
 851 418 885 576 885 776 c 0
 885 978 852 1134 798 1233 c 1
 745 1320 676 1372 600 1372 c 0
EndSplineSet
EndChar

StartChar: R
Encoding: 82 82 53
Width: 1229
Flags: MW
HStem: 0 21G<120 389 120 120 912 912 912 1230> 626 226<389 521 389 611> 1327 225<389 389 389 494>
VStem: 120 269<0 626 0 852 852 1327>
LayerCount: 2
Fore
SplineSet
521 626 m 1
 389 626 l 1
 389 0 l 1
 120 0 l 1
 120 1552 l 1
 553 1552 l 2
 685 1552 786 1536 853 1508 c 0
 920 1479 974 1434 1011 1376 c 0
 1046 1318 1066 1252 1066 1183 c 0
 1066 1059 1017 928 932 831 c 0
 895 789 851 751 788 714 c 1
 1230 0 l 1
 912 0 l 1
 521 626 l 1
389 1327 m 1
 389 852 l 1
 611 852 l 1
 661 881 699 910 724 939 c 0
 750 969 771 1002 785 1036 c 0
 796 1071 805 1107 805 1139 c 0
 805 1195 784 1238 743 1272 c 1
 744 1272 l 1
 699 1308 617 1327 494 1327 c 2
 389 1327 l 1
EndSplineSet
EndChar

StartChar: S
Encoding: 83 83 54
Width: 1229
Flags: MW
HStem: -45 225<520 603.5 520 636.5> 1372 224<608 693.5>
VStem: 126 977<43 491.5 312 491.5> 141 268<1164.5 1214 1164.5 1223.5> 835 268<362 400.5>
LayerCount: 2
Fore
SplineSet
126 43 m 1xe0
 126 312 l 1
 311 224 461 180 579 180 c 0
 628 180 671 188 713 207 c 0
 753 222 784 249 803 279 c 0
 823 311 835 345 835 379 c 0
 835 422 819 462 792 500 c 0
 763 537 692 592 614 639 c 2
 577 660 l 1
 517 695 l 2
 486 714 450 732 419 751 c 0
 234 860 141 999 141 1164 c 0
 141 1283 185 1388 268 1470 c 0
 354 1550 486 1596 656 1596 c 0
 767 1596 881 1576 999 1540 c 1
 999 1292 l 1
 862 1344 743 1372 644 1372 c 0
 572 1372 514 1353 471 1316 c 0
 430 1281 409 1239 409 1189 c 0
 409 1140 425 1099 456 1067 c 0
 493 1028 539 993 597 962 c 2
 671 917 l 1
 762 861 l 1
 840 815 l 2
 1016 709 1103 573 1103 410 c 0xd8
 1103 287 1057 179 966 90 c 0
 875 0 733 -45 540 -45 c 0
 479 -45 417 -39 366 -29 c 0
 315 -19 233 4 126 43 c 1xe0
EndSplineSet
EndChar

StartChar: T
Encoding: 84 84 55
Width: 1229
Flags: MW
HStem: 0 21G<464 733 464 464> 1312 240<22 464 22 1176 733 733 733 1176>
VStem: 464 269<0 1312>
LayerCount: 2
Fore
SplineSet
733 0 m 1
 464 0 l 1
 464 1312 l 1
 22 1312 l 1
 22 1552 l 1
 1176 1552 l 1
 1176 1312 l 1
 733 1312 l 1
 733 0 l 1
EndSplineSet
EndChar

StartChar: U
Encoding: 85 85 56
Width: 1229
Flags: MW
HStem: -45 224<579 644> 1532 20G<96 365 365 365 848 1101 1101 1101>
VStem: 96 269<569 1552> 848 253<620 1552>
LayerCount: 2
Fore
SplineSet
96 569 m 2
 96 1552 l 1
 365 1552 l 1
 365 545 l 2
 365 423 375 340 393 299 c 1
 393 300 l 1
 412 262 440 230 475 211 c 1
 474 212 l 1
 514 190 555 179 603 179 c 0
 698 179 782 230 818 317 c 1
 836 371 848 475 848 620 c 2
 848 1552 l 1
 1101 1552 l 1
 1101 551 l 2
 1101 407 1079 294 1036 211 c 0
 992 129 933 63 862 20 c 0
 790 -19 695 -45 593 -45 c 0
 393 -45 235 31 155 181 c 0
 117 256 96 385 96 569 c 2
EndSplineSet
EndChar

StartChar: V
Encoding: 86 86 57
Width: 1229
Flags: MW
HStem: 0 21G<475 727 475 475> 1532 20G<-5 278 278 278 940 1205 1205 1205>
VStem: -5 1210<1552 1552>
LayerCount: 2
Fore
SplineSet
609 487 m 2
 940 1552 l 1
 1205 1552 l 1
 727 0 l 1
 475 0 l 1
 -5 1552 l 1
 278 1552 l 1
 606 493 l 1
 608 484 l 2
 608 485 609 486 609 487 c 2
EndSplineSet
EndChar

StartChar: W
Encoding: 87 87 58
Width: 1229
Flags: MW
HStem: 0 21G<178 425 178 178 763 763 763 1013> 1532 20G<-2 251 251 251 477 717 717 717 972 1201 1201 1201>
VStem: -2 1203<1552 1552>
LayerCount: 2
Fore
SplineSet
425 0 m 1
 178 0 l 1
 -2 1552 l 1
 251 1552 l 1
 339 762 l 1
 477 1552 l 1
 717 1552 l 1
 872 726 l 1
 905 1005 940 1277 972 1552 c 1
 1201 1552 l 1
 1013 0 l 1
 763 0 l 1
 586 937 l 1
 425 0 l 1
EndSplineSet
EndChar

StartChar: X
Encoding: 88 88 59
Width: 1229
Flags: MW
HStem: 0 21G<-5 282 -5 -5 891 891 891 1204> 1532 20G<36 341 341 341 870 1157 1157 1157>
VStem: -5 1209<0 0>
LayerCount: 2
Fore
SplineSet
590 548 m 1
 282 0 l 1
 -5 0 l 1
 448 808 l 1
 374 941 303 1071 229 1204 c 0
 168 1311 91 1450 36 1552 c 1
 341 1552 l 1
 602 1084 l 1
 690 1239 783 1398 870 1552 c 1
 1157 1552 l 1
 746 824 l 1
 992 381 l 2
 1059 261 1141 114 1204 0 c 1
 891 0 l 1
 590 548 l 1
EndSplineSet
EndChar

StartChar: Y
Encoding: 89 89 60
Width: 1229
Flags: MW
HStem: 0 21G<465 734 465 465> 1532 20G<-2 303 303 303 916 1201 1201 1201>
VStem: 465 269<0 710>
LayerCount: 2
Fore
SplineSet
734 0 m 1
 465 0 l 1
 465 711 l 1
 -2 1552 l 1
 303 1552 l 1
 610 1005 l 1
 751 1259 l 1
 916 1552 l 1
 1201 1552 l 1
 734 710 l 1
 734 0 l 1
EndSplineSet
EndChar

StartChar: Z
Encoding: 90 90 61
Width: 1229
Flags: MW
HStem: 0 240<420 1105 420 1105> 1327 225<115 764 115 1092>
VStem: 92 1013<0 211 211 211>
LayerCount: 2
Fore
SplineSet
1105 0 m 1
 92 0 l 1
 92 211 l 1
 764 1327 l 1
 115 1327 l 1
 115 1552 l 1
 1092 1552 l 1
 1092 1356 l 1
 420 240 l 1
 1105 240 l 1
 1105 0 l 1
EndSplineSet
EndChar

StartChar: bracketleft
Encoding: 91 91 62
Width: 1229
Flags: MW
HStem: -354 224<571 1162 571 1162> 1416 225<571 1162 571 571>
VStem: 317 254<-130 1416 -130 1641 -130 1641>
LayerCount: 2
Fore
SplineSet
1162 -354 m 1
 317 -354 l 1
 317 1641 l 1
 1162 1641 l 1
 1162 1416 l 1
 571 1416 l 1
 571 -130 l 1
 1162 -130 l 1
 1162 -354 l 1
EndSplineSet
EndChar

StartChar: backslash
Encoding: 92 92 63
Width: 1229
Flags: MW
HStem: -45 21G<958 1220 958 958> 1576 20G<-21 236 236 236>
VStem: -21 1241
LayerCount: 2
Fore
SplineSet
1220 -45 m 1
 958 -45 l 1
 -21 1596 l 1
 236 1596 l 1
 1220 -45 l 1
EndSplineSet
EndChar

StartChar: bracketright
Encoding: 93 93 64
Width: 1229
Flags: MW
HStem: -354 224<37 627 37 880 37 627> 1416 225<37 627 37 880>
VStem: 627 253<-130 1416 1416 1416>
LayerCount: 2
Fore
SplineSet
37 1641 m 1
 880 1641 l 1
 880 -354 l 1
 37 -354 l 1
 37 -130 l 1
 627 -130 l 1
 627 1416 l 1
 37 1416 l 1
 37 1641 l 1
EndSplineSet
EndChar

StartChar: asciicircum
Encoding: 94 94 65
Width: 1229
Flags: MW
HStem: 442 1158<21 598 21 598 598 927 598 1176>
VStem: 21 1155<442 442>
LayerCount: 2
Fore
SplineSet
21 442 m 1
 598 1600 l 1
 1176 442 l 1
 927 442 l 1
 598 1104 l 1
 490 885 377 659 270 442 c 1
 21 442 l 1
EndSplineSet
EndChar

StartChar: underscore
Encoding: 95 95 66
Width: 1229
Flags: MW
HStem: -147 224<44 1153 44 1153>
VStem: 44 1109<-147 77 -147 77>
LayerCount: 2
Fore
SplineSet
1153 -147 m 1
 44 -147 l 1
 44 77 l 1
 1153 77 l 1
 1153 -147 l 1
EndSplineSet
EndChar

StartChar: grave
Encoding: 96 96 67
Width: 1229
Flags: MW
HStem: 1224 386<220 891 220 626>
VStem: 220 671<1224 1610>
LayerCount: 2
Fore
SplineSet
541 1610 m 1
 891 1224 l 1
 626 1224 l 1
 220 1610 l 1
 541 1610 l 1
EndSplineSet
EndChar

StartChar: a
Encoding: 97 97 68
Width: 1229
Flags: MW
HStem: -29 21G<405.5 488> 0 21G<868 868 868 1116> 910 221<632.5 672.5 595 698> 1097 20G<849 1062 1062 1062> 1102 20G<808 812>
VStem: 78 264<439.5 527> 812 250<488 895 895 895>
LayerCount: 2
Fore
SplineSet
868 0 m 1x4a
 849 14 l 1x66
 837 63 828 114 821 170 c 1
 778 119 728 74 678 43 c 0
 598 -4 521 -29 455 -29 c 0
 356 -29 268 13 191 96 c 0
 115 178 78 300 78 464 c 0
 78 590 103 704 150 803 c 0
 198 902 267 984 346 1042 c 0
 429 1101 535 1131 655 1131 c 0xe6
 690 1131 744 1129 808 1122 c 0x4a
 816 1122 821 1121 828 1120 c 2
 849 1117 l 1
 1062 1117 l 1x52
 1062 344 l 2
 1062 224 1080 110 1116 0 c 1
 868 0 l 1x4a
812 488 m 1
 812 895 l 1
 764 905 718 910 678 910 c 0
 587 910 501 866 439 799 c 1
 439 800 l 1
 377 725 342 617 342 488 c 0
 342 391 360 321 392 275 c 1
 392 276 l 1
 424 234 458 213 495 213 c 0
 539 213 593 237 650 286 c 0
 708 337 764 405 812 488 c 1
EndSplineSet
EndChar

StartChar: b
Encoding: 98 98 69
Width: 1229
Flags: MW
HStem: -14 221<502 542 479.5 581> -5 21G<366 366> 0 21G<115 326 115 115> 1126 20G<687 770.5> 1560 20G<115 364 364 364>
VStem: 115 249<222 629 962 1580> 834 265<591 676.5>
LayerCount: 2
Fore
SplineSet
364 1580 m 1x3c
 364 962 l 1
 405 1006 453 1047 498 1074 c 0
 576 1121 653 1146 721 1146 c 0
 820 1146 907 1104 985 1021 c 0
 1060 940 1099 818 1099 653 c 0
 1099 529 1073 412 1024 313 c 0
 977 216 909 131 828 74 c 0
 745 14 643 -14 519 -14 c 0x9e
 485 -14 433 -12 366 -5 c 2x5c
 344 -2 l 2
 337 -1 330 0 326 0 c 2
 115 0 l 1
 115 1580 l 1
 364 1580 l 1x3c
364 629 m 1
 364 222 l 1
 412 212 460 207 499 207 c 0
 585 207 674 256 736 316 c 1
 797 391 834 502 834 629 c 0
 834 724 816 796 783 841 c 0
 751 882 716 904 680 904 c 0
 638 904 577 873 526 831 c 0
 468 780 411 712 364 629 c 1
EndSplineSet
EndChar

StartChar: c
Encoding: 99 99 70
Width: 1229
Flags: MW
HStem: -29 236<710 743.5 670.5 764> 926 220<688.5 755.5 623 761.5>
VStem: 136 265<558 596.5 520.5 641.5> 136 943<42 641.5>
LayerCount: 2
Fore
SplineSet
1079 288 m 1xd0
 1079 42 l 1
 941 -6 818 -29 710 -29 c 0
 378 -31 132 224 136 558 c 0
 136 725 191 866 301 978 c 0
 411 1090 545 1146 701 1146 c 0
 810 1146 937 1122 1079 1074 c 1
 1079 822 l 1
 928 890 807 926 716 926 c 0
 661 926 607 911 556 881 c 0
 507 854 469 811 442 753 c 0
 413 693 401 628 401 565 c 0
 401 476 427 394 480 317 c 0xe0
 531 243 614 207 727 207 c 0
 760 207 798 209 833 214 c 0
 867 219 952 245 1079 288 c 1xd0
EndSplineSet
EndChar

StartChar: d
Encoding: 100 100 71
Width: 1229
Flags: MW
HStem: -29 21G<415.5 498.5> 0 21G<822 822 822 1072> 910 221<643.5 683 606 709> 1102 20G<818 818> 1560 20G<822 1072 1072 1072>
VStem: 88 265<440.5 526> 822 250<0 158 158 158 488 895 895 895 1121 1580 0 1580>
LayerCount: 2
Fore
SplineSet
822 0 m 1x5a
 822 158 l 1
 783 116 730 70 688 43 c 0
 610 -4 532 -29 465 -29 c 0
 366 -29 279 13 201 96 c 0
 125 179 88 301 88 464 c 0
 88 588 114 705 162 803 c 0
 208 899 279 985 357 1042 c 0
 440 1101 546 1131 666 1131 c 0xee
 700 1131 753 1129 818 1122 c 1
 818 1122 819 1121 822 1121 c 2
 822 1580 l 1
 1072 1580 l 1
 1072 0 l 1
 822 0 l 1x5a
822 488 m 1
 822 895 l 1
 774 905 729 910 689 910 c 0
 598 910 513 866 449 799 c 1
 449 800 l 1
 388 725 353 618 353 488 c 0
 353 393 371 322 403 276 c 0
 434 235 469 213 505 213 c 0
 551 213 602 237 660 286 c 0
 722 337 775 405 822 488 c 1
EndSplineSet
EndChar

StartChar: e
Encoding: 101 101 72
Width: 1229
Flags: MW
HStem: -30 221<632 702.5> 492 206<386 819 819 839 386 1084 368 819> 926 220<584.5 657>
VStem: 104 980<504 568 492 606>
LayerCount: 2
Fore
SplineSet
1069 331 m 1
 1069 82 l 1
 911 7 767 -30 638 -30 c 0
 435 -30 271 74 174 261 c 0
 128 352 104 452 104 556 c 0
 104 656 127 753 171 847 c 0
 216 940 281 1015 362 1067 c 0
 443 1120 533 1146 636 1146 c 0
 770 1146 879 1096 961 1000 c 0
 1040 905 1084 756 1084 568 c 2
 1084 492 l 1
 368 492 l 1
 372 441 386 393 407 349 c 0
 435 297 470 257 512 231 c 1
 511 231 l 1
 555 205 604 191 660 191 c 0
 763 191 901 238 1069 331 c 1
819 698 m 1
 819 684 l 1
 819 679 l 1
 839 698 l 1
 819 698 l 1
386 698 m 1
 819 698 l 1
 818 766 799 823 765 863 c 0
 732 905 686 926 628 926 c 0
 516 926 428 851 386 698 c 1
EndSplineSet
EndChar

StartChar: f
Encoding: 102 102 73
Width: 1229
Flags: MW
HStem: 0 21G<371 620 371 371> 810 220<140 371 140 371 620 1034> 1388 221<817 896> 1558 20G<1142 1142>
VStem: 371 249<0 810 1030 1041 1041 1059>
LayerCount: 2
Fore
SplineSet
620 0 m 1xd8
 371 0 l 1
 371 810 l 1
 140 810 l 1
 140 1030 l 1
 371 1030 l 1
 371 1041 l 2
 371 1184 389 1289 422 1361 c 0
 456 1436 508 1495 578 1540 c 0
 649 1586 742 1609 857 1609 c 0xe8
 945 1609 1040 1599 1142 1578 c 1xd8
 1142 1327 l 1
 1021 1367 928 1388 864 1388 c 0xe8
 770 1388 693 1351 651 1276 c 1
 652 1277 l 1
 632 1236 620 1161 620 1059 c 2
 620 1030 l 1
 1034 1030 l 1
 1034 810 l 1
 620 810 l 1
 620 0 l 1xd8
EndSplineSet
EndChar

StartChar: g
Encoding: 103 103 74
Width: 1229
Flags: MW
HStem: -433 220<489.5 567 489.5 578.5> -29 21G<415.5 498.5> 910 221<643.5 683 606 709> 1097 20G<861 1072 1072 1072> 1102 20G<819 819>
VStem: 88 265<440.5 526> 822 250<125 343 158 343 488 895 895 895>
LayerCount: 2
Fore
SplineSet
822 125 m 2xca
 822 158 l 1
 783 116 730 70 688 43 c 0
 610 -4 532 -29 465 -29 c 0
 366 -29 279 13 201 96 c 0
 125 179 88 301 88 464 c 0
 88 588 114 705 162 803 c 0
 208 899 279 985 357 1042 c 0
 440 1101 546 1131 666 1131 c 0xe6
 700 1131 754 1129 819 1122 c 2xca
 841 1119 l 1
 840 1119 l 2
 848 1118 856 1117 861 1117 c 2
 1072 1117 l 1xd2
 1072 343 l 2
 1072 174 1069 62 1064 18 c 0
 1061 -18 1052 -63 1040 -106 c 0
 1012 -204 948 -291 853 -348 c 0
 758 -405 644 -433 513 -433 c 0
 380 -433 239 -397 92 -323 c 1
 92 -52 l 1
 175 -107 256 -151 324 -176 c 0
 393 -199 459 -213 520 -213 c 0
 614 -213 703 -182 756 -128 c 0
 781 -101 799 -70 807 -34 c 0
 816 6 822 58 822 125 c 2xca
822 488 m 1
 822 895 l 1
 774 905 729 910 689 910 c 0
 598 910 513 866 449 799 c 1
 449 800 l 1
 388 725 353 618 353 488 c 0
 353 393 371 322 403 276 c 0
 434 235 469 213 505 213 c 0
 551 213 602 237 660 286 c 0
 722 337 775 405 822 488 c 1
EndSplineSet
EndChar

StartChar: h
Encoding: 104 104 75
Width: 1229
Flags: MW
HStem: 0 21G<127 376 127 127 821 821 821 1071> 910 236<689.5 718.5> 1126 20G<689.5 762> 1560 20G<127 376 376 376>
VStem: 127 249<0 634 967 1580> 821 250<0 620 0 641 0 688.5>
LayerCount: 2
Fore
SplineSet
376 0 m 1xbc
 127 0 l 1
 127 1580 l 1
 376 1580 l 1
 376 967 l 1
 414 1011 453 1044 498 1073 c 0
 573 1122 650 1146 729 1146 c 0
 795 1146 857 1130 910 1095 c 1
 909 1095 l 1
 965 1061 1005 1019 1027 969 c 0
 1045 932 1057 891 1063 853 c 0
 1069 816 1071 733 1071 620 c 2
 1071 0 l 1
 821 0 l 1
 821 641 l 2
 821 736 817 798 809 827 c 0
 801 851 787 873 768 887 c 0
 749 903 729 910 708 910 c 0
 656 910 598 885 536 833 c 0xdc
 473 781 421 714 376 634 c 1
 376 0 l 1xbc
EndSplineSet
EndChar

StartChar: i
Encoding: 105 105 76
Width: 1229
Flags: MW
HStem: 0 220<666 957 666 957> 897 220<128 417 128 666>
VStem: 417 249<220 897 897 897>
LayerCount: 2
Fore
SplineSet
957 0 m 1
 417 0 l 1
 417 897 l 1
 128 897 l 1
 128 1117 l 1
 666 1117 l 1
 666 220 l 1
 957 220 l 1
 957 0 l 1
388 1455 m 0
 388 1506 409 1546 444 1573 c 0
 476 1597 511 1609 541 1609 c 0
 574 1609 609 1597 641 1573 c 0
 676 1546 696 1506 696 1455 c 0
 696 1404 676 1365 641 1338 c 0
 608 1313 573 1301 541 1301 c 0
 509 1301 476 1313 444 1338 c 0
 409 1365 388 1404 388 1455 c 0
EndSplineSet
EndChar

StartChar: j
Encoding: 106 106 77
Width: 1229
Flags: MW
HStem: -434 221<394.5 472.5> 897 220<220 662 220 911>
VStem: 662 249<131 164 164 897 897 897>
LayerCount: 2
Fore
SplineSet
141 -403 m 1
 141 -156 l 1
 268 -195 364 -213 425 -213 c 0
 525 -213 595 -182 631 -103 c 0
 652 -62 662 18 662 131 c 2
 662 897 l 1
 220 897 l 1
 220 1117 l 1
 911 1117 l 1
 911 164 l 2
 911 -18 889 -149 844 -222 c 0
 797 -298 741 -353 678 -386 c 0
 614 -417 527 -434 418 -434 c 0
 338 -434 245 -424 141 -403 c 1
633 1455 m 0
 633 1507 652 1546 687 1573 c 0
 720 1598 753 1609 787 1609 c 0
 819 1609 851 1597 885 1573 c 0
 921 1546 940 1506 940 1455 c 0
 940 1404 921 1365 885 1338 c 0
 852 1313 820 1301 787 1301 c 0
 756 1301 719 1315 687 1338 c 0
 652 1365 633 1404 633 1455 c 0
EndSplineSet
EndChar

StartChar: k
Encoding: 107 107 78
Width: 1229
Flags: MW
HStem: 0 21G<177 426 177 177 877 877 877 1221> 1097 20G<873 1213 1213 1213> 1560 20G<177 426 426 426>
VStem: 177 249<0 499 685 1580>
LayerCount: 2
Fore
SplineSet
426 0 m 1
 177 0 l 1
 177 1580 l 1
 426 1580 l 1
 426 685 l 1
 471 728 520 776 564 819 c 2
 873 1117 l 1
 1213 1117 l 1
 674 598 l 1
 1221 0 l 1
 877 0 l 1
 426 499 l 1
 426 0 l 1
EndSplineSet
EndChar

StartChar: l
Encoding: 108 108 79
Width: 1229
Flags: MW
HStem: 0 220<654 980 654 980> 1359 221<93 405 93 654>
VStem: 405 249<220 1359 1359 1359>
LayerCount: 2
Fore
SplineSet
980 0 m 1
 405 0 l 1
 405 1359 l 1
 93 1359 l 1
 93 1580 l 1
 654 1580 l 1
 654 220 l 1
 980 220 l 1
 980 0 l 1
EndSplineSet
EndChar

StartChar: m
Encoding: 109 109 80
Width: 1229
Flags: MW
HStem: 0 21G<49 277 49 49 483 483 483 704 909 909 909 1137> 1097 20G<49 277 277 277> 1126 20G<472.5 546.5 912.5 965>
VStem: 49 228<0 631 991 1117> 483 221<0 609 0 748 0 788> 909 228<0 749 749 776.5>
LayerCount: 2
Fore
SplineSet
277 0 m 1
 49 0 l 1
 49 1117 l 1
 277 1117 l 1xfc
 277 991 l 1
 300 1028 324 1058 345 1078 c 0
 395 1123 447 1146 498 1146 c 0
 595 1146 668 1085 693 975 c 1
 729 1031 769 1074 807 1103 c 0
 843 1130 888 1146 937 1146 c 0
 993 1146 1041 1123 1080 1075 c 0
 1116 1030 1137 944 1137 824 c 2
 1137 0 l 1
 909 0 l 1
 909 749 l 2
 909 804 907 841 903 863 c 0
 902 875 898 885 893 891 c 0
 890 893 885 897 883 897 c 0
 864 897 837 874 809 837 c 0
 775 791 738 712 704 609 c 1
 704 0 l 1
 483 0 l 1
 483 748 l 2
 483 828 477 873 468 881 c 0
 457 892 450 897 445 897 c 0
 427 897 401 872 373 831 c 1
 374 831 l 1
 342 779 308 711 277 631 c 1
 277 0 l 1
EndSplineSet
EndChar

StartChar: n
Encoding: 110 110 81
Width: 1229
Flags: MW
HStem: 0 21G<127 376 127 127 821 821 821 1071> 910 236<689.5 718.5> 1097 20G<127 376 376 376> 1126 20G<689.5 764>
VStem: 127 249<0 634 967 1117> 821 250<0 620 0 641 0 688.5>
LayerCount: 2
Fore
SplineSet
376 0 m 1x9c
 127 0 l 1
 127 1117 l 1
 376 1117 l 1xbc
 376 967 l 1
 414 1011 453 1044 498 1073 c 0
 573 1122 650 1146 729 1146 c 0
 799 1146 862 1128 918 1091 c 0
 975 1053 1017 1003 1039 944 c 0
 1060 887 1071 778 1071 620 c 2
 1071 0 l 1
 821 0 l 1
 821 641 l 2
 821 736 817 798 809 827 c 0
 801 851 787 873 768 887 c 0
 749 903 729 910 708 910 c 0
 656 910 598 885 536 833 c 0xcc
 473 781 421 714 376 634 c 1
 376 0 l 1x9c
EndSplineSet
EndChar

StartChar: o
Encoding: 111 111 82
Width: 1229
Flags: MW
HStem: -29 220<554 634 554 674> 926 220<554 634>
VStem: 64 264<500.5 617 500.5 643> 859 264<500.5 617>
LayerCount: 2
Fore
SplineSet
594 -29 m 0
 433 -29 305 28 207 140 c 0
 113 252 64 391 64 559 c 0
 64 727 113 867 207 977 c 0
 305 1090 434 1146 594 1146 c 0
 754 1146 882 1089 980 977 c 0
 1074 868 1123 727 1123 559 c 0
 1123 391 1074 251 980 140 c 0
 882 28 754 -29 594 -29 c 0
594 191 m 0
 674 191 737 222 785 285 c 0
 834 350 859 442 859 559 c 0
 859 675 834 767 785 832 c 0
 737 895 674 926 594 926 c 0
 514 926 450 895 402 832 c 0
 353 767 328 675 328 559 c 0
 328 442 353 350 402 285 c 0
 450 222 514 191 594 191 c 0
EndSplineSet
EndChar

StartChar: p
Encoding: 112 112 83
Width: 1229
Flags: MW
HStem: -14 221<502.5 542 479.5 581> -4 21G<364 365.5> 1097 20G<115 364 364 364> 1126 20G<687 770.5>
VStem: 115 249<-405 -4 -405 222 222 629 962 1117> 834 265<591 676.5>
LayerCount: 2
Fore
SplineSet
364 1117 m 1x78
 364 962 l 1
 405 1006 453 1047 498 1074 c 0
 576 1121 653 1146 721 1146 c 0
 820 1146 907 1104 985 1021 c 0
 1060 940 1099 818 1099 653 c 0
 1099 529 1073 412 1024 313 c 0
 977 216 909 131 828 74 c 0
 745 14 643 -14 519 -14 c 0x9c
 486 -14 433 -12 367 -5 c 1
 367 -5 367 -4 364 -4 c 2
 364 -405 l 1
 115 -405 l 1
 115 1117 l 1
 364 1117 l 1x78
364 629 m 1
 364 222 l 1
 412 212 460 207 499 207 c 0
 585 207 674 256 736 316 c 1
 797 391 834 502 834 629 c 0
 834 724 816 796 783 841 c 0
 751 882 716 904 680 904 c 0
 638 904 577 873 526 831 c 0
 468 780 411 712 364 629 c 1
EndSplineSet
EndChar

StartChar: q
Encoding: 113 113 84
Width: 1229
Flags: MW
HStem: -29 21G<415.5 498.5> 910 221<643.5 683 606 709> 1097 20G<861 1072 1072 1072> 1102 20G<819 819>
VStem: 88 265<440.5 526> 822 250<-405 158 158 158 488 895 895 895>
LayerCount: 2
Fore
SplineSet
822 -405 m 1x94
 822 158 l 1
 783 116 730 70 688 43 c 0
 610 -4 532 -29 465 -29 c 0
 366 -29 279 13 201 96 c 0
 125 179 88 301 88 464 c 0
 88 588 114 705 162 803 c 0
 208 899 279 985 357 1042 c 0
 440 1101 546 1131 666 1131 c 0xcc
 700 1131 754 1129 819 1122 c 2x94
 841 1119 l 1
 840 1119 l 2
 848 1118 856 1117 861 1117 c 2
 1072 1117 l 1xa4
 1072 -405 l 1
 822 -405 l 1x94
822 488 m 1
 822 895 l 1
 774 905 729 910 689 910 c 0
 598 910 513 866 449 799 c 1
 449 800 l 1
 388 725 353 618 353 488 c 0
 353 393 371 322 403 276 c 0
 434 235 469 213 505 213 c 0
 551 213 602 237 660 286 c 0
 722 337 775 405 822 488 c 1
EndSplineSet
EndChar

StartChar: r
Encoding: 114 114 85
Width: 1229
Flags: MW
HStem: 0 21G<218 467 218 218> 910 236<776.5 804> 1097 20G<218 467 467 467> 1126 20G<776.5 882.5>
VStem: 218 249<0 633 965 1117> 832 242<665 908 908 908>
LayerCount: 2
Fore
SplineSet
467 0 m 1x9c
 218 0 l 1
 218 1117 l 1
 467 1117 l 1xbc
 467 965 l 1
 570 1077 705 1146 848 1146 c 0
 917 1146 991 1132 1074 1107 c 1
 1074 665 l 1
 832 665 l 1
 832 908 l 1
 819 910 807 910 801 910 c 0xcc
 686 910 576 817 467 633 c 1
 467 0 l 1x9c
EndSplineSet
EndChar

StartChar: s
Encoding: 115 115 86
Width: 1229
Flags: MW
HStem: -29 220<569.5 634.5 569.5 668.5> 926 220<587.5 668>
VStem: 140 922<267 348 348 348>
LayerCount: 2
Fore
SplineSet
140 67 m 1
 140 348 l 1
 247 276 336 234 407 216 c 1
 406 217 l 1
 481 201 543 191 596 191 c 0
 673 191 731 204 763 226 c 0
 790 247 805 274 805 302 c 0
 805 321 799 336 788 349 c 1
 788 348 l 1
 773 363 732 385 667 411 c 1
 668 411 l 1
 609 435 l 1
 488 483 l 2
 368 531 264 589 228 634 c 0
 191 682 169 746 169 814 c 0
 169 910 205 991 281 1053 c 0
 354 1114 470 1146 627 1146 c 0
 740 1146 858 1127 982 1086 c 1
 982 847 l 1
 835 900 715 926 621 926 c 0
 554 926 504 914 468 892 c 0
 440 875 425 853 425 828 c 0
 425 804 437 786 461 771 c 0
 493 752 551 725 627 698 c 2
 709 668 l 1
 708 668 l 1
 744 655 l 2
 856 614 936 568 985 517 c 0
 1037 463 1062 397 1062 319 c 0
 1062 215 1023 133 944 68 c 0
 868 4 749 -29 588 -29 c 0
 449 -29 300 3 140 67 c 1
EndSplineSet
EndChar

StartChar: t
Encoding: 116 116 87
Width: 1229
Flags: MW
HStem: -29 220<751 771.5> 810 220<72 332 72 332 581 1044>
VStem: 332 249<429 432 432 810 1030 1450>
LayerCount: 2
Fore
SplineSet
1073 297 m 1
 1073 55 l 1
 972 14 903 -13 865 -18 c 0
 829 -25 791 -29 752 -29 c 0
 674 -29 603 -13 537 16 c 0
 469 48 417 96 383 156 c 0
 348 216 332 308 332 429 c 2
 332 810 l 1
 72 810 l 1
 72 1030 l 1
 332 1030 l 1
 332 1450 l 1
 581 1450 l 1
 581 1030 l 1
 1044 1030 l 1
 1044 810 l 1
 581 810 l 1
 581 432 l 2
 581 355 590 301 606 271 c 1
 605 272 l 1
 620 247 643 226 668 212 c 1
 668 212 l 1
 696 200 732 191 770 191 c 0
 848 191 949 227 1073 297 c 1
EndSplineSet
EndChar

StartChar: u
Encoding: 117 117 88
Width: 1229
Flags: MW
HStem: -29 236<468 504 468 517> 0 21G<811 1060 811 811> 1097 20G<116 365 365 365 811 1060 1060 1060>
VStem: 116 249<497 1117> 811 249<0 152 152 152 483 1117 0 1117>
LayerCount: 2
Fore
SplineSet
811 1117 m 1x78
 1060 1117 l 1
 1060 0 l 1
 811 0 l 1x78
 811 152 l 1
 705 33 578 -29 456 -29 c 0
 388 -29 325 -12 268 25 c 0
 211 64 170 112 147 173 c 0
 126 230 116 338 116 497 c 2
 116 1117 l 1
 365 1117 l 1
 365 476 l 2
 365 380 369 318 377 289 c 0
 385 267 400 244 418 229 c 0
 437 214 457 207 479 207 c 0
 529 207 586 234 650 284 c 1
 649 283 l 1xb8
 712 335 766 403 811 483 c 1
 811 1117 l 1x78
EndSplineSet
EndChar

StartChar: v
Encoding: 118 118 89
Width: 1229
Flags: MW
HStem: 0 21G<479 706 479 479> 1097 20G<-5 266 266 266 938 1193 1193 1193>
VStem: -5 1198<1117 1117>
LayerCount: 2
Fore
SplineSet
706 0 m 1
 479 0 l 1
 -5 1117 l 1
 266 1117 l 1
 598 349 l 1
 709 601 827 865 938 1117 c 1
 1193 1117 l 1
 706 0 l 1
EndSplineSet
EndChar

StartChar: w
Encoding: 119 119 90
Width: 1229
Flags: MW
HStem: 0 21G<176 406 176 176 788 788 788 1011> 1097 20G<-6 232 232 232 488 701 701 701 981 1192 1192 1192>
VStem: -6 1198<1117 1117>
LayerCount: 2
Fore
SplineSet
406 0 m 1
 176 0 l 1
 -6 1117 l 1
 232 1117 l 1
 328 509 l 1
 488 1117 l 1
 701 1117 l 1
 883 500 l 1
 981 1117 l 1
 1192 1117 l 1
 1011 0 l 1
 788 0 l 1
 583 684 l 1
 406 0 l 1
EndSplineSet
EndChar

StartChar: x
Encoding: 120 120 91
Width: 1229
Flags: MW
HStem: 0 21G<-3 292 -3 -3 879 879 879 1197> 1097 20G<22 341 341 341 838 1129 1129 1129>
VStem: -3 1200<0 0>
LayerCount: 2
Fore
SplineSet
582 390 m 1
 292 0 l 1
 -3 0 l 1
 434 583 l 1
 366 673 289 771 215 867 c 2
 22 1117 l 1
 341 1117 l 1
 592 793 l 1
 838 1117 l 1
 1129 1117 l 1
 739 600 l 1
 885 409 1051 190 1197 0 c 1
 879 0 l 1
 582 390 l 1
EndSplineSet
EndChar

StartChar: y
Encoding: 121 121 92
Width: 1229
Flags: MW
HStem: -434 220<167.5 237.5 167.5 257> 1097 20G<7 283 283 283 935 1193 1193 1193>
VStem: 7 1186<1117 1117>
LayerCount: 2
Fore
SplineSet
496 53 m 2
 507 78 l 1
 7 1117 l 1
 283 1117 l 1
 638 392 l 1
 687 513 738 636 787 755 c 0
 833 870 889 1003 935 1117 c 1
 1193 1117 l 1
 767 97 l 2
 687 -95 590 -252 514 -324 c 1
 431 -395 322 -434 192 -434 c 0
 136 -434 76 -428 12 -413 c 1
 12 -179 l 1
 89 -203 147 -214 188 -214 c 0
 287 -214 360 -181 424 -83 c 0
 459 -30 482 15 496 53 c 2
EndSplineSet
EndChar

StartChar: z
Encoding: 122 122 93
Width: 1229
Flags: MW
HStem: 0 236<453 1071 453 1071> 897 220<121 700 121 1050>
VStem: 107 964<0 210 210 210>
LayerCount: 2
Fore
SplineSet
1071 0 m 1
 107 0 l 1
 107 210 l 1
 700 897 l 1
 121 897 l 1
 121 1117 l 1
 1050 1117 l 1
 1050 921 l 1
 453 236 l 1
 1071 236 l 1
 1071 0 l 1
EndSplineSet
EndChar

StartChar: braceleft
Encoding: 123 123 94
Width: 1229
Flags: MW
HStem: -354 224<825 1103 917 1103 917 1103> 531 225<178 302 178 302> 1416 225<915 917 917 1103>
VStem: 178 925<-354 756 -354 756> 466 259<-43 -20.5 1307.5 1327.5> 532 254<347 373.5 331.5 380 906.5 942>
LayerCount: 2
Fore
SplineSet
694 707 m 1xe4
 693 707 l 1
 672 684 650 665 613 642 c 1
 645 621 672 599 693 578 c 0
 723 544 746 509 762 475 c 0
 776 439 786 395 786 352 c 0
 786 311 780 260 768 203 c 2
 744 95 l 2xe4
 732 38 725 -7 725 -29 c 0
 725 -57 735 -79 757 -98 c 0
 780 -120 834 -130 917 -130 c 2
 1103 -130 l 1
 1103 -354 l 1
 915 -354 l 2
 735 -354 611 -319 551 -256 c 1
 500 -196 466 -118 466 -42 c 0
 466 1 471 43 480 86 c 2
 499 162 l 1
 498 161 l 1
 506 206 l 2
 509 219 512 231 514 244 c 2
 525 294 l 2xe8
 530 318 532 338 532 356 c 0
 532 404 516 444 482 480 c 0
 450 514 389 531 302 531 c 2
 178 531 l 1
 178 756 l 1
 302 756 l 2
 389 756 450 773 483 806 c 0
 516 839 532 880 532 933 c 0
 532 951 530 971 526 990 c 1
 527 989 l 1
 514 1040 l 1
 499 1124 l 1
 499 1124 l 1xe4
 494 1149 486 1175 480 1200 c 0
 471 1244 466 1286 466 1329 c 0
 466 1404 500 1482 551 1542 c 1
 611 1605 735 1641 915 1641 c 2
 1103 1641 l 1
 1103 1416 l 1
 917 1416 l 2
 835 1416 781 1406 758 1384 c 0
 736 1365 725 1341 725 1314 c 0
 725 1293 732 1248 744 1191 c 2xe8
 768 1083 l 2
 779 1027 786 975 786 934 c 0
 786 840 757 774 694 707 c 1xe4
EndSplineSet
EndChar

StartChar: bar
Encoding: 124 124 95
Width: 1229
Flags: MW
HStem: -45 21G<483 715 483 483> 1576 20G<483 715 715 715>
VStem: 483 232<-45 1596>
LayerCount: 2
Fore
SplineSet
715 -45 m 1
 483 -45 l 1
 483 1596 l 1
 715 1596 l 1
 715 -45 l 1
EndSplineSet
EndChar

StartChar: braceright
Encoding: 125 125 96
Width: 1229
Flags: MW
HStem: -354 224<96 281 281 283 96 281> 531 225<852.5 1020 897 1020> 1416 225<96 281 96 283>
VStem: 96 924<-354 756 -130 756 531 1641 531 1641> 413 253<344.5 379.5 344.5 398.5 912 939> 474 259<-41.5 -23.5 -82 -17.5 1309.5 1328>
LayerCount: 2
Fore
SplineSet
503 577 m 0xe8
 523 599 551 621 585 643 c 1
 501 697 461 755 437 810 c 0
 422 845 413 890 413 934 c 0
 413 975 418 1027 431 1083 c 2xe8
 455 1191 l 2
 466 1248 474 1293 474 1315 c 0
 474 1341 462 1364 440 1384 c 1
 441 1384 l 1
 418 1406 365 1416 281 1416 c 2
 96 1416 l 1
 96 1641 l 1
 283 1641 l 2
 468 1641 589 1608 648 1542 c 0
 703 1480 733 1408 733 1329 c 0
 733 1290 729 1247 716 1199 c 1
 717 1200 l 1
 701 1125 l 1
 692 1081 l 2
 690 1067 686 1055 684 1042 c 2xe4
 673 991 l 2
 668 968 666 948 666 930 c 0
 666 881 683 841 715 807 c 0
 747 773 807 756 897 756 c 2
 1020 756 l 1
 1020 531 l 1
 897 531 l 2
 808 531 749 514 715 480 c 0
 683 446 666 406 666 353 c 0
 666 336 668 317 672 296 c 1
 671 297 l 1
 683 245 l 1
 700 162 l 2xe8
 705 137 712 111 717 87 c 1
 716 88 l 1
 729 39 733 -4 733 -43 c 0
 733 -121 700 -197 647 -257 c 0
 587 -320 465 -354 283 -354 c 2
 96 -354 l 1
 96 -130 l 1
 281 -130 l 2
 365 -130 418 -120 441 -98 c 1
 440 -98 l 1
 462 -78 474 -55 474 -28 c 0
 474 -7 466 38 455 95 c 2xe4
 431 203 l 2
 419 259 413 311 413 352 c 0
 413 445 443 511 503 577 c 0xe8
EndSplineSet
EndChar

StartChar: asciitilde
Encoding: 126 126 97
Width: 1229
Flags: MW
HStem: 354 225<851 887 851 887> 354 431 561 224<307.5 344.5>
VStem: 30 191<383 439 383 485> 970 199<702 756 644 756>
LayerCount: 2
Fore
SplineSet
221 383 m 1x58
 30 383 l 1
 30 439 l 2
 30 531 56 612 111 679 c 1
 111 678 l 1
 168 749 244 785 340 785 c 0
 386 785 431 776 483 756 c 0
 506 748 549 725 602 696 c 2x38
 717 631 l 1
 717 632 l 1
 783 596 832 579 870 579 c 0
 904 579 927 590 942 612 c 0
 960 640 970 670 970 702 c 2
 970 756 l 1
 1169 756 l 1
 1169 702 l 2
 1169 586 1133 496 1064 439 c 0
 999 386 924 354 850 354 c 0
 781 354 690 387 581 446 c 1
 582 446 l 1x98
 565 455 547 466 531 476 c 1
 532 476 l 1
 484 504 l 2
 419 542 364 561 325 561 c 0
 290 561 256 543 237 500 c 0x38
 226 477 221 456 221 439 c 2
 221 383 l 1x58
EndSplineSet
EndChar

StartChar: Adieresis
Encoding: 196 196 98
Width: 1229
Flags: MW
HStem: 0 21G<-5 260 -5 -5 921 921 921 1205> 324 225<359 753 429 753 429 821> 1532 20G<472 724 724 724>
VStem: 236 24 921 41
LayerCount: 2
Fore
SplineSet
359 324 m 1
 260 0 l 1
 -5 0 l 1
 472 1552 l 1
 724 1552 l 1
 1205 0 l 1
 921 0 l 1
 821 324 l 1
 359 324 l 1
592 1064 m 1
 592 1061 l 1
 592 1064 l 1
587 1058 m 1
 429 549 l 1
 753 549 l 1
 698 722 648 885 593 1058 c 1
 593 1059 l 2
 592 1060 592 1060 592 1061 c 1
 593 1060 592 1061 590 1067 c 2
 590 1067 591 1065 592 1064 c 1
 591 1067 590 1067 590 1067 c 1
 590 1069 l 1
 587 1058 l 1
393 1658 m 0
 350 1658 314 1673 282 1703 c 0
 251 1734 236 1771 236 1814 c 0
 236 1859 251 1895 283 1925 c 0
 316 1956 352 1970 393 1970 c 0
 434 1970 469 1956 502 1925 c 0
 533 1895 549 1859 549 1814 c 0
 549 1770 533 1734 502 1704 c 0
 472 1673 436 1658 393 1658 c 0
806 1658 m 0
 763 1658 727 1673 695 1703 c 0
 664 1734 648 1770 648 1814 c 0
 648 1859 664 1895 695 1925 c 0
 728 1956 765 1970 806 1970 c 0
 847 1970 882 1956 915 1925 c 1
 915 1926 l 1
 947 1895 962 1859 962 1814 c 0
 962 1770 947 1734 915 1703 c 1
 915 1704 l 1
 884 1673 847 1658 806 1658 c 0
EndSplineSet
EndChar

StartChar: Aring
Encoding: 197 197 99
Width: 1229
Flags: MW
HStem: 0 21G<-5 260 -5 -5 921 1205 921 921> 324 225<429 753 429 821 359 753> 1711 165<591 611>
VStem: 382 166<1647.5 1667 1647.5 1689.5> 647 166<1647.5 1674.5>
LayerCount: 2
Fore
SplineSet
740 1499 m 1
 1205 0 l 1
 921 0 l 1
 821 324 l 1
 359 324 l 1
 318 189 l 2
 300 130 278 56 260 0 c 1
 -5 0 l 1
 456 1500 l 1
 406 1544 382 1596 382 1661 c 0
 382 1718 403 1768 445 1811 c 0
 488 1854 540 1876 597 1876 c 0
 658 1876 708 1855 750 1812 c 0
 792 1769 813 1719 813 1661 c 0
 813 1599 788 1543 740 1499 c 1
592 1064 m 1
 592 1061 l 1
 592 1064 l 1
587 1058 m 1
 429 549 l 1
 753 549 l 1
 698 722 648 885 593 1058 c 1
 593 1059 l 2
 592 1060 592 1060 592 1061 c 1
 593 1060 592 1061 590 1067 c 2
 590 1067 591 1065 592 1064 c 1
 591 1067 590 1067 590 1067 c 1
 590 1069 l 1
 587 1058 l 1
548 1661 m 0
 548 1634 570 1610 597 1610 c 0
 625 1610 647 1634 647 1661 c 0
 647 1688 625 1711 597 1711 c 0
 585 1711 571 1704 559 1690 c 0
 552 1684 548 1673 548 1661 c 0
EndSplineSet
EndChar

StartChar: Ccedilla
Encoding: 199 199 100
Width: 1229
Flags: MW
HStem: -413 159<624 713.5> -47 21G<751 751> -47 226<751 751> -19 21G<576 576> 1372 225<677 791.5>
VStem: 88 276<719 832 719 888.5> 88 1000<28 888.5>
LayerCount: 2
Fore
SplineSet
1088 1524 m 1x9a
 1088 1255 l 1
 954 1333 839 1372 744 1372 c 0
 610 1372 489 1275 420 1090 c 0
 383 992 364 888 364 776 c 0
 364 662 384 557 422 458 c 0
 459 363 507 292 563 246 c 1
 562 247 l 1
 619 203 679 179 744 179 c 0xac
 839 179 953 218 1088 295 c 1
 1088 28 l 1
 987 -8 914 -28 873 -36 c 0
 838 -42 796 -46 751 -47 c 1
 749 -51 l 1
 744 -60 l 1
 795 -75 829 -97 851 -125 c 0xca
 877 -159 890 -196 890 -236 c 0
 890 -282 871 -323 838 -358 c 0
 803 -395 749 -413 678 -413 c 0
 620 -413 558 -401 489 -375 c 1
 489 -198 l 1
 559 -236 608 -254 640 -254 c 0
 654 -254 666 -250 678 -242 c 2
 676 -244 l 2
 684 -238 688 -233 688 -231 c 0
 688 -212 622 -196 486 -181 c 1
 576 -19 l 1
 467 14 380 64 312 133 c 0
 233 212 178 300 142 402 c 0
 106 501 88 620 88 756 c 0x9c
 88 1021 152 1225 276 1374 c 0
 402 1523 561 1597 752 1597 c 0
 844 1597 956 1571 1088 1524 c 1x9a
EndSplineSet
EndChar

StartChar: Eacute
Encoding: 201 201 101
Width: 1229
Flags: MW
HStem: 0 240<439 1043 439 1043> 679 224<439 969 439 969> 1327 225<439 1028 439 439> 1658 386<277 949 277 949>
VStem: 170 269<240 240 240 679 903 1327>
LayerCount: 2
Fore
SplineSet
439 240 m 1
 1043 240 l 1
 1043 0 l 1
 170 0 l 1
 170 1552 l 1
 1028 1552 l 1
 1028 1327 l 1
 439 1327 l 1
 439 903 l 1
 969 903 l 1
 969 679 l 1
 439 679 l 1
 439 240 l 1
544 1658 m 1
 277 1658 l 1
 628 2044 l 1
 949 2044 l 1
 544 1658 l 1
EndSplineSet
EndChar

StartChar: Ntilde
Encoding: 209 209 102
Width: 1229
Flags: MW
HStem: 0 21G<96 350 96 96 864 1101 864 864> 1532 20G<96 331 331 331 848 1101 1101 1101> 1657 210<733.5 747.5 733.5 762> 1658 320<411 456 260 495>
VStem: 96 254<0 977 0 1552> 260 196<1658 1688.5 1658 1768> 848 253<580 1552 0 1552> 864 95
LayerCount: 2
Fore
SplineSet
864 0 m 1xd9
 350 977 l 1
 350 0 l 1
 96 0 l 1
 96 1552 l 1
 331 1552 l 1
 848 580 l 1
 848 1552 l 1
 1101 1552 l 1
 1101 0 l 1xda
 864 0 l 1xd9
456 1658 m 1xd6
 260 1658 l 1
 260 1878 351 1978 471 1978 c 0
 519 1978 565 1965 610 1934 c 1
 609 1934 l 1xd6
 649 1911 l 2
 696 1882 726 1867 741 1867 c 0
 754 1867 759 1904 759 1978 c 1
 959 1978 l 1
 953 1885 942 1817 927 1783 c 0
 913 1749 886 1718 853 1694 c 0
 820 1670 783 1657 741 1657 c 0
 693 1657 638 1676 586 1709 c 2
 544 1736 l 1
 521 1752 l 2xe9
 505 1763 490 1769 481 1769 c 0
 478 1769 472 1765 466 1759 c 0
 459 1752 456 1719 456 1658 c 1xd6
EndSplineSet
EndChar

StartChar: Odieresis
Encoding: 214 214 103
Width: 1229
Flags: MW
HStem: -45 225<560.5 636 560.5 690> 1372 224<560 636.5>
VStem: 44 269<677.5 877 677.5 898> 884 269<673.5 877>
LayerCount: 2
Fore
SplineSet
598 -45 m 0
 418 -45 278 31 182 183 c 0
 90 331 44 528 44 776 c 0
 44 1020 91 1221 182 1367 c 0
 277 1516 419 1596 598 1596 c 0
 781 1596 919 1520 1016 1367 c 0
 1107 1220 1153 1023 1153 776 c 0
 1153 528 1107 331 1016 183 c 0
 919 31 782 -45 598 -45 c 0
598 180 m 0
 674 180 744 232 797 319 c 1
 797 318 l 1
 853 418 884 571 884 776 c 0
 884 978 852 1134 797 1233 c 1
 744 1320 675 1372 598 1372 c 0
 522 1372 452 1320 400 1233 c 0
 345 1134 313 978 313 776 c 0
 313 579 348 418 400 318 c 1
 452 233 523 180 598 180 c 0
393 1658 m 0
 350 1658 314 1673 282 1703 c 0
 251 1734 236 1771 236 1814 c 0
 236 1859 251 1895 283 1925 c 0
 316 1956 352 1970 393 1970 c 0
 434 1970 469 1956 502 1925 c 0
 533 1895 549 1859 549 1814 c 0
 549 1770 533 1734 502 1704 c 0
 472 1673 436 1658 393 1658 c 0
806 1658 m 0
 763 1658 727 1673 695 1703 c 0
 664 1734 648 1770 648 1814 c 0
 648 1859 664 1895 695 1925 c 0
 728 1956 765 1970 806 1970 c 0
 847 1970 882 1956 915 1925 c 1
 915 1926 l 1
 947 1895 962 1859 962 1814 c 0
 962 1770 947 1734 915 1703 c 1
 915 1704 l 1
 884 1673 847 1658 806 1658 c 0
EndSplineSet
EndChar

StartChar: Udieresis
Encoding: 220 220 104
Width: 1229
Flags: MW
HStem: -45 224<579 644> 1532 20G<96 365 365 365 848 1101 1101 1101>
VStem: 96 269<569 1552> 848 253<620 1552>
LayerCount: 2
Fore
SplineSet
96 569 m 2
 96 1552 l 1
 365 1552 l 1
 365 545 l 2
 365 423 375 340 393 299 c 1
 393 300 l 1
 412 262 440 230 475 211 c 1
 474 212 l 1
 514 190 555 179 603 179 c 0
 698 179 782 230 818 317 c 1
 836 371 848 475 848 620 c 2
 848 1552 l 1
 1101 1552 l 1
 1101 551 l 2
 1101 407 1079 294 1036 211 c 0
 992 129 933 63 862 20 c 0
 790 -19 695 -45 593 -45 c 0
 393 -45 235 31 155 181 c 0
 117 256 96 385 96 569 c 2
393 1658 m 0
 350 1658 314 1673 282 1703 c 0
 251 1734 236 1771 236 1814 c 0
 236 1859 251 1895 283 1925 c 0
 316 1956 352 1970 393 1970 c 0
 434 1970 469 1956 502 1925 c 0
 533 1895 549 1859 549 1814 c 0
 549 1770 533 1734 502 1704 c 0
 472 1673 436 1658 393 1658 c 0
806 1658 m 0
 763 1658 727 1673 695 1703 c 0
 664 1734 648 1770 648 1814 c 0
 648 1859 664 1895 695 1925 c 0
 728 1956 765 1970 806 1970 c 0
 847 1970 882 1956 915 1925 c 1
 915 1926 l 1
 947 1895 962 1859 962 1814 c 0
 962 1770 947 1734 915 1703 c 1
 915 1704 l 1
 884 1673 847 1658 806 1658 c 0
EndSplineSet
EndChar

StartChar: aacute
Encoding: 225 225 105
Width: 1229
Flags: MW
HStem: -29 21G<405.5 488> 0 21G<868 868 868 1116> 910 221<632.5 672.5 595 698> 1097 20G<849 1062 1062 1062> 1102 20G<808 812> 1224 386<389 1061 389 1061>
VStem: 78 264<439.5 527> 812 250<488 895 895 895>
LayerCount: 2
Fore
SplineSet
868 0 m 1x4d
 849 14 l 1x67
 837 63 828 114 821 170 c 1
 778 119 728 74 678 43 c 0
 598 -4 521 -29 455 -29 c 0
 356 -29 268 13 191 96 c 0
 115 178 78 300 78 464 c 0
 78 590 103 704 150 803 c 0
 198 902 267 984 346 1042 c 0
 429 1101 535 1131 655 1131 c 0xe7
 690 1131 744 1129 808 1122 c 0x4d
 816 1122 821 1121 828 1120 c 2
 849 1117 l 1
 1062 1117 l 1x55
 1062 344 l 2
 1062 224 1080 110 1116 0 c 1
 868 0 l 1x4d
812 488 m 1
 812 895 l 1
 764 905 718 910 678 910 c 0
 587 910 501 866 439 799 c 1
 439 800 l 1
 377 725 342 617 342 488 c 0
 342 391 360 321 392 275 c 1
 392 276 l 1
 424 234 458 213 495 213 c 0
 539 213 593 237 650 286 c 0
 708 337 764 405 812 488 c 1
656 1224 m 1
 389 1224 l 1
 740 1610 l 1
 1061 1610 l 1
 656 1224 l 1
EndSplineSet
EndChar

StartChar: agrave
Encoding: 224 224 106
Width: 1229
Flags: MW
HStem: -29 21G<405.5 488> 0 21G<868 868 868 1116> 910 221<632.5 672.5 595 698> 1097 20G<849 1062 1062 1062> 1102 20G<808 812>
VStem: 78 264<439.5 527> 812 250<488 895 895 895>
LayerCount: 2
Fore
SplineSet
868 0 m 1x4a
 849 14 l 1x66
 837 63 828 114 821 170 c 1
 778 119 728 74 678 43 c 0
 598 -4 521 -29 455 -29 c 0
 356 -29 268 13 191 96 c 0
 115 178 78 300 78 464 c 0
 78 590 103 704 150 803 c 0
 198 902 267 984 346 1042 c 0
 429 1101 535 1131 655 1131 c 0xe6
 690 1131 744 1129 808 1122 c 0x4a
 816 1122 821 1121 828 1120 c 2
 849 1117 l 1
 1062 1117 l 1x52
 1062 344 l 2
 1062 224 1080 110 1116 0 c 1
 868 0 l 1x4a
812 488 m 1
 812 895 l 1
 764 905 718 910 678 910 c 0
 587 910 501 866 439 799 c 1
 439 800 l 1
 377 725 342 617 342 488 c 0
 342 391 360 321 392 275 c 1
 392 276 l 1
 424 234 458 213 495 213 c 0
 539 213 593 237 650 286 c 0
 708 337 764 405 812 488 c 1
607 1610 m 1
 957 1224 l 1
 692 1224 l 1
 286 1610 l 1
 607 1610 l 1
EndSplineSet
EndChar

StartChar: acircumflex
Encoding: 226 226 107
Width: 1229
Flags: MW
HStem: -29 21G<405.5 488> 0 21G<868 868 868 1116> 910 221<632.5 672.5 595 698> 1097 20G<849 1062 1062 1062> 1102 20G<808 812> 1224 386<334 766 334 766 610 1044 610 803>
VStem: 78 264<439.5 527> 812 250<488 895 895 895>
LayerCount: 2
Fore
SplineSet
868 0 m 1x49
 849 14 l 1x67
 837 63 828 114 821 170 c 1
 778 119 728 74 678 43 c 0
 598 -4 521 -29 455 -29 c 0
 356 -29 268 13 191 96 c 0
 115 178 78 300 78 464 c 0
 78 590 103 704 150 803 c 0
 198 902 267 984 346 1042 c 0
 429 1101 535 1131 655 1131 c 0xe3
 690 1131 744 1129 808 1122 c 0x49
 816 1122 821 1121 828 1120 c 2
 849 1117 l 1
 1062 1117 l 1x51
 1062 344 l 2
 1062 224 1080 110 1116 0 c 1
 868 0 l 1x49
812 488 m 1
 812 895 l 1
 764 905 718 910 678 910 c 0
 587 910 501 866 439 799 c 1
 439 800 l 1
 377 725 342 617 342 488 c 0
 342 391 360 321 392 275 c 1
 392 276 l 1
 424 234 458 213 495 213 c 0
 539 213 593 237 650 286 c 0
 708 337 764 405 812 488 c 1
803 1224 m 1
 688 1362 l 1
 615 1274 l 1
 573 1224 l 1
 334 1224 l 1
 610 1610 l 1
 766 1610 l 1
 1044 1224 l 1
 803 1224 l 1
EndSplineSet
EndChar

StartChar: adieresis
Encoding: 228 228 108
Width: 1229
Flags: MW
HStem: -29 21G<405.5 488> 0 21G<868 868 868 1116> 910 221<632.5 672.5 595 698> 1097 20G<849 1062 1062 1062> 1102 20G<808 812>
VStem: 78 264<439.5 527> 812 250<488 895 895 895>
LayerCount: 2
Fore
SplineSet
868 0 m 1x4a
 849 14 l 1x66
 837 63 828 114 821 170 c 1
 778 119 728 74 678 43 c 0
 598 -4 521 -29 455 -29 c 0
 356 -29 268 13 191 96 c 0
 115 178 78 300 78 464 c 0
 78 590 103 704 150 803 c 0
 198 902 267 984 346 1042 c 0
 429 1101 535 1131 655 1131 c 0xe6
 690 1131 744 1129 808 1122 c 0x4a
 816 1122 821 1121 828 1120 c 2
 849 1117 l 1
 1062 1117 l 1x52
 1062 344 l 2
 1062 224 1080 110 1116 0 c 1
 868 0 l 1x4a
812 488 m 1
 812 895 l 1
 764 905 718 910 678 910 c 0
 587 910 501 866 439 799 c 1
 439 800 l 1
 377 725 342 617 342 488 c 0
 342 391 360 321 392 275 c 1
 392 276 l 1
 424 234 458 213 495 213 c 0
 539 213 593 237 650 286 c 0
 708 337 764 405 812 488 c 1
451 1224 m 0
 408 1224 372 1239 340 1269 c 0
 309 1300 294 1337 294 1380 c 0
 294 1425 309 1461 341 1491 c 0
 374 1522 410 1536 451 1536 c 0
 492 1536 527 1522 560 1491 c 0
 591 1461 607 1425 607 1380 c 0
 607 1336 591 1300 560 1270 c 0
 530 1239 494 1224 451 1224 c 0
864 1224 m 0
 821 1224 785 1239 753 1269 c 0
 722 1300 706 1336 706 1380 c 0
 706 1425 722 1461 753 1491 c 0
 786 1522 823 1536 864 1536 c 0
 905 1536 940 1522 973 1491 c 1
 973 1492 l 1
 1005 1461 1020 1425 1020 1380 c 0
 1020 1336 1005 1300 973 1269 c 1
 973 1270 l 1
 942 1239 905 1224 864 1224 c 0
EndSplineSet
EndChar

StartChar: atilde
Encoding: 227 227 109
Width: 1229
Flags: MW
HStem: -29 21G<405.5 488> 0 21G<868 868 868 1116> 910 221<632.5 672.5 595 698> 1097 20G<849 1062 1062 1062> 1102 20G<808 812> 1223 210<767.5 781.5 767.5 796> 1224 320<445 490 294 529>
VStem: 78 264<439.5 527> 294 196<1224 1254.5 1224 1334> 793 200<1507 1544> 812 250<488 895 895 895>
LayerCount: 2
Fore
SplineSet
868 0 m 1x4a20
 849 14 l 1x6320
 837 63 828 114 821 170 c 1
 778 119 728 74 678 43 c 0
 598 -4 521 -29 455 -29 c 0
 356 -29 268 13 191 96 c 0
 115 178 78 300 78 464 c 0
 78 590 103 704 150 803 c 0
 198 902 267 984 346 1042 c 0
 429 1101 535 1131 655 1131 c 0xe320
 690 1131 744 1129 808 1122 c 0x4a20
 816 1122 821 1121 828 1120 c 2
 849 1117 l 1
 1062 1117 l 1x5220
 1062 344 l 2
 1062 224 1080 110 1116 0 c 1
 868 0 l 1x4a20
812 488 m 1
 812 895 l 1
 764 905 718 910 678 910 c 0
 587 910 501 866 439 799 c 1
 439 800 l 1
 377 725 342 617 342 488 c 0
 342 391 360 321 392 275 c 1
 392 276 l 1
 424 234 458 213 495 213 c 0
 539 213 593 237 650 286 c 0
 708 337 764 405 812 488 c 1
490 1224 m 1x4aa0
 294 1224 l 1
 294 1444 385 1544 505 1544 c 0
 553 1544 599 1531 644 1500 c 1
 643 1500 l 1x4aa0
 683 1477 l 2
 730 1448 760 1433 775 1433 c 0
 788 1433 793 1470 793 1544 c 1
 993 1544 l 1
 987 1451 976 1383 961 1349 c 0
 947 1315 920 1284 887 1260 c 0
 854 1236 817 1223 775 1223 c 0
 727 1223 672 1242 620 1275 c 2
 578 1302 l 1
 555 1318 l 2x4c40
 539 1329 524 1335 515 1335 c 0
 512 1335 506 1331 500 1325 c 0
 493 1318 490 1285 490 1224 c 1x4aa0
EndSplineSet
EndChar

StartChar: aring
Encoding: 229 229 110
Width: 1229
Flags: MW
HStem: -29 21G<405.5 488> 0 21G<868 868 868 1116> 910 221<632.5 672.5 595 698> 1097 20G<849 1062 1062 1062> 1102 20G<808 812> 1224 165<627.5 655.5 627.5 671.5> 1490 164<627.5 655.5>
VStem: 78 264<439.5 527> 426 166<1425.5 1452.5 1425.5 1467.5> 691 166<1425.5 1452.5> 812 250<488 895 895 895>
LayerCount: 2
Fore
SplineSet
868 0 m 1x4e20
 849 14 l 1x6720
 837 63 828 114 821 170 c 1
 778 119 728 74 678 43 c 0
 598 -4 521 -29 455 -29 c 0
 356 -29 268 13 191 96 c 0
 115 178 78 300 78 464 c 0
 78 590 103 704 150 803 c 0
 198 902 267 984 346 1042 c 0
 429 1101 535 1131 655 1131 c 0xe720
 690 1131 744 1129 808 1122 c 0x4e20
 816 1122 821 1121 828 1120 c 2
 849 1117 l 1
 1062 1117 l 1x5620
 1062 344 l 2
 1062 224 1080 110 1116 0 c 1
 868 0 l 1x4e20
812 488 m 1
 812 895 l 1
 764 905 718 910 678 910 c 0
 587 910 501 866 439 799 c 1
 439 800 l 1
 377 725 342 617 342 488 c 0
 342 391 360 321 392 275 c 1
 392 276 l 1
 424 234 458 213 495 213 c 0
 539 213 593 237 650 286 c 0
 708 337 764 405 812 488 c 1
641 1389 m 0x4ec0
 670 1389 691 1412 691 1439 c 0
 691 1466 670 1490 641 1490 c 0
 614 1490 592 1466 592 1439 c 0
 592 1412 614 1389 641 1389 c 0x4ec0
641 1224 m 0
 583 1224 531 1246 489 1289 c 0
 447 1333 426 1383 426 1439 c 0
 426 1496 447 1547 489 1590 c 0
 532 1633 584 1654 641 1654 c 0
 702 1654 753 1633 794 1590 c 0
 836 1546 857 1496 857 1439 c 0
 857 1383 836 1333 794 1289 c 0
 753 1246 702 1224 641 1224 c 0
EndSplineSet
EndChar

StartChar: ccedilla
Encoding: 231 231 111
Width: 1229
Flags: MW
HStem: -405 156<615 703> -30 21G<749 749> -15 21G<570 570> 926 220<688.5 755.5 627.5 761.5>
VStem: 136 265<520.5 596.5 520.5 634> 136 943<42 634>
LayerCount: 2
Fore
SplineSet
749 -30 m 1xd4
 734 -59 l 1
 782 -73 818 -95 837 -122 c 0xd4
 863 -155 876 -192 876 -232 c 0
 876 -276 857 -317 825 -351 c 0
 790 -388 738 -405 668 -405 c 0
 611 -405 550 -393 482 -368 c 1
 482 -195 l 1
 550 -232 600 -249 630 -249 c 0
 644 -249 656 -245 666 -237 c 2
 665 -238 l 2
 673 -233 677 -228 677 -227 c 0
 677 -209 611 -192 481 -178 c 1
 570 -15 l 1
 484 6 413 39 352 86 c 0
 281 142 227 209 190 282 c 0
 155 357 136 446 136 547 c 0
 136 721 198 873 305 981 c 1
 417 1085 554 1146 701 1146 c 0
 810 1146 937 1122 1079 1074 c 1
 1079 822 l 1
 928 890 807 926 716 926 c 0
 661 926 607 911 556 881 c 0
 507 854 469 811 442 753 c 0
 413 693 401 628 401 565 c 0
 401 476 427 394 480 317 c 0xb8
 531 243 614 207 727 207 c 0
 760 207 798 209 833 214 c 0
 867 219 952 245 1079 288 c 1
 1079 42 l 1
 970 3 857 -21 749 -30 c 1xd4
EndSplineSet
EndChar

StartChar: eacute
Encoding: 233 233 112
Width: 1229
Flags: MW
HStem: -30 221<632 702.5> 492 206<386 819 819 839 386 1084 368 819> 926 220<584.5 657> 1224 386<354 1026 354 1026>
VStem: 104 980<504 568 492 606>
LayerCount: 2
Fore
SplineSet
1069 331 m 1
 1069 82 l 1
 911 7 767 -30 638 -30 c 0
 435 -30 271 74 174 261 c 0
 128 352 104 452 104 556 c 0
 104 656 127 753 171 847 c 0
 216 940 281 1015 362 1067 c 0
 443 1120 533 1146 636 1146 c 0
 770 1146 879 1096 961 1000 c 0
 1040 905 1084 756 1084 568 c 2
 1084 492 l 1
 368 492 l 1
 372 441 386 393 407 349 c 0
 435 297 470 257 512 231 c 1
 511 231 l 1
 555 205 604 191 660 191 c 0
 763 191 901 238 1069 331 c 1
819 698 m 1
 819 684 l 1
 819 679 l 1
 839 698 l 1
 819 698 l 1
386 698 m 1
 819 698 l 1
 818 766 799 823 765 863 c 0
 732 905 686 926 628 926 c 0
 516 926 428 851 386 698 c 1
621 1224 m 1
 354 1224 l 1
 705 1610 l 1
 1026 1610 l 1
 621 1224 l 1
EndSplineSet
EndChar

StartChar: egrave
Encoding: 232 232 113
Width: 1229
Flags: MW
HStem: -30 221<632 702.5> 492 206<386 819 819 839 386 1084 368 819> 926 220<584.5 657>
VStem: 104 980<504 568 492 606>
LayerCount: 2
Fore
SplineSet
1069 331 m 1
 1069 82 l 1
 911 7 767 -30 638 -30 c 0
 435 -30 271 74 174 261 c 0
 128 352 104 452 104 556 c 0
 104 656 127 753 171 847 c 0
 216 940 281 1015 362 1067 c 0
 443 1120 533 1146 636 1146 c 0
 770 1146 879 1096 961 1000 c 0
 1040 905 1084 756 1084 568 c 2
 1084 492 l 1
 368 492 l 1
 372 441 386 393 407 349 c 0
 435 297 470 257 512 231 c 1
 511 231 l 1
 555 205 604 191 660 191 c 0
 763 191 901 238 1069 331 c 1
819 698 m 1
 819 684 l 1
 819 679 l 1
 839 698 l 1
 819 698 l 1
386 698 m 1
 819 698 l 1
 818 766 799 823 765 863 c 0
 732 905 686 926 628 926 c 0
 516 926 428 851 386 698 c 1
619 1610 m 1
 969 1224 l 1
 704 1224 l 1
 298 1610 l 1
 619 1610 l 1
EndSplineSet
EndChar

StartChar: ecircumflex
Encoding: 234 234 114
Width: 1229
Flags: MW
HStem: -30 221<632 702.5> 492 206<386 819 819 839 386 1084 368 819> 926 220<584.5 657> 1224 386<284 716 284 716 560 994 560 753>
VStem: 104 980<504 568 492 606>
LayerCount: 2
Fore
SplineSet
1069 331 m 1
 1069 82 l 1
 911 7 767 -30 638 -30 c 0
 435 -30 271 74 174 261 c 0
 128 352 104 452 104 556 c 0
 104 656 127 753 171 847 c 0
 216 940 281 1015 362 1067 c 0
 443 1120 533 1146 636 1146 c 0
 770 1146 879 1096 961 1000 c 0
 1040 905 1084 756 1084 568 c 2
 1084 492 l 1
 368 492 l 1
 372 441 386 393 407 349 c 0
 435 297 470 257 512 231 c 1
 511 231 l 1
 555 205 604 191 660 191 c 0
 763 191 901 238 1069 331 c 1
819 698 m 1
 819 684 l 1
 819 679 l 1
 839 698 l 1
 819 698 l 1
386 698 m 1
 819 698 l 1
 818 766 799 823 765 863 c 0
 732 905 686 926 628 926 c 0
 516 926 428 851 386 698 c 1
753 1224 m 1
 638 1362 l 1
 565 1274 l 1
 523 1224 l 1
 284 1224 l 1
 560 1610 l 1
 716 1610 l 1
 994 1224 l 1
 753 1224 l 1
EndSplineSet
EndChar

StartChar: edieresis
Encoding: 235 235 115
Width: 1229
Flags: MW
HStem: -30 221<632 702.5> 492 206<386 819 819 839 386 1084 368 819> 926 220<584.5 657>
VStem: 104 980<504 568 492 606>
LayerCount: 2
Fore
SplineSet
1069 331 m 1
 1069 82 l 1
 911 7 767 -30 638 -30 c 0
 435 -30 271 74 174 261 c 0
 128 352 104 452 104 556 c 0
 104 656 127 753 171 847 c 0
 216 940 281 1015 362 1067 c 0
 443 1120 533 1146 636 1146 c 0
 770 1146 879 1096 961 1000 c 0
 1040 905 1084 756 1084 568 c 2
 1084 492 l 1
 368 492 l 1
 372 441 386 393 407 349 c 0
 435 297 470 257 512 231 c 1
 511 231 l 1
 555 205 604 191 660 191 c 0
 763 191 901 238 1069 331 c 1
819 698 m 1
 819 684 l 1
 819 679 l 1
 839 698 l 1
 819 698 l 1
386 698 m 1
 819 698 l 1
 818 766 799 823 765 863 c 0
 732 905 686 926 628 926 c 0
 516 926 428 851 386 698 c 1
447 1224 m 0
 404 1224 368 1239 336 1269 c 0
 305 1300 290 1337 290 1380 c 0
 290 1425 305 1461 337 1491 c 0
 370 1522 406 1536 447 1536 c 0
 488 1536 523 1522 556 1491 c 0
 587 1461 603 1425 603 1380 c 0
 603 1336 587 1300 556 1270 c 0
 526 1239 490 1224 447 1224 c 0
860 1224 m 0
 817 1224 781 1239 749 1269 c 0
 718 1300 702 1336 702 1380 c 0
 702 1425 718 1461 749 1491 c 0
 782 1522 819 1536 860 1536 c 0
 901 1536 936 1522 969 1491 c 1
 969 1492 l 1
 1001 1461 1016 1425 1016 1380 c 0
 1016 1336 1001 1300 969 1269 c 1
 969 1270 l 1
 938 1239 901 1224 860 1224 c 0
EndSplineSet
EndChar

StartChar: iacute
Encoding: 237 237 116
Width: 1229
Flags: MW
HStem: 0 220<665 956 665 956> 897 220<127 416 127 665> 1224 386<222 894 222 894>
VStem: 416 249<220 897 897 897>
LayerCount: 2
Fore
SplineSet
956 0 m 1
 416 0 l 1
 416 897 l 1
 127 897 l 1
 127 1117 l 1
 665 1117 l 1
 665 220 l 1
 956 220 l 1
 956 0 l 1
489 1224 m 1
 222 1224 l 1
 573 1610 l 1
 894 1610 l 1
 489 1224 l 1
EndSplineSet
EndChar

StartChar: igrave
Encoding: 236 236 117
Width: 1229
Flags: MW
HStem: 0 220<665 956 665 956> 897 220<127 416 127 665>
VStem: 416 249<220 897 897 897>
LayerCount: 2
Fore
SplineSet
956 0 m 1
 416 0 l 1
 416 897 l 1
 127 897 l 1
 127 1117 l 1
 665 1117 l 1
 665 220 l 1
 956 220 l 1
 956 0 l 1
533 1610 m 1
 883 1224 l 1
 618 1224 l 1
 212 1610 l 1
 533 1610 l 1
EndSplineSet
EndChar

StartChar: icircumflex
Encoding: 238 238 118
Width: 1229
Flags: MW
HStem: 0 220<665 956 665 956> 897 220<127 416 127 665> 1224 386<199 631 199 631 475 909 475 668>
VStem: 416 249<220 897 897 897>
LayerCount: 2
Fore
SplineSet
956 0 m 1
 416 0 l 1
 416 897 l 1
 127 897 l 1
 127 1117 l 1
 665 1117 l 1
 665 220 l 1
 956 220 l 1
 956 0 l 1
668 1224 m 1
 553 1362 l 1
 480 1274 l 1
 438 1224 l 1
 199 1224 l 1
 475 1610 l 1
 631 1610 l 1
 909 1224 l 1
 668 1224 l 1
EndSplineSet
EndChar

StartChar: idieresis
Encoding: 239 239 119
Width: 1229
Flags: MW
HStem: 0 220<665 956 665 956> 897 220<127 416 127 665>
VStem: 416 249<220 897 897 897>
LayerCount: 2
Fore
SplineSet
956 0 m 1
 416 0 l 1
 416 897 l 1
 127 897 l 1
 127 1117 l 1
 665 1117 l 1
 665 220 l 1
 956 220 l 1
 956 0 l 1
347 1224 m 0
 304 1224 268 1239 236 1269 c 0
 205 1300 190 1337 190 1380 c 0
 190 1425 205 1461 237 1491 c 0
 270 1522 306 1536 347 1536 c 0
 388 1536 423 1522 456 1491 c 0
 487 1461 503 1425 503 1380 c 0
 503 1336 487 1300 456 1270 c 0
 426 1239 390 1224 347 1224 c 0
760 1224 m 0
 717 1224 681 1239 649 1269 c 0
 618 1300 602 1336 602 1380 c 0
 602 1425 618 1461 649 1491 c 0
 682 1522 719 1536 760 1536 c 0
 801 1536 836 1522 869 1491 c 1
 869 1492 l 1
 901 1461 916 1425 916 1380 c 0
 916 1336 901 1300 869 1269 c 1
 869 1270 l 1
 838 1239 801 1224 760 1224 c 0
EndSplineSet
EndChar

StartChar: ntilde
Encoding: 241 241 120
Width: 1229
Flags: MW
HStem: 0 21G<129 378 129 129 823 823 823 1073> 910 236<691.5 720.5> 1097 20G<129 378 378 378> 1126 20G<691.5 766> 1223 210<740.5 754.5 740.5 769> 1224 320<418 463 267 502>
VStem: 129 249<0 634 967 1117> 267 196<1224 1254.5 1224 1334> 766 200<1507 1544> 823 250<0 620 0 641 0 688.5>
LayerCount: 2
Fore
SplineSet
378 0 m 1x9640
 129 0 l 1
 129 1117 l 1
 378 1117 l 1xb640
 378 967 l 1
 416 1011 455 1044 500 1073 c 0
 575 1122 652 1146 731 1146 c 0
 801 1146 864 1128 920 1091 c 0
 977 1053 1019 1003 1041 944 c 0
 1062 887 1073 778 1073 620 c 2
 1073 0 l 1
 823 0 l 1
 823 641 l 2
 823 736 819 798 811 827 c 0
 803 851 789 873 770 887 c 0
 751 903 731 910 710 910 c 0
 658 910 600 885 538 833 c 0xc640
 475 781 423 714 378 634 c 1
 378 0 l 1x9640
463 1224 m 1x9540
 267 1224 l 1
 267 1444 358 1544 478 1544 c 0
 526 1544 572 1531 617 1500 c 1
 616 1500 l 1x9540
 656 1477 l 2
 703 1448 733 1433 748 1433 c 0
 761 1433 766 1470 766 1544 c 1
 966 1544 l 1
 960 1451 949 1383 934 1349 c 0
 920 1315 893 1284 860 1260 c 0
 827 1236 790 1223 748 1223 c 0
 700 1223 645 1242 593 1275 c 2
 551 1302 l 1
 528 1318 l 2x9a80
 512 1329 497 1335 488 1335 c 0
 485 1335 479 1331 473 1325 c 0
 466 1318 463 1285 463 1224 c 1x9540
EndSplineSet
EndChar

StartChar: oacute
Encoding: 243 243 121
Width: 1229
Flags: MW
HStem: -29 220<554 634 554 674> 926 220<554 634> 1224 386<269 941 269 941>
VStem: 64 264<500.5 617 500.5 643> 859 264<500.5 617>
LayerCount: 2
Fore
SplineSet
594 -29 m 0
 433 -29 305 28 207 140 c 0
 113 252 64 391 64 559 c 0
 64 727 113 867 207 977 c 0
 305 1090 434 1146 594 1146 c 0
 754 1146 882 1089 980 977 c 0
 1074 868 1123 727 1123 559 c 0
 1123 391 1074 251 980 140 c 0
 882 28 754 -29 594 -29 c 0
594 191 m 0
 674 191 737 222 785 285 c 0
 834 350 859 442 859 559 c 0
 859 675 834 767 785 832 c 0
 737 895 674 926 594 926 c 0
 514 926 450 895 402 832 c 0
 353 767 328 675 328 559 c 0
 328 442 353 350 402 285 c 0
 450 222 514 191 594 191 c 0
536 1224 m 1
 269 1224 l 1
 620 1610 l 1
 941 1610 l 1
 536 1224 l 1
EndSplineSet
EndChar

StartChar: ograve
Encoding: 242 242 122
Width: 1229
Flags: MW
HStem: -29 220<554 634 554 674> 926 220<554 634>
VStem: 64 264<500.5 617 500.5 643> 859 264<500.5 617>
LayerCount: 2
Fore
SplineSet
594 -29 m 0
 433 -29 305 28 207 140 c 0
 113 252 64 391 64 559 c 0
 64 727 113 867 207 977 c 0
 305 1090 434 1146 594 1146 c 0
 754 1146 882 1089 980 977 c 0
 1074 868 1123 727 1123 559 c 0
 1123 391 1074 251 980 140 c 0
 882 28 754 -29 594 -29 c 0
594 191 m 0
 674 191 737 222 785 285 c 0
 834 350 859 442 859 559 c 0
 859 675 834 767 785 832 c 0
 737 895 674 926 594 926 c 0
 514 926 450 895 402 832 c 0
 353 767 328 675 328 559 c 0
 328 442 353 350 402 285 c 0
 450 222 514 191 594 191 c 0
580 1610 m 1
 930 1224 l 1
 665 1224 l 1
 259 1610 l 1
 580 1610 l 1
EndSplineSet
EndChar

StartChar: ocircumflex
Encoding: 244 244 123
Width: 1229
Flags: MW
HStem: -29 220<554 634 554 674> 926 220<554 634> 1224 386<245 677 245 677 521 955 521 714>
VStem: 64 264<500.5 617 500.5 643> 859 264<500.5 617>
LayerCount: 2
Fore
SplineSet
594 -29 m 0
 433 -29 305 28 207 140 c 0
 113 252 64 391 64 559 c 0
 64 727 113 867 207 977 c 0
 305 1090 434 1146 594 1146 c 0
 754 1146 882 1089 980 977 c 0
 1074 868 1123 727 1123 559 c 0
 1123 391 1074 251 980 140 c 0
 882 28 754 -29 594 -29 c 0
594 191 m 0
 674 191 737 222 785 285 c 0
 834 350 859 442 859 559 c 0
 859 675 834 767 785 832 c 0
 737 895 674 926 594 926 c 0
 514 926 450 895 402 832 c 0
 353 767 328 675 328 559 c 0
 328 442 353 350 402 285 c 0
 450 222 514 191 594 191 c 0
714 1224 m 1
 599 1362 l 1
 526 1274 l 1
 484 1224 l 1
 245 1224 l 1
 521 1610 l 1
 677 1610 l 1
 955 1224 l 1
 714 1224 l 1
EndSplineSet
EndChar

StartChar: odieresis
Encoding: 246 246 124
Width: 1229
Flags: MW
HStem: -29 220<554 634 554 674> 926 220<554 634>
VStem: 64 264<500.5 617 500.5 643> 859 264<500.5 617>
LayerCount: 2
Fore
SplineSet
594 -29 m 0
 433 -29 305 28 207 140 c 0
 113 252 64 391 64 559 c 0
 64 727 113 867 207 977 c 0
 305 1090 434 1146 594 1146 c 0
 754 1146 882 1089 980 977 c 0
 1074 868 1123 727 1123 559 c 0
 1123 391 1074 251 980 140 c 0
 882 28 754 -29 594 -29 c 0
594 191 m 0
 674 191 737 222 785 285 c 0
 834 350 859 442 859 559 c 0
 859 675 834 767 785 832 c 0
 737 895 674 926 594 926 c 0
 514 926 450 895 402 832 c 0
 353 767 328 675 328 559 c 0
 328 442 353 350 402 285 c 0
 450 222 514 191 594 191 c 0
393 1224 m 0
 350 1224 314 1239 282 1269 c 0
 251 1300 236 1337 236 1380 c 0
 236 1425 251 1461 283 1491 c 0
 316 1522 352 1536 393 1536 c 0
 434 1536 469 1522 502 1491 c 0
 533 1461 549 1425 549 1380 c 0
 549 1336 533 1300 502 1270 c 0
 472 1239 436 1224 393 1224 c 0
806 1224 m 0
 763 1224 727 1239 695 1269 c 0
 664 1300 648 1336 648 1380 c 0
 648 1425 664 1461 695 1491 c 0
 728 1522 765 1536 806 1536 c 0
 847 1536 882 1522 915 1491 c 1
 915 1492 l 1
 947 1461 962 1425 962 1380 c 0
 962 1336 947 1300 915 1269 c 1
 915 1270 l 1
 884 1239 847 1224 806 1224 c 0
EndSplineSet
EndChar

StartChar: otilde
Encoding: 245 245 125
Width: 1229
Flags: MW
HStem: -29 220<554 634 554 674> 926 220<554 634> 1223 210<724.5 738.5 724.5 753> 1224 320<402 447 251 486>
VStem: 64 264<500.5 617 500.5 643> 251 196<1224 1254.5 1224 1334> 750 200<1507 1544> 859 264<500.5 617>
LayerCount: 2
Fore
SplineSet
594 -29 m 0xd5
 433 -29 305 28 207 140 c 0
 113 252 64 391 64 559 c 0xd9
 64 727 113 867 207 977 c 0
 305 1090 434 1146 594 1146 c 0
 754 1146 882 1089 980 977 c 0
 1074 868 1123 727 1123 559 c 0
 1123 391 1074 251 980 140 c 0
 882 28 754 -29 594 -29 c 0xd5
594 191 m 0
 674 191 737 222 785 285 c 0
 834 350 859 442 859 559 c 0
 859 675 834 767 785 832 c 0
 737 895 674 926 594 926 c 0
 514 926 450 895 402 832 c 0
 353 767 328 675 328 559 c 0
 328 442 353 350 402 285 c 0xd9
 450 222 514 191 594 191 c 0
447 1224 m 1
 251 1224 l 1
 251 1444 342 1544 462 1544 c 0
 510 1544 556 1531 601 1500 c 1
 600 1500 l 1xd5
 640 1477 l 2
 687 1448 717 1433 732 1433 c 0
 745 1433 750 1470 750 1544 c 1
 950 1544 l 1
 944 1451 933 1383 918 1349 c 0
 904 1315 877 1284 844 1260 c 0
 811 1236 774 1223 732 1223 c 0
 684 1223 629 1242 577 1275 c 2
 535 1302 l 1
 512 1318 l 2xe6
 496 1329 481 1335 472 1335 c 0
 469 1335 463 1331 457 1325 c 0
 450 1318 447 1285 447 1224 c 1
EndSplineSet
EndChar

StartChar: uacute
Encoding: 250 250 126
Width: 1229
Flags: MW
HStem: -29 236<468 504 468 517> 0 21G<811 1060 811 811> 1097 20G<116 365 365 365 811 1060 1060 1060> 1224 386<317 989 317 989>
VStem: 116 249<497 1117> 811 249<0 152 152 152 483 1117 0 1117>
LayerCount: 2
Fore
SplineSet
811 1117 m 1x7c
 1060 1117 l 1
 1060 0 l 1
 811 0 l 1x7c
 811 152 l 1
 705 33 578 -29 456 -29 c 0
 388 -29 325 -12 268 25 c 0
 211 64 170 112 147 173 c 0
 126 230 116 338 116 497 c 2
 116 1117 l 1
 365 1117 l 1
 365 476 l 2
 365 380 369 318 377 289 c 0
 385 267 400 244 418 229 c 0
 437 214 457 207 479 207 c 0
 529 207 586 234 650 284 c 1
 649 283 l 1xbc
 712 335 766 403 811 483 c 1
 811 1117 l 1x7c
584 1224 m 1
 317 1224 l 1
 668 1610 l 1
 989 1610 l 1
 584 1224 l 1
EndSplineSet
EndChar

StartChar: ugrave
Encoding: 249 249 127
Width: 1229
Flags: MW
HStem: -29 236<468 504 468 517> 0 21G<811 1060 811 811> 1097 20G<116 365 365 365 811 1060 1060 1060>
VStem: 116 249<497 1117> 811 249<0 152 152 152 483 1117 0 1117>
LayerCount: 2
Fore
SplineSet
811 1117 m 1x78
 1060 1117 l 1
 1060 0 l 1
 811 0 l 1x78
 811 152 l 1
 705 33 578 -29 456 -29 c 0
 388 -29 325 -12 268 25 c 0
 211 64 170 112 147 173 c 0
 126 230 116 338 116 497 c 2
 116 1117 l 1
 365 1117 l 1
 365 476 l 2
 365 380 369 318 377 289 c 0
 385 267 400 244 418 229 c 0
 437 214 457 207 479 207 c 0
 529 207 586 234 650 284 c 1
 649 283 l 1xb8
 712 335 766 403 811 483 c 1
 811 1117 l 1x78
581 1610 m 1
 931 1224 l 1
 666 1224 l 1
 260 1610 l 1
 581 1610 l 1
EndSplineSet
EndChar

StartChar: ucircumflex
Encoding: 251 251 128
Width: 1229
Flags: MW
HStem: -29 236<468 504 468 517> 0 21G<811 1060 811 811> 1097 20G<116 365 365 365 811 1060 1060 1060> 1224 386<247 679 247 679 523 957 523 716>
VStem: 116 249<497 1117> 811 249<0 152 152 152 483 1117 0 1117>
LayerCount: 2
Fore
SplineSet
811 1117 m 1x6c
 1060 1117 l 1
 1060 0 l 1
 811 0 l 1x7c
 811 152 l 1
 705 33 578 -29 456 -29 c 0
 388 -29 325 -12 268 25 c 0
 211 64 170 112 147 173 c 0
 126 230 116 338 116 497 c 2
 116 1117 l 1
 365 1117 l 1
 365 476 l 2
 365 380 369 318 377 289 c 0
 385 267 400 244 418 229 c 0
 437 214 457 207 479 207 c 0
 529 207 586 234 650 284 c 1
 649 283 l 1xac
 712 335 766 403 811 483 c 1
 811 1117 l 1x6c
716 1224 m 1
 601 1362 l 1
 528 1274 l 1
 486 1224 l 1
 247 1224 l 1
 523 1610 l 1
 679 1610 l 1
 957 1224 l 1
 716 1224 l 1
EndSplineSet
EndChar

StartChar: udieresis
Encoding: 252 252 129
Width: 1229
Flags: MW
HStem: -29 236<468 504 468 517> 0 21G<811 1060 811 811> 1097 20G<116 365 365 365 811 1060 1060 1060>
VStem: 116 249<497 1117> 811 249<0 152 152 152 483 1117 0 1117>
LayerCount: 2
Fore
SplineSet
811 1117 m 1x78
 1060 1117 l 1
 1060 0 l 1
 811 0 l 1x78
 811 152 l 1
 705 33 578 -29 456 -29 c 0
 388 -29 325 -12 268 25 c 0
 211 64 170 112 147 173 c 0
 126 230 116 338 116 497 c 2
 116 1117 l 1
 365 1117 l 1
 365 476 l 2
 365 380 369 318 377 289 c 0
 385 267 400 244 418 229 c 0
 437 214 457 207 479 207 c 0
 529 207 586 234 650 284 c 1
 649 283 l 1xb8
 712 335 766 403 811 483 c 1
 811 1117 l 1x78
395 1224 m 0
 352 1224 316 1239 284 1269 c 0
 253 1300 238 1337 238 1380 c 0
 238 1425 253 1461 285 1491 c 0
 318 1522 354 1536 395 1536 c 0
 436 1536 471 1522 504 1491 c 0
 535 1461 551 1425 551 1380 c 0
 551 1336 535 1300 504 1270 c 0
 474 1239 438 1224 395 1224 c 0
808 1224 m 0
 765 1224 729 1239 697 1269 c 0
 666 1300 650 1336 650 1380 c 0
 650 1425 666 1461 697 1491 c 0
 730 1522 767 1536 808 1536 c 0
 849 1536 884 1522 917 1491 c 1
 917 1492 l 1
 949 1461 964 1425 964 1380 c 0
 964 1336 949 1300 917 1269 c 1
 917 1270 l 1
 886 1239 849 1224 808 1224 c 0
EndSplineSet
EndChar

StartChar: dagger
Encoding: 8224 8224 130
Width: 1229
Flags: MW
HStem: 1532 20G<452 750 750 750>
VStem: 452 295 470 261
LayerCount: 2
Fore
SplineSet
716 937 m 1xa0
 747 -354 l 1xc0
 454 -354 l 1
 486 938 l 1xa0
 378 929 254 918 148 911 c 1
 148 1198 l 1
 483 1168 l 1
 479 1213 l 2
 471 1318 459 1453 452 1552 c 1xc0
 750 1552 l 1
 718 1169 l 1
 792 1175 l 2
 872 1183 978 1192 1051 1198 c 1
 1051 912 l 1
 716 937 l 1xa0
EndSplineSet
EndChar

StartChar: degree
Encoding: 176 176 131
Width: 1229
Flags: MW
HStem: 1002 166<580.5 617 580.5 639.5> 1430 166<580.5 617.5>
VStem: 303 165<1281.5 1317.5 1281.5 1339> 730 166<1282 1317.5>
LayerCount: 2
Fore
SplineSet
599 1002 m 0
 517 1002 446 1032 388 1090 c 0
 330 1150 303 1220 303 1299 c 0
 303 1379 332 1450 390 1508 c 0
 450 1567 519 1596 599 1596 c 0
 679 1596 750 1567 808 1508 c 0
 866 1450 896 1379 896 1299 c 0
 896 1220 867 1150 809 1090 c 0
 751 1032 680 1002 599 1002 c 0
599 1168 m 0
 635 1168 666 1182 690 1208 c 0
 717 1235 730 1265 730 1299 c 0
 730 1336 717 1366 691 1391 c 0
 666 1417 636 1430 599 1430 c 0
 562 1430 531 1417 506 1391 c 0
 480 1366 468 1336 468 1299 c 0
 468 1264 480 1234 506 1207 c 0
 532 1181 562 1168 599 1168 c 0
EndSplineSet
EndChar

StartChar: cent
Encoding: 162 162 132
Width: 1229
Flags: MW
HStem: -147 1846<553 777 553 777>
VStem: 88 269<728 808 728 872> 553 224<-147 183 419 1118 1118 1118 1359 1699>
LayerCount: 2
Fore
SplineSet
777 -147 m 1
 553 -147 l 1
 553 185 l 1
 366 217 234 327 152 484 c 0
 110 567 88 662 88 766 c 0
 88 978 173 1143 314 1252 c 0
 381 1301 456 1338 553 1357 c 1
 553 1699 l 1
 777 1699 l 1
 777 1359 l 1
 871 1346 965 1327 1049 1300 c 1
 1049 1036 l 1
 955 1086 876 1124 777 1139 c 1
 777 402 l 1
 808 407 831 411 846 415 c 0
 870 422 907 437 963 463 c 2
 1049 503 l 1
 1049 246 l 1
 946 213 854 191 777 183 c 1
 777 -147 l 1
553 419 m 1
 553 1118 l 1
 491 1090 444 1049 414 998 c 1
 415 998 l 1
 378 930 357 851 357 765 c 0
 357 691 374 618 410 545 c 0
 438 489 487 446 553 419 c 1
EndSplineSet
EndChar

StartChar: sterling
Encoding: 163 163 133
Width: 1229
Flags: MW
HStem: 0 240<488 1109 488 1109> 730 224<111 325 111 325 578 888> 1372 224<719 780>
VStem: 325 253<598.5 657 657 730 598.5 730 954 982 982 990>
LayerCount: 2
Fore
SplineSet
1109 0 m 1
 111 0 l 1
 111 233 l 1
 183 249 230 268 252 288 c 2
 251 287 l 2
 275 310 292 342 305 385 c 1
 305 384 l 1
 317 431 325 492 325 568 c 2
 325 730 l 1
 111 730 l 1
 111 954 l 1
 325 954 l 1
 325 982 l 2
 325 1155 343 1280 377 1358 c 0
 413 1437 465 1497 530 1536 c 0
 596 1575 675 1596 763 1596 c 0
 848 1596 943 1573 1051 1527 c 1
 1051 1267 l 1
 919 1338 817 1372 743 1372 c 0
 686 1372 629 1331 600 1253 c 1
 600 1255 l 1
 588 1208 578 1115 578 990 c 2
 578 954 l 1
 888 954 l 1
 888 730 l 1
 578 730 l 1
 578 657 l 2
 578 540 572 446 556 377 c 0
 544 330 524 285 488 240 c 1
 1109 240 l 1
 1109 0 l 1
EndSplineSet
EndChar

StartChar: section
Encoding: 167 167 134
Width: 1229
Flags: MW
HStem: -354 224<535.5 606 535.5 612.5> 1372 224<640 656.5>
VStem: 119 984<-276 590.5 9 590.5> 864 239<503 536>
LayerCount: 2
Fore
SplineSet
119 -276 m 1xe0
 119 9 l 1
 222 -49 305 -84 374 -101 c 0
 444 -120 507 -130 564 -130 c 0
 648 -130 714 -111 758 -79 c 0
 798 -49 819 -18 819 15 c 0
 819 42 810 66 792 85 c 0
 768 110 716 145 639 189 c 1
 639 188 l 1
 615 201 592 214 568 228 c 2
 499 267 l 2
 371 339 282 407 225 476 c 0
 169 545 140 619 140 698 c 0
 140 799 179 893 259 978 c 1
 191 1040 156 1118 156 1213 c 0
 161 1415 322 1600 640 1596 c 0
 740 1596 860 1573 999 1532 c 1
 999 1270 l 1
 922 1309 854 1337 794 1350 c 0
 735 1364 680 1372 633 1372 c 0
 556 1372 500 1358 469 1330 c 0
 440 1303 424 1275 424 1245 c 0
 424 1214 442 1184 476 1156 c 0
 522 1120 561 1093 590 1075 c 2
 619 1058 l 2
 629 1052 639 1045 648 1040 c 2
 793 957 l 2
 912 885 1006 811 1043 756 c 0
 1082 694 1103 628 1103 553 c 0xd0
 1103 453 1061 355 984 271 c 1
 1030 229 1056 190 1068 153 c 0
 1081 111 1088 72 1088 40 c 0
 1088 -27 1065 -96 1017 -160 c 0
 971 -223 908 -275 831 -306 c 1
 832 -306 l 1
 756 -337 666 -354 559 -354 c 0
 413 -354 267 -327 119 -276 c 1xe0
668 467 m 2
 802 388 l 1
 842 426 864 472 864 519 c 0
 864 553 846 588 811 625 c 0
 773 666 730 702 680 728 c 2
 591 779 l 1
 444 865 l 1
 424 840 409 815 405 799 c 0
 398 778 394 757 394 738 c 0
 394 697 408 658 437 626 c 0
 473 589 553 532 668 467 c 2
EndSplineSet
EndChar

StartChar: bullet
Encoding: 8226 8226 135
Width: 1229
Flags: MW
HStem: 236 1060<554 644.5 554 645>
VStem: 70 1058<718 811.5>
LayerCount: 2
Fore
SplineSet
599 236 m 0
 508 236 419 258 337 304 c 0
 256 350 193 413 143 496 c 0
 94 581 70 670 70 765 c 0
 70 858 94 950 141 1030 c 0
 187 1106 260 1179 335 1223 c 0
 417 1270 509 1296 599 1296 c 0
 690 1296 781 1270 863 1223 c 0
 943 1177 1011 1110 1057 1030 c 0
 1103 948 1128 859 1128 765 c 0
 1128 671 1101 580 1054 496 c 0
 1005 416 939 349 860 304 c 0
 779 258 691 236 599 236 c 0
EndSplineSet
EndChar

StartChar: paragraph
Encoding: 182 182 136
Width: 1229
Flags: MW
HStem: 1327 225<727 798 727 727 1022 1177 1022 1022>
VStem: 502 225<-354 653 653 653> 798 224<-354 1327 -354 1327>
LayerCount: 2
Fore
SplineSet
727 -354 m 1
 502 -354 l 1
 502 653 l 1
 358 673 253 723 178 804 c 0
 100 892 60 992 60 1106 c 0
 60 1183 80 1257 117 1329 c 0
 156 1403 211 1457 282 1495 c 1
 281 1495 l 1
 349 1533 464 1552 628 1552 c 2
 1177 1552 l 1
 1177 1327 l 1
 1022 1327 l 1
 1022 -354 l 1
 798 -354 l 1
 798 1327 l 1
 727 1327 l 1
 727 -354 l 1
EndSplineSet
EndChar

StartChar: germandbls
Encoding: 223 223 137
Width: 1229
Flags: MW
HStem: -29 220<699.5 720.5 699.5 767.5> 0 21G<104 353 104 104> 1388 221<530 572>
VStem: 104 249<0 1084>
LayerCount: 2
Fore
SplineSet
353 0 m 1x70
 104 0 l 1x70
 104 1084 l 2
 104 1215 124 1314 161 1384 c 0
 201 1456 256 1512 326 1551 c 0
 398 1589 482 1609 578 1609 c 0
 709 1609 803 1578 863 1514 c 1
 862 1514 l 1
 923 1451 954 1383 954 1313 c 0
 954 1271 940 1223 915 1181 c 0
 890 1143 840 1084 779 1033 c 2
 762 1018 l 1
 716 978 l 2
 702 966 693 958 681 945 c 2
 661 927 l 2
 644 911 636 896 636 882 c 0
 636 872 638 863 642 856 c 0
 645 851 667 832 698 809 c 2
 757 766 l 1
 756 767 l 1
 874 686 l 2
 940 641 999 587 1046 532 c 0
 1094 473 1121 401 1121 321 c 0
 1121 219 1081 134 1002 69 c 0
 925 4 827 -29 708 -29 c 0
 685 -29 650 -28 620 -25 c 0
 588 -23 557 -20 541 -18 c 0
 521 -15 489 -9 430 10 c 1
 430 267 l 1
 546 216 595 207 647 198 c 0
 673 193 692 191 707 191 c 0
 734 191 763 197 793 207 c 0
 818 215 837 228 852 247 c 2
 851 246 l 1xb0
 863 265 871 284 871 302 c 0
 871 330 858 360 835 391 c 0
 807 423 754 468 691 510 c 0
 657 533 614 562 579 584 c 0
 453 669 380 745 380 854 c 0
 380 897 391 935 410 973 c 0
 431 1010 478 1062 540 1120 c 2
 596 1171 l 1
 595 1171 l 1
 649 1220 689 1266 689 1308 c 0
 689 1331 678 1351 653 1363 c 0
 621 1381 588 1388 556 1388 c 0
 485 1388 421 1354 383 1282 c 0
 363 1245 353 1180 353 1084 c 2
 353 0 l 1x70
EndSplineSet
EndChar

StartChar: registered
Encoding: 174 174 138
Width: 1229
Flags: MW
HStem: -45 196<562.5 635.5 562.5 664> 682 183<523 539 523 586> 1086 182<523 523 523 527> 1401 195<562.5 635.5>
VStem: -22 195<717 832.5 717 852.5> 314 209<322 682 322 865 865 1086> 677 209<979 1016> 1025 195<717.5 834>
LayerCount: 2
Fore
SplineSet
599 -45 m 0
 336 -45 167 96 58 351 c 0
 6 478 -22 617 -22 776 c 0
 -22 929 3 1065 51 1186 c 0
 100 1310 169 1410 258 1483 c 0
 350 1558 463 1596 599 1596 c 0
 864 1596 1033 1454 1140 1199 c 0
 1193 1073 1220 932 1220 776 c 0
 1220 627 1188 473 1139 351 c 0
 1089 228 1015 126 930 59 c 0
 843 -7 729 -45 599 -45 c 0
599 151 m 0
 672 151 742 175 806 219 c 1
 805 219 l 1
 868 267 923 343 962 443 c 0
 1004 550 1025 659 1025 776 c 0
 1025 892 1004 1003 962 1109 c 0
 922 1213 869 1287 804 1333 c 1
 805 1333 l 1
 740 1377 672 1401 599 1401 c 0
 526 1401 457 1377 391 1329 c 0
 325 1281 274 1206 234 1104 c 0
 195 998 173 889 173 776 c 0
 173 658 195 547 238 440 c 0
 279 338 336 261 396 216 c 1
 395 216 l 1
 457 174 526 151 599 151 c 0
539 682 m 1
 523 682 l 1
 523 322 l 1
 314 322 l 1
 314 1268 l 1
 561 1268 l 2
 682 1268 768 1243 815 1194 c 0
 863 1145 886 1091 886 1028 c 0
 886 930 839 824 733 751 c 1
 856 530 l 1
 973 322 l 1
 726 322 l 1
 539 682 l 1
523 1086 m 1
 523 865 l 1
 586 865 l 1
 641 901 677 951 677 1004 c 0
 677 1028 669 1049 651 1064 c 0
 633 1079 591 1086 527 1086 c 2
 523 1086 l 1
EndSplineSet
EndChar

StartChar: copyright
Encoding: 169 169 139
Width: 1229
Flags: MW
HStem: -45 196<562.5 635.5 562.5 664> -45 281<662 664> 1315 281<599.5 679> 1401 195<562.5 635.5>
VStem: -22 195<717 832.5 717 852.5> 1025 195<717.5 834>
LayerCount: 2
Fore
SplineSet
599 -45 m 0x9c
 336 -45 167 96 58 351 c 0
 6 478 -22 617 -22 776 c 0
 -22 929 3 1065 51 1186 c 0
 100 1310 169 1410 258 1483 c 0
 350 1558 463 1596 599 1596 c 0
 864 1596 1033 1454 1140 1199 c 0
 1193 1073 1220 932 1220 776 c 0
 1220 627 1188 473 1139 351 c 0
 1089 228 1015 126 930 59 c 0
 843 -7 729 -45 599 -45 c 0x9c
599 151 m 0
 672 151 742 175 806 219 c 1
 805 219 l 1
 868 267 923 343 962 443 c 0
 1004 550 1025 659 1025 776 c 0
 1025 892 1004 1003 962 1109 c 0
 922 1213 869 1287 804 1333 c 1
 805 1333 l 1
 740 1377 672 1401 599 1401 c 0
 526 1401 457 1377 391 1329 c 0
 325 1281 274 1206 234 1104 c 0
 195 998 173 889 173 776 c 0
 173 658 195 547 238 440 c 0
 279 338 336 261 396 216 c 1
 395 216 l 1
 457 174 526 151 599 151 c 0
904 279 m 1x6c
 904 508 l 1
 800 466 727 446 680 446 c 0
 612 446 554 475 505 527 c 1
 505 526 l 1
 459 581 432 668 432 773 c 0
 432 869 456 951 495 1011 c 1
 494 1010 l 1
 534 1064 590 1092 656 1092 c 0
 692 1092 800 1076 904 1043 c 1
 904 1275 l 1
 797 1301 711 1315 647 1315 c 0
 552 1315 472 1292 405 1243 c 0
 343 1197 291 1131 250 1046 c 0
 212 962 193 873 193 775 c 0
 192 479 395 232 662 236 c 0
 746 236 826 250 904 279 c 1x6c
EndSplineSet
EndChar

StartChar: trademark
Encoding: 8482 8482 140
Width: 1229
Flags: MW
HStem: 1368 184<-22 191 -22 602 389 389 389 602>
VStem: 191 198<738 1368> 583 19<1368 1552 1368 1552 1368 1552> 1028 192<738 1011 1011 1011>
LayerCount: 2
Fore
SplineSet
389 738 m 1
 191 738 l 1
 191 1368 l 1
 -22 1368 l 1
 -22 1552 l 1
 602 1552 l 1
 602 1368 l 1
 389 1368 l 1
 389 738 l 1
812 879 m 1
 761 1014 l 1
 761 738 l 1
 583 738 l 1
 583 1552 l 1
 767 1552 l 1
 902 1188 l 1
 1038 1552 l 1
 1220 1552 l 1
 1220 738 l 1
 1028 738 l 1
 1028 1011 l 1
 1014 971 992 916 980 879 c 1
 812 879 l 1
EndSplineSet
EndChar

StartChar: acute
Encoding: 180 180 141
Width: 1229
Flags: MW
HStem: 1224 386<230 902 230 902>
VStem: 230 672<1224 1610>
LayerCount: 2
Fore
SplineSet
497 1224 m 1
 230 1224 l 1
 581 1610 l 1
 902 1610 l 1
 497 1224 l 1
EndSplineSet
EndChar

StartChar: dieresis
Encoding: 168 168 142
Width: 1229
Flags: MW
HStem: 1224 312<372.5 413.5 372.5 414.5 785.5 826.5>
VStem: 236 726<1358.5 1402.5>
LayerCount: 2
Fore
SplineSet
393 1224 m 0
 350 1224 314 1239 282 1269 c 0
 251 1300 236 1337 236 1380 c 0
 236 1425 251 1461 283 1491 c 0
 316 1522 352 1536 393 1536 c 0
 434 1536 469 1522 502 1491 c 0
 533 1461 549 1425 549 1380 c 0
 549 1336 533 1300 502 1270 c 0
 472 1239 436 1224 393 1224 c 0
806 1224 m 0
 763 1224 727 1239 695 1269 c 0
 664 1300 648 1336 648 1380 c 0
 648 1425 664 1461 695 1491 c 0
 728 1522 765 1536 806 1536 c 0
 847 1536 882 1522 915 1491 c 1
 915 1492 l 1
 947 1461 962 1425 962 1380 c 0
 962 1336 947 1300 915 1269 c 1
 915 1270 l 1
 884 1239 847 1224 806 1224 c 0
EndSplineSet
EndChar

StartChar: notequal_old
Encoding: 65537 -1 143
Width: 1229
Flags: MW
HStem: 267 207<49 222 49 386 673 1137 49 509> 607 206<49 495 49 664 49 784 954 1137>
VStem: 49 1088<267 474 267 474 607 813 267 813>
LayerCount: 2
Fore
SplineSet
673 474 m 1
 1137 474 l 1
 1137 267 l 1
 509 267 l 1
 493 249 476 231 461 212 c 2
 361 95 l 1
 77 95 l 1
 222 267 l 1
 49 267 l 1
 49 474 l 1
 386 474 l 1
 495 607 l 1
 49 607 l 1
 49 813 l 1
 664 813 l 1
 709 870 760 930 805 987 c 1
 1096 987 l 1
 954 813 l 1
 1137 813 l 1
 1137 607 l 1
 784 607 l 1
 738 553 l 2
 709 518 709 519 673 474 c 1
EndSplineSet
EndChar

StartChar: AE
Encoding: 198 198 144
Width: 1229
Flags: MW
HStem: 0 240<836 1175 836 1175> 354 209<433 582 433 582 349 582> 671 224<836 1161 836 1161> 1327 225<836 1175 836 836>
VStem: 582 254<240 354 354 354 563 671 895 924 924 924>
LayerCount: 2
Fore
SplineSet
1175 0 m 1
 582 0 l 1
 582 354 l 1
 349 354 l 1
 331 309 311 263 294 218 c 0
 266 149 231 67 205 0 c 1
 -42 0 l 1
 594 1552 l 1
 1175 1552 l 1
 1175 1327 l 1
 836 1327 l 1
 836 895 l 1
 1161 895 l 1
 1161 671 l 1
 836 671 l 1
 836 240 l 1
 1175 240 l 1
 1175 0 l 1
582 924 m 1
 433 563 l 1
 582 563 l 1
 582 924 l 1
EndSplineSet
EndChar

StartChar: Oslash
Encoding: 216 216 145
Width: 1229
Flags: MW
HStem: -45 225<568 641 568 655.5> 1372 224<557.5 613>
VStem: 44 269<773 881 773 914.5> 884 269<685 793.5>
LayerCount: 2
Fore
SplineSet
320 43 m 1
 238 -103 l 1
 19 -103 l 1
 179 196 l 1
 142 258 119 310 101 366 c 0
 83 426 69 493 58 561 c 0
 49 630 44 704 44 785 c 0
 44 1044 92 1244 192 1382 c 0
 292 1525 427 1596 594 1596 c 0
 666 1596 749 1577 812 1552 c 0
 835 1541 862 1528 886 1511 c 1
 910 1557 941 1611 964 1654 c 1
 1178 1654 l 1
 1024 1357 l 1
 1061 1293 1083 1244 1099 1192 c 0
 1116 1139 1131 1066 1139 993 c 0
 1148 919 1153 840 1153 765 c 0
 1153 605 1131 458 1088 337 c 0
 1044 215 982 117 905 55 c 0
 827 -12 721 -45 590 -45 c 0
 533 -45 483 -39 440 -24 c 0
 405 -14 365 8 320 43 c 1
331 485 m 1
 772 1298 l 1
 745 1326 717 1344 692 1353 c 0
 660 1365 628 1372 598 1372 c 0
 517 1372 450 1321 397 1225 c 1
 398 1226 l 1
 343 1122 313 973 313 789 c 0
 313 757 314 714 316 650 c 0
 318 600 322 545 326 513 c 1
 326 514 l 1
 330 492 322 516 331 485 c 1
866 1067 m 1
 432 258 l 1
 485 204 542 180 594 180 c 0
 688 180 759 231 806 332 c 0
 859 444 884 593 884 777 c 0
 884 810 883 852 881 907 c 0
 879 953 875 1004 871 1036 c 1
 871 1035 l 1
 867 1062 874 1034 866 1067 c 1
EndSplineSet
EndChar

StartChar: infinity
Encoding: 8734 8734 146
Width: 1229
Flags: MW
HStem: 191 240<878.5 893.5 878.5 913> 192 195<314.5 336.5 314.5 354.5> 753 194<851 877>
VStem: 44 199<529.5 577.5 529.5 592> 955 198<549 597.5 542 602>
LayerCount: 2
Fore
SplineSet
609 390 m 1x78
 603 396 l 1
 552 311 506 256 466 232 c 1
 467 232 l 1
 427 206 381 192 328 192 c 0x78
 242 192 169 231 118 309 c 0
 69 381 44 464 44 562 c 0
 44 622 55 684 77 740 c 0
 99 796 130 848 167 885 c 0
 209 926 258 948 311 948 c 0
 361 948 410 925 457 883 c 0
 492 850 541 802 591 743 c 1
 617 790 647 831 681 867 c 1
 680 867 l 1
 731 920 792 947 864 947 c 0
 975 947 1069 879 1119 750 c 0
 1141 690 1153 627 1153 568 c 0
 1153 516 1141 456 1120 395 c 0
 1098 334 1063 281 1025 246 c 0
 984 210 938 191 888 191 c 0xb8
 792 191 713 259 608 391 c 1
 609 390 l 1x78
474 553 m 1
 448 583 l 1
 416 618 l 1
 385 652 l 2
 353 684 329 700 310 700 c 0
 297 700 284 688 269 665 c 1
 269 666 l 1
 251 637 243 601 243 554 c 0
 243 505 252 462 270 426 c 1
 269 427 l 1
 284 401 303 387 326 387 c 0
 347 387 366 397 387 418 c 1
 388 418 l 1
 408 441 438 487 474 553 c 1
724 587 m 1
 738 569 l 1
 737 571 l 1
 749 558 762 541 775 527 c 2
 817 481 l 2
 844 450 869 431 888 431 c 0
 899 431 912 441 927 463 c 0xb8
 946 489 955 526 955 572 c 0
 955 632 946 677 926 711 c 0
 910 739 889 753 865 753 c 0
 837 753 811 730 782 685 c 0
 768 665 749 635 724 587 c 1
EndSplineSet
EndChar

StartChar: plusminus
Encoding: 177 177 147
Width: 1229
Flags: MW
HStem: 0 224<44 1153 44 1153> 738 224<44 486 44 486 711 1153>
VStem: 486 225<294 738 294 738 962 1404>
LayerCount: 2
Fore
SplineSet
711 962 m 1
 1153 962 l 1
 1153 738 l 1
 711 738 l 1
 711 294 l 1
 486 294 l 1
 486 738 l 1
 44 738 l 1
 44 962 l 1
 486 962 l 1
 486 1404 l 1
 711 1404 l 1
 711 962 l 1
44 224 m 1
 1153 224 l 1
 1153 0 l 1
 44 0 l 1
 44 224 l 1
EndSplineSet
EndChar

StartChar: lessequal
Encoding: 8804 8804 148
Width: 1229
Flags: MW
HStem: 0 224<43 1153 43 1153>
VStem: -4 1157<0 849>
LayerCount: 2
Fore
SplineSet
1153 270 m 1
 -4 849 l 1
 1153 1427 l 1
 1153 1176 l 1
 497 850 l 1
 589 803 685 757 776 710 c 0
 898 647 1031 580 1153 520 c 1
 1153 270 l 1
43 224 m 1
 1153 224 l 1
 1153 0 l 1
 43 0 l 1
 43 224 l 1
EndSplineSet
EndChar

StartChar: greaterequal
Encoding: 8805 8805 149
Width: 1229
Flags: MW
HStem: 0 224<45 1153 45 1153>
VStem: 45 1157<0 849 224 849 270 849 524 849 849 1427 849 1427>
LayerCount: 2
Fore
SplineSet
45 1427 m 1
 1202 849 l 1
 45 270 l 1
 45 524 l 1
 701 848 l 1
 445 978 l 1
 45 1180 l 1
 45 1427 l 1
45 224 m 1
 1153 224 l 1
 1153 0 l 1
 45 0 l 1
 45 224 l 1
EndSplineSet
EndChar

StartChar: yen
Encoding: 165 165 150
Width: 1229
Flags: MW
HStem: 0 21G<473 726 473 473> 236 210<163 473 163 473 726 1028> 553 209<163 438 163 473 163 438 752 1028> 1532 20G<-2 281 281 281 937 1199 1199 1199>
VStem: 473 253<0 236 0 236 446 553>
LayerCount: 2
Fore
SplineSet
726 0 m 1
 473 0 l 1
 473 236 l 1
 163 236 l 1
 163 446 l 1
 473 446 l 1
 473 553 l 1
 163 553 l 1
 163 762 l 1
 438 762 l 1
 222 1149 l 1
 -2 1552 l 1
 281 1552 l 1
 608 981 l 1
 724 1183 l 2
 791 1301 869 1434 937 1552 c 1
 1199 1552 l 1
 752 762 l 1
 1028 762 l 1
 1028 553 l 1
 726 553 l 1
 726 446 l 1
 1028 446 l 1
 1028 236 l 1
 726 236 l 1
 726 0 l 1
EndSplineSet
EndChar

StartChar: mu
Encoding: 181 181 151
Width: 1229
Flags: MW
HStem: -29 227<480.5 522.5 478 555.5> 0 21G<811 1061 811 811> 1097 20G<96 345 345 345 811 1061 1061 1061>
VStem: 96 249<-347 9 420 474 474 1117> 811 250<0 135 135 135 476 1117 0 1117>
LayerCount: 2
Fore
SplineSet
811 1117 m 1x78
 1061 1117 l 1
 1061 0 l 1
 811 0 l 1x78
 811 135 l 1
 720 21 608 -29 503 -29 c 0
 458 -29 399 -14 360 2 c 0
 348 8 361 -2 345 9 c 1
 345 -347 l 1
 96 -347 l 1
 96 1117 l 1
 345 1117 l 1
 345 474 l 2
 345 366 362 292 392 252 c 0
 420 215 456 198 500 198 c 0
 545 198 589 216 635 251 c 1
 634 250 l 1xb8
 678 287 741 364 811 476 c 1
 811 1117 l 1x78
EndSplineSet
EndChar

StartChar: partialdiff_old
Encoding: 65538 -1 152
Width: 1229
Flags: MW
HStem: -29 220<484 541.5 484 561.5> 889 220<644 699.5 622.5 706> 1359 221<288 346 346 352 288 346>
VStem: 42 257<401 474 401 475> 42 1104<376.5 828.5> 889 257<679.5 725>
LayerCount: 2
Fore
SplineSet
678 1109 m 0xe8
 721 1109 765 1103 811 1089 c 1
 748 1269 588 1359 352 1359 c 2
 288 1359 l 1
 288 1580 l 1
 346 1580 l 2
 682 1580 923 1444 1050 1178 c 0
 1113 1047 1146 905 1146 752 c 0
 1146 607 1116 474 1058 351 c 0
 1000 232 919 134 823 70 c 0
 729 7 619 -29 504 -29 c 0
 415 -29 335 -10 262 27 c 0
 190 68 135 123 96 192 c 1
 61 263 42 337 42 416 c 0
 42 534 72 646 131 755 c 0xf4
 191 865 269 952 365 1015 c 0
 461 1077 567 1109 678 1109 c 0xe8
512 191 m 0
 571 191 630 212 688 252 c 0
 745 290 796 358 832 434 c 0
 868 517 889 607 889 692 c 0
 889 758 869 806 829 838 c 0
 788 872 737 889 675 889 c 0
 613 889 553 869 496 828 c 0
 438 787 389 729 353 656 c 0
 316 583 299 511 299 437 c 0
 299 365 321 302 361 257 c 0xf4
 400 219 456 191 512 191 c 0
EndSplineSet
EndChar

StartChar: summation_old
Encoding: 65539 -1 153
Width: 1229
Flags: MW
HStem: -405 250<364 1105 364 1105> 1301 221<429 1068 429 429>
VStem: 67 1038<-405 -182 -182 -182>
LayerCount: 2
Fore
SplineSet
364 -155 m 1
 1105 -155 l 1
 1105 -405 l 1
 67 -405 l 1
 67 -182 l 1
 496 606 l 1
 429 724 364 839 296 960 c 0
 228 1079 153 1213 89 1329 c 1
 89 1522 l 1
 1068 1522 l 1
 1068 1301 l 1
 429 1301 l 1
 532 1114 l 2
 616 961 706 796 790 645 c 1
 364 -155 l 1
EndSplineSet
EndChar

StartChar: product
Encoding: 8719 8719 154
Width: 1229
Flags: MW
HStem: 1327 225<8 185 8 1191 454 454 454 746 1014 1014 1014 1191>
VStem: 185 269<-412 1327> 746 268<-412 1327 -412 1327>
LayerCount: 2
Fore
SplineSet
454 -412 m 1
 185 -412 l 1
 185 1327 l 1
 8 1327 l 1
 8 1552 l 1
 1191 1552 l 1
 1191 1327 l 1
 1014 1327 l 1
 1014 -412 l 1
 746 -412 l 1
 746 1327 l 1
 454 1327 l 1
 454 -412 l 1
EndSplineSet
EndChar

StartChar: pi
Encoding: 960 960 155
Width: 1229
Flags: MW
HStem: 0 21G<251 501 251 251 784 784 784 1045> 889 228<501 706 501 501 955 955 955 1130>
VStem: 251 250<0 888 888 888> 706 249<383 387 387 889>
LayerCount: 2
Fore
SplineSet
706 889 m 1
 501 889 l 1
 501 0 l 1
 251 0 l 1
 251 888 l 1
 195 884 121 854 27 799 c 1
 27 1068 l 1
 61 1080 104 1093 127 1100 c 0
 148 1104 177 1108 206 1111 c 0
 234 1115 261 1117 278 1117 c 2
 1130 1117 l 1
 1130 889 l 1
 955 889 l 1
 955 387 l 2
 955 260 986 130 1045 0 c 1
 784 0 l 1
 731 120 706 245 706 383 c 2
 706 889 l 1
EndSplineSet
EndChar

StartChar: integral_old
Encoding: 65540 -1 156
Width: 1229
Flags: MW
HStem: 1545 20G<792 870.5>
VStem: 469 249<304 400 400 742 742 862>
LayerCount: 2
Fore
SplineSet
400 -116 m 0
 400 -124 399 -129 398 -137 c 1
 412 -126 427 -103 437 -76 c 0
 457 -15 469 114 469 304 c 2
 469 742 l 2
 469 1075 507 1298 577 1403 c 1
 651 1506 743 1565 841 1565 c 0
 900 1565 951 1545 992 1509 c 0
 1035 1471 1058 1423 1058 1367 c 0
 1058 1311 1040 1270 1007 1243 c 0
 977 1220 947 1208 917 1208 c 0
 886 1208 858 1217 832 1238 c 0
 803 1261 787 1293 787 1331 c 0
 787 1335 787 1344 788 1348 c 1
 767 1331 748 1298 735 1243 c 1
 735 1243 l 1
 725 1196 718 1070 718 862 c 2
 718 400 l 2
 718 120 684 -74 615 -180 c 0
 542 -291 451 -347 344 -347 c 0
 281 -347 229 -330 188 -293 c 0
 148 -255 129 -208 129 -150 c 0
 129 -108 143 -72 170 -42 c 0
 197 -14 232 3 270 3 c 0
 300 3 333 -7 359 -30 c 0
 385 -52 400 -81 400 -116 c 0
EndSplineSet
EndChar

StartChar: ordfeminine
Encoding: 170 170 157
Width: 1229
Flags: MW
HStem: 848 202<506 522> 1401 195<634 670 605.5 688> 1568 20G<817 985 985 985>
VStem: 177 225<1158 1214 1158 1253> 773 211
LayerCount: 2
Fore
SplineSet
830 863 m 1xc8
 811 876 l 1
 801 905 795 930 788 961 c 1
 758 935 723 913 683 895 c 0
 616 864 553 848 491 848 c 0
 410 848 339 874 276 927 c 1
 276 926 l 1
 210 980 177 1061 177 1170 c 0
 177 1336 265 1467 401 1540 c 0
 470 1576 555 1596 656 1596 c 0xd8
 684 1596 727 1594 781 1591 c 2
 817 1588 l 1
 985 1588 l 1xa8
 985 1098 l 2
 985 1070 987 1038 990 1011 c 0
 993 987 1016 937 1055 863 c 1
 830 863 l 1xc8
774 1199 m 1
 773 1394 l 1
 736 1399 704 1401 672 1401 c 0
 596 1401 529 1380 476 1340 c 0
 425 1302 402 1248 402 1180 c 0
 402 1136 414 1103 437 1082 c 1
 436 1082 l 1
 459 1061 489 1050 523 1050 c 0
 562 1050 607 1067 655 1094 c 1
 654 1094 l 1
 701 1123 741 1157 774 1199 c 1
EndSplineSet
EndChar

StartChar: ordmasculine
Encoding: 186 186 158
Width: 1229
Flags: MW
HStem: 840 195<565 632 565 672.5> 1401 195<565 632>
VStem: 148 224<1189.5 1246.5 1189.5 1269> 148 903<1168 1269> 827 224<1189.5 1246.5>
LayerCount: 2
Fore
SplineSet
598 840 m 0xd0
 451 840 338 878 262 953 c 0
 186 1028 148 1118 148 1218 c 0
 148 1320 186 1409 262 1483 c 0
 338 1558 451 1596 598 1596 c 0
 747 1596 861 1558 937 1483 c 0
 1013 1409 1051 1320 1051 1218 c 0xe8
 1051 1117 1013 1028 937 953 c 0
 861 878 747 840 598 840 c 0xd0
598 1035 m 0
 666 1035 724 1054 768 1084 c 0
 806 1114 827 1161 827 1218 c 0
 827 1275 806 1321 768 1351 c 0
 724 1381 666 1401 598 1401 c 0
 532 1401 474 1381 431 1351 c 0
 392 1321 372 1275 372 1218 c 0
 372 1161 392 1114 431 1084 c 0xe8
 474 1054 532 1035 598 1035 c 0
EndSplineSet
EndChar

StartChar: Omega
Encoding: 8486 8486 159
Width: 1229
Flags: MW
HStem: 0 247<8 194 8 556 8 194 1005 1191> 1372 224<556.5 643.5>
VStem: 45 268<722.5 873 679 899> 885 269<728 873>
LayerCount: 2
Fore
SplineSet
556 232 m 1
 556 0 l 1
 8 0 l 1
 8 247 l 1
 194 247 l 1
 141 318 104 394 83 468 c 0
 57 564 45 667 45 778 c 0
 45 1020 92 1220 183 1367 c 0
 278 1516 419 1596 599 1596 c 0
 782 1596 920 1520 1017 1367 c 0
 1108 1219 1154 1024 1154 778 c 0
 1154 668 1140 563 1115 468 c 0
 1096 395 1059 318 1005 247 c 1
 1191 247 l 1
 1191 0 l 1
 642 0 l 1
 642 233 l 1
 759 285 821 375 857 514 c 0
 873 587 885 679 885 777 c 0
 885 969 859 1118 804 1224 c 0
 756 1323 688 1372 599 1372 c 0
 514 1372 444 1323 394 1223 c 0
 340 1116 313 968 313 778 c 0
 313 580 354 425 415 338 c 0
 443 297 493 261 556 232 c 1
EndSplineSet
EndChar

StartChar: ae
Encoding: 230 230 160
Width: 1229
Flags: MW
HStem: -29 21G<297.5 376.5 820 908> -29 220<887.5 908> 499 199<769 895 895 914 750 1146 750 769> 926 220<456 479 825 842>
VStem: 42 249<436.5 489> 519 250<484 499 679 689 689 698 416 911> 895 251
LayerCount: 2
Fore
SplineSet
615 79 m 0xbe
 597 98 582 122 567 151 c 1
 500 30 415 -29 338 -29 c 0
 257 -29 182 26 124 125 c 0
 70 218 42 344 42 489 c 0
 37 880 238 1149 456 1146 c 0
 504 1146 563 1134 602 1119 c 1
 601 1119 l 1
 621 1113 640 1104 664 1088 c 1
 704 1115 737 1131 763 1137 c 1
 763 1136 l 1
 791 1143 814 1146 836 1146 c 0
 928 1146 1003 1103 1062 1023 c 1
 1114 945 1146 792 1146 583 c 2
 1146 499 l 1
 769 499 l 1
 769 460 l 2
 769 372 775 311 788 277 c 0
 798 247 815 226 834 211 c 2
 833 212 l 1
 853 199 875 191 900 191 c 0x7e
 955 191 1038 227 1146 297 c 1
 1146 45 l 1
 1037 -6 945 -29 871 -29 c 0
 769 -29 679 7 615 79 c 0xbe
519 484 m 1
 519 911 l 1
 501 922 486 926 472 926 c 0
 418 926 374 880 344 796 c 0
 311 699 291 586 291 469 c 0
 291 404 303 343 320 293 c 0
 333 265 347 245 360 241 c 1
 407 252 465 333 519 484 c 1
895 689 m 1
 895 679 l 1
 914 698 l 1
 895 698 l 1
 895 689 l 1
769 679 m 1
 769 689 l 1
 769 698 l 1
 750 698 l 1
 769 679 l 1
834 926 m 0
 792 926 770 851 769 698 c 1
 895 698 l 1
 894 797 888 863 874 892 c 0
 864 914 850 926 834 926 c 0
EndSplineSet
EndChar

StartChar: oslash
Encoding: 248 248 161
Width: 1229
Flags: MW
HStem: -29 220<572 633.5 567.5 681.5> 926 220<551.5 615.5>
VStem: 30 1125 64 264<532 621 532 644> 859 264<500.5 586>
LayerCount: 2
Fore
SplineSet
340 29 m 1xe0
 260 -87 l 1
 30 -87 l 1
 194 157 l 1
 107 275 64 411 64 564 c 0
 64 724 110 860 197 971 c 0
 288 1087 420 1146 592 1146 c 0
 658 1146 728 1136 780 1119 c 0
 798 1111 823 1102 846 1089 c 1
 873 1126 902 1169 927 1204 c 1
 1155 1204 l 1
 991 967 l 1
 1070 850 1123 702 1123 559 c 0xd8
 1123 403 1080 266 992 151 c 0
 902 32 770 -29 593 -29 c 0
 551 -29 509 -25 471 -18 c 0
 435 -14 391 2 340 29 c 1xe0
351 381 m 1
 715 903 l 1
 676 920 637 926 594 926 c 0
 509 926 443 895 398 832 c 0
 352 768 328 678 328 564 c 0
 328 500 335 440 351 381 c 1
836 742 m 1
 471 218 l 1
 511 201 550 191 585 191 c 0
 682 191 754 228 793 288 c 1
 793 287 l 1
 837 358 859 447 859 554 c 0
 859 618 849 685 836 742 c 1
EndSplineSet
EndChar

StartChar: questiondown
Encoding: 191 191 162
Width: 1229
Flags: MW
HStem: -473 226<578.5 642.5 578.5 685.5>
VStem: 586 254<621 632 632 703 604.5 703>
LayerCount: 2
Fore
SplineSet
586 703 m 1
 840 703 l 1
 840 632 l 2
 840 577 835 531 825 490 c 0
 816 453 796 413 768 369 c 0
 740 329 699 277 653 230 c 2
 593 165 l 1
 590 162 l 1
 591 162 l 1
 582 150 567 135 547 108 c 2
 484 30 l 1
 484 31 l 1
 437 -28 413 -78 413 -116 c 0
 413 -149 428 -178 457 -206 c 1
 456 -206 l 1
 486 -234 541 -247 616 -247 c 0
 669 -247 723 -240 775 -227 c 0
 826 -215 911 -174 1024 -111 c 1
 1024 -372 l 1
 890 -440 753 -473 618 -473 c 0
 468 -473 350 -439 270 -377 c 0
 190 -313 144 -223 144 -121 c 0
 144 -21 198 85 299 191 c 2
 362 255 l 1
 435 331 l 1
 503 400 l 2
 522 424 542 453 561 488 c 1
 561 487 l 1
 578 518 586 563 586 621 c 2
 586 703 l 1
703 811 m 0
 656 811 614 828 580 862 c 0
 547 898 529 939 529 986 c 0
 529 1032 547 1074 581 1109 c 0
 615 1144 657 1160 703 1160 c 0
 751 1160 792 1144 826 1111 c 0
 862 1077 879 1035 879 986 c 0
 879 937 862 897 826 862 c 0
 790 828 750 811 703 811 c 0
EndSplineSet
EndChar

StartChar: exclamdown
Encoding: 161 161 163
Width: 1229
Flags: MW
HStem: -428 21G<448 764 448 448>
VStem: 424 350<970 1016>
LayerCount: 2
Fore
SplineSet
496 703 m 1
 717 703 l 1
 764 -428 l 1
 448 -428 l 1
 496 703 l 1
599 1168 m 0
 645 1168 685 1151 720 1115 c 0
 756 1080 774 1040 774 993 c 0
 774 946 756 906 720 871 c 0
 685 835 644 818 599 818 c 0
 554 818 512 835 477 871 c 0
 441 906 424 947 424 993 c 0
 424 1039 441 1080 477 1115 c 0
 512 1151 553 1168 599 1168 c 0
EndSplineSet
EndChar

StartChar: logicalnot
Encoding: 172 172 164
Width: 1229
Flags: MW
HStem: 442 225<44 929 44 1153>
VStem: 929 224<147 442 442 442>
LayerCount: 2
Fore
SplineSet
44 667 m 1
 1153 667 l 1
 1153 147 l 1
 929 147 l 1
 929 442 l 1
 44 442 l 1
 44 667 l 1
EndSplineSet
EndChar

StartChar: radical_old
Encoding: 65541 -1 165
Width: 1229
Flags: MW
HStem: 1388 221<1050 1050 1050 1203>
VStem: -19 1222<649 1609>
LayerCount: 2
Fore
SplineSet
1050 1388 m 1
 660 -347 l 1
 459 -347 l 1
 185 487 l 1
 163 478 139 468 117 461 c 2
 53 438 l 1
 -19 649 l 1
 322 777 l 1
 538 121 l 1
 635 545 l 2
 715 895 800 1264 877 1609 c 1
 1203 1609 l 1
 1203 1388 l 1
 1050 1388 l 1
EndSplineSet
EndChar

StartChar: florin
Encoding: 402 402 166
Width: 1229
Flags: MW
HStem: 810 220<152 341 107 387 152 595 640 964> 1388 221<938 987> 1572 20G<1206.5 1214> 1579 20G<1135 1135>
VStem: 107 1107<810 1592>
LayerCount: 2
Fore
SplineSet
360 -347 m 1x98
 107 -347 l 1
 341 810 l 1
 107 810 l 1
 152 1030 l 1
 387 1030 l 1
 388 1034 389 1041 389 1045 c 0
 424 1277 516 1429 679 1532 c 0
 762 1583 871 1609 1005 1609 c 0
 1040 1609 1086 1606 1135 1599 c 2
 1165 1595 l 2x98
 1177 1594 1199 1592 1214 1592 c 1xa8
 1167 1362 l 1
 1094 1375 l 2
 1044 1383 1002 1388 972 1388 c 0xc8
 870 1388 786 1355 725 1282 c 1
 698 1243 667 1153 644 1051 c 2
 640 1030 l 1
 1008 1030 l 1
 964 810 l 1
 595 810 l 1
 579 734 565 655 548 577 c 2
 360 -347 l 1x98
EndSplineSet
EndChar

StartChar: approxequal_old
Encoding: 65542 -1 167
Width: 1229
Flags: MW
HStem: 166 221<840.5 875.5 840.5 876.5> 527 34 556 34 731 220<308.5 344.5>
VStem: 35 188<195 249 195 294.5 556 611> 957 195<508 561 450 561 869 922>
LayerCount: 2
Fore
SplineSet
223 556 m 1xbc
 35 556 l 1
 35 611 l 2xbc
 35 702 61 781 115 847 c 0
 171 916 245 951 340 951 c 0
 385 951 427 942 480 922 c 1
 479 922 l 1
 505 913 544 892 596 864 c 2
 709 800 l 2
 772 766 821 748 859 748 c 0
 892 748 915 759 929 781 c 0
 948 809 957 838 957 869 c 2
 957 922 l 1
 1152 922 l 1
 1152 869 l 2
 1152 755 1117 667 1050 611 c 0
 986 559 912 527 839 527 c 0
 773 527 682 560 576 620 c 1
 577 619 l 1xdc
 561 628 542 637 527 647 c 1
 528 647 l 1
 481 675 l 2
 416 712 364 731 325 731 c 0
 292 731 258 709 238 672 c 0
 229 649 223 628 223 611 c 2
 223 556 l 1xbc
223 195 m 1
 35 195 l 1
 35 249 l 2
 35 340 62 419 116 485 c 1
 115 484 l 1
 171 554 245 590 340 590 c 0
 385 590 427 581 480 561 c 0
 505 551 545 531 597 503 c 2xbc
 709 438 l 1
 709 439 l 1
 773 404 822 387 859 387 c 0
 892 387 915 399 929 420 c 0
 948 447 957 477 957 508 c 2
 957 561 l 1
 1152 561 l 1
 1152 508 l 2xdc
 1152 392 1119 305 1050 249 c 0
 983 193 914 166 839 166 c 0
 773 166 682 199 576 259 c 1
 576 258 l 1
 544 275 512 294 481 312 c 0
 415 350 363 369 325 369 c 0
 290 369 258 351 238 310 c 0
 228 287 223 267 223 249 c 2
 223 195 l 1
EndSplineSet
EndChar

StartChar: increment
Encoding: 8710 8710 168
Width: 1229
Flags: MW
HStem: 0 253<262 891 262 1191> 1532 20G<471 719 719 719>
VStem: 8 1183<0 223 0 223>
LayerCount: 2
Fore
SplineSet
1191 223 m 1
 1191 0 l 1
 8 0 l 1
 8 223 l 1
 471 1552 l 1
 719 1552 l 1
 1191 223 l 1
579 1149 m 1
 262 253 l 1
 891 253 l 1
 828 431 772 593 715 757 c 2
 579 1149 l 1
EndSplineSet
EndChar

StartChar: guillemotleft
Encoding: 171 171 169
Width: 1229
Flags: MW
HStem: 44 1053<523 525 525 972>
VStem: 123 1012<185 660 185 660>
LayerCount: 2
Fore
SplineSet
972 44 m 1
 572 479 l 1
 572 660 l 1
 974 1097 l 1
 1135 940 l 1
 837 567 l 1
 1135 185 l 1
 972 44 l 1
523 44 m 1
 123 479 l 1
 123 660 l 1
 525 1097 l 1
 685 941 l 1
 386 568 l 1
 548 362 l 1
 685 186 l 1
 523 44 l 1
EndSplineSet
EndChar

StartChar: guillemotright
Encoding: 187 187 170
Width: 1229
Flags: MW
HStem: 42 1053<227 674>
VStem: 63 1013<199 660 479 952>
LayerCount: 2
Fore
SplineSet
227 1095 m 1
 625 659 l 1
 625 480 l 1
 225 43 l 1
 63 199 l 1
 362 571 l 1
 266 694 158 830 63 952 c 1
 227 1095 l 1
676 1095 m 1
 1076 660 l 1
 1076 479 l 1
 674 42 l 1
 513 199 l 1
 812 571 l 1
 513 953 l 1
 676 1095 l 1
EndSplineSet
EndChar

StartChar: ellipsis
Encoding: 8230 8230 171
Width: 1229
Flags: MW
HStem: -45 21G<187.5 232.5 575.5 621 965.5 1011> -45 350<187.5 232.5 575.5 621 965.5 1011>
VStem: 35 1128<107.5 155>
LayerCount: 2
Fore
SplineSet
210 -45 m 0xa0
 165 -45 124 -27 87 8 c 0
 51 43 35 84 35 131 c 0
 35 179 51 218 87 252 c 0
 123 288 165 305 210 305 c 0
 255 305 296 288 331 252 c 0x60
 366 219 384 178 384 131 c 0
 384 84 366 43 331 8 c 0
 296 -27 255 -45 210 -45 c 0xa0
598 -45 m 0
 553 -45 512 -27 477 8 c 0
 441 43 424 84 424 131 c 0
 424 179 441 219 477 252 c 0
 512 288 553 305 598 305 c 0
 644 305 685 288 720 252 c 1
 720 253 l 1x60
 756 219 774 178 774 131 c 0
 774 83 756 43 720 8 c 0
 685 -27 644 -45 598 -45 c 0
988 -45 m 0
 943 -45 901 -27 866 8 c 0
 830 43 813 84 813 131 c 0
 813 179 830 219 866 252 c 0
 901 288 943 305 988 305 c 0
 1034 305 1075 288 1110 252 c 0x60
 1145 219 1163 179 1163 131 c 0
 1163 84 1145 43 1110 8 c 0
 1075 -27 1034 -45 988 -45 c 0
EndSplineSet
EndChar

StartChar: Agrave
Encoding: 192 192 173
Width: 1229
Flags: MW
HStem: 0 21G<-5 260 -5 -5 921 921 921 1205> 324 225<359 753 429 753 429 821> 1532 20G<472 724 724 724>
VStem: -5 1210<0 0>
LayerCount: 2
Fore
SplineSet
359 324 m 1
 260 0 l 1
 -5 0 l 1
 472 1552 l 1
 724 1552 l 1
 1205 0 l 1
 921 0 l 1
 821 324 l 1
 359 324 l 1
592 1064 m 1
 592 1061 l 1
 592 1064 l 1
587 1058 m 1
 429 549 l 1
 753 549 l 1
 698 722 648 885 593 1058 c 1
 593 1059 l 2
 592 1060 592 1060 592 1061 c 1
 593 1060 592 1061 590 1067 c 2
 590 1067 591 1065 592 1064 c 1
 591 1067 590 1067 590 1067 c 1
 590 1069 l 1
 587 1058 l 1
577 2044 m 1
 927 1658 l 1
 662 1658 l 1
 256 2044 l 1
 577 2044 l 1
EndSplineSet
EndChar

StartChar: Atilde
Encoding: 195 195 174
Width: 1229
Flags: MW
HStem: 0 21G<-5 260 -5 -5 921 921 921 1205> 324 225<359 753 429 753 429 821> 1532 20G<472 724 724 724> 1657 210<733.5 747.5 733.5 762> 1658 320<411 456 260 495>
VStem: 260 196<1658 1688.5 1658 1768> 821 138
LayerCount: 2
Fore
SplineSet
359 324 m 1xee
 260 0 l 1
 -5 0 l 1
 472 1552 l 1
 724 1552 l 1
 1205 0 l 1
 921 0 l 1
 821 324 l 1
 359 324 l 1xee
592 1064 m 1
 592 1061 l 1
 592 1064 l 1
587 1058 m 1
 429 549 l 1
 753 549 l 1
 698 722 648 885 593 1058 c 1
 593 1059 l 2
 592 1060 592 1060 592 1061 c 1
 593 1060 592 1061 590 1067 c 2
 590 1067 591 1065 592 1064 c 1
 591 1067 590 1067 590 1067 c 1
 590 1069 l 1
 587 1058 l 1
456 1658 m 1
 260 1658 l 1
 260 1878 351 1978 471 1978 c 0
 519 1978 565 1965 610 1934 c 1
 609 1934 l 1
 649 1911 l 2
 696 1882 726 1867 741 1867 c 0xee
 754 1867 759 1904 759 1978 c 1
 959 1978 l 1
 953 1885 942 1817 927 1783 c 0
 913 1749 886 1718 853 1694 c 0
 820 1670 783 1657 741 1657 c 0
 693 1657 638 1676 586 1709 c 2
 544 1736 l 1
 521 1752 l 2
 505 1763 490 1769 481 1769 c 0
 478 1769 472 1765 466 1759 c 0xf6
 459 1752 456 1719 456 1658 c 1
EndSplineSet
EndChar

StartChar: Otilde
Encoding: 213 213 175
Width: 1229
Flags: MW
HStem: -45 225<560.5 636 560.5 690> 1372 224<560 636.5> 1657 210<724.5 738.5 724.5 753> 1658 320<402 447 251 486>
VStem: 44 269<677.5 877 677.5 898> 251 196<1658 1688.5 1658 1768> 750 200<1941 1978> 884 269<673.5 877>
LayerCount: 2
Fore
SplineSet
598 -45 m 0xd5
 418 -45 278 31 182 183 c 0
 90 331 44 528 44 776 c 0xd9
 44 1020 91 1221 182 1367 c 0
 277 1516 419 1596 598 1596 c 0
 781 1596 919 1520 1016 1367 c 0
 1107 1220 1153 1023 1153 776 c 0
 1153 528 1107 331 1016 183 c 0
 919 31 782 -45 598 -45 c 0xd5
598 180 m 0
 674 180 744 232 797 319 c 1
 797 318 l 1
 853 418 884 571 884 776 c 0
 884 978 852 1134 797 1233 c 1
 744 1320 675 1372 598 1372 c 0
 522 1372 452 1320 400 1233 c 0
 345 1134 313 978 313 776 c 0
 313 579 348 418 400 318 c 1xd9
 452 233 523 180 598 180 c 0
447 1658 m 1
 251 1658 l 1
 251 1878 342 1978 462 1978 c 0
 510 1978 556 1965 601 1934 c 1
 600 1934 l 1xd5
 640 1911 l 2
 687 1882 717 1867 732 1867 c 0
 745 1867 750 1904 750 1978 c 1
 950 1978 l 1
 944 1885 933 1817 918 1783 c 0
 904 1749 877 1718 844 1694 c 0
 811 1670 774 1657 732 1657 c 0
 684 1657 629 1676 577 1709 c 2
 535 1736 l 1
 512 1752 l 2xe6
 496 1763 481 1769 472 1769 c 0
 469 1769 463 1765 457 1759 c 0
 450 1752 447 1719 447 1658 c 1
EndSplineSet
EndChar

StartChar: OE
Encoding: 338 338 176
Width: 1229
Flags: MW
HStem: -30 21G<426.5 474> 0 195<445 1178 445 581> 0 240<833 1178 833 1178> 671 224<833 1149 833 1149> 1327 225<833 1165 833 833> 1357 195<444 1165> 1561 20G<432 482.5>
VStem: 10 270<717.5 866.5 702.5 874.5> 578 255<533 671 895 1010 1010 1089.5>
LayerCount: 2
Fore
SplineSet
1178 240 m 1x3880
 1178 0 l 1
 581 0 l 1x3880
 559 -14 541 -22 524 -24 c 0
 505 -28 480 -30 468 -30 c 0
 385 -30 307 2 232 68 c 0
 158 135 103 232 66 367 c 0
 29 497 10 640 10 795 c 0
 10 954 31 1101 71 1222 c 0
 111 1344 170 1441 241 1495 c 0
 312 1550 393 1581 471 1581 c 0
 494 1581 519 1578 547 1570 c 0xbb80
 558 1567 571 1561 585 1552 c 1
 1165 1552 l 1
 1165 1327 l 1
 833 1327 l 1
 833 895 l 1
 1149 895 l 1
 1149 671 l 1
 833 671 l 1
 833 240 l 1
 1178 240 l 1x3880
578 533 m 2
 578 1010 l 2
 578 1169 568 1269 546 1310 c 0
 529 1341 506 1357 476 1357 c 0
 412 1357 364 1308 333 1208 c 0
 298 1096 280 953 280 780 c 0
 280 625 297 484 330 360 c 0
 359 250 410 195 480 195 c 0
 510 195 532 210 547 240 c 0x5580
 569 279 578 377 578 533 c 2
EndSplineSet
EndChar

StartChar: oe
Encoding: 339 339 177
Width: 1229
Flags: MW
HStem: -29 21G<312.5 394 840 906> -29 220<389.5 394 887.5 906> 499 199<764 892 892 911 745 1141 745 764> 926 220<811 837.5>
VStem: 45 242<511.5 604 494.5 639> 515 249<497 499 428 593 428 630.5> 892 249
LayerCount: 2
Fore
SplineSet
708 5 m 0xbe
 670 22 636 51 604 94 c 1
 571 45 538 15 501 0 c 1
 502 1 l 1
 456 -18 413 -29 375 -29 c 0
 250 -29 144 51 87 251 c 1
 87 250 l 1
 59 347 45 453 45 570 c 0
 45 708 71 838 120 955 c 0
 173 1079 267 1146 396 1146 c 0
 493 1146 564 1113 618 1030 c 1
 676 1111 747 1146 836 1146 c 0
 921 1146 995 1103 1055 1024 c 1
 1107 946 1141 796 1141 595 c 2
 1141 499 l 1
 764 499 l 1
 764 480 l 2
 764 376 771 308 784 273 c 1
 783 274 l 1
 795 245 812 225 832 211 c 0
 851 200 877 191 898 191 c 0x7e
 953 191 1034 227 1141 298 c 1
 1141 41 l 1
 1032 -7 943 -29 869 -29 c 0
 811 -29 758 -16 708 5 c 0xbe
515 497 m 2
 515 593 l 2
 515 668 513 721 509 753 c 0
 505 785 497 812 488 841 c 1
 488 840 l 1
 479 865 464 890 448 907 c 0
 434 920 422 927 406 926 c 0
 371 923 343 892 323 832 c 0
 300 758 287 663 287 545 c 0
 287 444 299 358 321 283 c 0
 341 221 371 191 408 191 c 0
 435 191 458 210 478 251 c 0x7e
 503 300 515 383 515 497 c 2
892 690 m 1
 892 679 l 1
 911 698 l 1
 892 698 l 1
 892 690 l 1
764 679 m 1
 764 691 l 1
 764 698 l 1
 745 698 l 1
 764 679 l 1
830 926 m 0
 792 926 765 857 764 698 c 1
 892 698 l 1
 891 802 883 867 869 895 c 1
 870 894 l 1
 858 914 845 926 830 926 c 0
EndSplineSet
EndChar

StartChar: endash
Encoding: 8211 8211 178
Width: 1229
Flags: MW
HStem: 502 224<44 1153 44 1153>
VStem: 44 1109<502 726 502 726>
LayerCount: 2
Fore
SplineSet
1153 502 m 1
 44 502 l 1
 44 726 l 1
 1153 726 l 1
 1153 502 l 1
EndSplineSet
EndChar

StartChar: emdash
Encoding: 8212 8212 179
Width: 1229
Flags: MW
HStem: 502 195<44 1153 44 1153>
VStem: 44 1109<502 697 502 697>
LayerCount: 2
Fore
SplineSet
1153 502 m 1
 44 502 l 1
 44 697 l 1
 1153 697 l 1
 1153 502 l 1
EndSplineSet
EndChar

StartChar: quotedblleft
Encoding: 8220 8220 180
Width: 1229
Flags: MW
HStem: 870 777<349.5 586 586 873>
VStem: 148 903<1121 1647>
LayerCount: 2
Fore
SplineSet
1051 1647 m 1
 1051 1455 l 1
 949 1428 909 1390 885 1331 c 0
 876 1312 871 1285 869 1258 c 1
 921 1250 959 1228 987 1195 c 0
 1021 1155 1040 1110 1040 1065 c 0
 1040 1007 1021 962 982 924 c 0
 944 889 899 870 847 870 c 0
 780 870 725 896 678 951 c 0
 633 1006 612 1077 612 1166 c 0
 612 1318 684 1455 795 1550 c 0
 853 1599 940 1631 1051 1647 c 1
586 1647 m 1
 586 1455 l 1
 486 1428 446 1390 420 1331 c 1
 421 1331 l 1
 412 1310 406 1284 404 1258 c 1
 456 1251 495 1229 524 1195 c 0
 557 1154 575 1111 575 1065 c 0
 575 1007 556 962 517 924 c 0
 480 889 435 870 382 870 c 0
 317 870 262 897 215 951 c 0
 169 1006 148 1076 148 1166 c 0
 148 1318 219 1455 330 1550 c 0
 389 1599 475 1631 586 1647 c 1
EndSplineSet
EndChar

StartChar: quotedblright
Encoding: 8221 8221 181
Width: 1229
Flags: MW
HStem: 864 777<148 383.5 326.5 612>
VStem: 148 903<864 1388 1056 1388>
LayerCount: 2
Fore
SplineSet
148 864 m 1
 148 1056 l 1
 245 1081 286 1120 310 1178 c 0
 320 1201 326 1225 329 1253 c 1
 276 1260 238 1279 209 1313 c 0
 176 1354 158 1398 158 1445 c 0
 158 1501 177 1548 216 1584 c 1
 216 1583 l 1
 255 1621 301 1641 352 1641 c 0
 415 1641 472 1612 518 1558 c 0
 562 1504 586 1432 586 1344 c 0
 586 1194 513 1054 401 959 c 0
 343 912 259 880 148 864 c 1
612 864 m 1
 612 1056 l 1
 709 1081 751 1119 775 1178 c 0
 785 1201 791 1225 794 1253 c 1
 741 1260 703 1279 674 1313 c 0
 641 1354 623 1398 623 1445 c 0
 623 1499 642 1546 680 1583 c 0
 719 1621 765 1641 816 1641 c 0
 880 1641 937 1612 983 1558 c 0
 1026 1504 1051 1432 1051 1344 c 0
 1051 1194 978 1054 866 959 c 0
 808 912 724 880 612 864 c 1
EndSplineSet
EndChar

StartChar: quoteleft
Encoding: 8216 8216 182
Width: 1229
Flags: MW
HStem: 870 777<581 818>
VStem: 380 438<1121 1647>
LayerCount: 2
Fore
SplineSet
818 1647 m 1
 818 1455 l 1
 718 1428 678 1390 652 1331 c 1
 653 1331 l 1
 644 1310 638 1284 636 1258 c 1
 688 1251 726 1229 756 1195 c 0
 789 1154 807 1111 807 1065 c 0
 807 1007 788 962 749 924 c 0
 712 889 667 870 614 870 c 0
 548 870 494 897 447 951 c 0
 401 1006 380 1076 380 1166 c 0
 380 1318 451 1455 562 1550 c 0
 620 1599 707 1631 818 1647 c 1
EndSplineSet
EndChar

StartChar: quoteright
Encoding: 8217 8217 183
Width: 1229
Flags: MW
HStem: 864 777<380 615.5>
VStem: 380 438<864 1388 1056 1388>
LayerCount: 2
Fore
SplineSet
380 864 m 1
 380 1056 l 1
 478 1081 518 1120 542 1178 c 0
 552 1201 558 1225 561 1253 c 1
 508 1260 470 1279 441 1313 c 0
 408 1354 390 1398 390 1445 c 0
 390 1501 409 1548 448 1584 c 1
 448 1583 l 1
 487 1621 533 1641 584 1641 c 0
 647 1641 704 1612 750 1558 c 0
 794 1504 818 1432 818 1344 c 0
 818 1194 745 1054 633 959 c 0
 575 912 491 880 380 864 c 1
EndSplineSet
EndChar

StartChar: divide
Encoding: 247 247 184
Width: 1229
Flags: MW
HStem: 442 225<44 1153 44 1153>
VStem: 44 1109<442 667 442 667>
LayerCount: 2
Fore
SplineSet
598 738 m 0
 553 738 512 755 477 790 c 0
 441 825 424 866 424 912 c 0
 424 958 441 998 477 1035 c 0
 512 1070 553 1087 598 1087 c 0
 644 1087 685 1070 720 1035 c 0
 756 999 774 958 774 912 c 0
 774 865 756 825 720 790 c 0
 685 755 644 738 598 738 c 0
44 667 m 1
 1153 667 l 1
 1153 442 l 1
 44 442 l 1
 44 667 l 1
598 21 m 0
 553 21 512 39 477 74 c 0
 441 109 424 150 424 197 c 0
 424 246 441 286 477 319 c 0
 512 355 552 371 598 371 c 0
 645 371 685 355 720 319 c 1
 720 320 l 1
 756 286 774 245 774 197 c 0
 774 149 756 109 720 74 c 0
 685 39 644 21 598 21 c 0
EndSplineSet
EndChar

StartChar: lozenge
Encoding: 9674 9674 185
Width: 1229
Flags: MW
HStem: -27 21G<598 598> 1559 20G<598 598>
VStem: 37 1124<776 776>
LayerCount: 2
Fore
SplineSet
1161 776 m 1
 598 -27 l 1
 37 776 l 1
 598 1579 l 1
 1161 776 l 1
306 774 m 1
 598 354 l 1
 684 477 772 601 857 724 c 1
 856 724 l 1
 869 745 878 755 892 775 c 1
 851 833 807 891 766 949 c 2
 598 1182 l 1
 533 1092 478 1014 414 925 c 2
 306 774 l 1
EndSplineSet
EndChar

StartChar: ydieresis
Encoding: 255 255 186
Width: 1229
Flags: MW
HStem: -434 220<184.5 254.5 184.5 274> 1097 20G<24 300 300 300 952 1210 1210 1210>
VStem: 24 1186<1117 1117>
LayerCount: 2
Fore
SplineSet
513 53 m 2
 524 78 l 1
 24 1117 l 1
 300 1117 l 1
 655 392 l 1
 704 513 755 636 804 755 c 0
 850 870 906 1003 952 1117 c 1
 1210 1117 l 1
 784 97 l 2
 704 -95 607 -252 531 -324 c 1
 448 -395 339 -434 209 -434 c 0
 153 -434 93 -428 29 -413 c 1
 29 -179 l 1
 106 -203 164 -214 205 -214 c 0
 304 -214 377 -181 441 -83 c 0
 476 -30 499 15 513 53 c 2
441 1224 m 0
 398 1224 362 1239 330 1269 c 0
 299 1300 284 1337 284 1380 c 0
 284 1425 299 1461 331 1491 c 0
 364 1522 400 1536 441 1536 c 0
 482 1536 517 1522 550 1491 c 0
 581 1461 597 1425 597 1380 c 0
 597 1336 581 1300 550 1270 c 0
 520 1239 484 1224 441 1224 c 0
854 1224 m 0
 811 1224 775 1239 743 1269 c 0
 712 1300 696 1336 696 1380 c 0
 696 1425 712 1461 743 1491 c 0
 776 1522 813 1536 854 1536 c 0
 895 1536 930 1522 963 1491 c 1
 963 1492 l 1
 995 1461 1010 1425 1010 1380 c 0
 1010 1336 995 1300 963 1269 c 1
 963 1270 l 1
 932 1239 895 1224 854 1224 c 0
EndSplineSet
EndChar

StartChar: Ydieresis
Encoding: 376 376 187
Width: 1229
Flags: MW
HStem: 0 21G<465 734 465 465> 1532 20G<-2 303 303 303 916 1201 1201 1201>
VStem: 465 269<0 710>
LayerCount: 2
Fore
SplineSet
734 0 m 1
 465 0 l 1
 465 711 l 1
 -2 1552 l 1
 303 1552 l 1
 610 1005 l 1
 751 1259 l 1
 916 1552 l 1
 1201 1552 l 1
 734 710 l 1
 734 0 l 1
393 1658 m 0
 350 1658 314 1673 282 1703 c 0
 251 1734 236 1771 236 1814 c 0
 236 1859 251 1895 283 1925 c 0
 316 1956 352 1970 393 1970 c 0
 434 1970 469 1956 502 1925 c 0
 533 1895 549 1859 549 1814 c 0
 549 1770 533 1734 502 1704 c 0
 472 1673 436 1658 393 1658 c 0
806 1658 m 0
 763 1658 727 1673 695 1703 c 0
 664 1734 648 1770 648 1814 c 0
 648 1859 664 1895 695 1925 c 0
 728 1956 765 1970 806 1970 c 0
 847 1970 882 1956 915 1925 c 1
 915 1926 l 1
 947 1895 962 1859 962 1814 c 0
 962 1770 947 1734 915 1703 c 1
 915 1704 l 1
 884 1673 847 1658 806 1658 c 0
EndSplineSet
EndChar

StartChar: fraction
Encoding: 8260 8260 188
Width: 1229
Flags: MW
HStem: -45 21G<-54 194 -54 -54> 1576 20G<1004 1254 1254 1254>
VStem: -54 1308
LayerCount: 2
Fore
SplineSet
1254 1596 m 1
 194 -45 l 1
 -54 -45 l 1
 1004 1596 l 1
 1254 1596 l 1
EndSplineSet
EndChar

StartChar: Euro
Encoding: 8364 8364 189
Width: 1229
Flags: MW
HStem: 0 181<668.5 810 668.5 822> 471 181<-40 961 -118 1039> 679 182<-40 1049 -118 1126> 1096 20G<1233 1233> 1150 182<668.5 808>
VStem: 70 182<598 733.5 598 759.5>
LayerCount: 2
Fore
SplineSet
1126 861 m 1
 1049 679 l 1
 -118 679 l 1
 -40 861 l 1
 1126 861 l 1
1039 652 m 1xfc
 961 471 l 1
 -118 471 l 1
 -40 652 l 1
 1039 652 l 1xfc
1182 434 m 1
 1182 163 l 1
 1055 56 908 0 736 0 c 0
 549 0 391 63 263 192 c 0
 135 321 70 479 70 666 c 0
 70 853 135 1011 263 1140 c 0
 391 1267 549 1332 736 1332 c 0
 923 1332 1089 1261 1233 1116 c 1
 1155 932 l 1
 1020 1077 880 1150 736 1150 c 0
 601 1150 487 1104 393 1009 c 0
 299 915 252 801 252 666 c 0
 252 530 299 416 393 322 c 0
 487 228 601 181 736 181 c 0
 884 181 1032 265 1182 434 c 1
EndSplineSet
EndChar

StartChar: guilsinglleft
Encoding: 8249 8249 190
Width: 1229
Flags: MW
HStem: -16 21G<806 806>
VStem: 292 675<148 668 148 668>
LayerCount: 2
Fore
SplineSet
806 -16 m 1
 292 484 l 1
 292 668 l 1
 808 1156 l 1
 967 988 l 1
 558 571 l 1
 967 148 l 1
 806 -16 l 1
EndSplineSet
EndChar

StartChar: guilsinglright
Encoding: 8250 8250 191
Width: 1229
Flags: MW
HStem: -18 21G<389 389>
VStem: 231 675<151 655 471 990>
LayerCount: 2
Fore
SplineSet
391 1154 m 1
 906 655 l 1
 906 471 l 1
 389 -18 l 1
 231 151 l 1
 640 567 l 1
 231 990 l 1
 391 1154 l 1
EndSplineSet
EndChar

StartChar: fi
Encoding: 64257 64257 192
Width: 1229
Flags: MW
HStem: 0 21G<236 485 236 236 844 844 844 1093> 810 220<5 236 5 236 485 844> 1388 221<681.5 761> 1558 20G<1006 1006>
VStem: 236 249<0 810 1030 1041 1041 1059> 844 249<0 810 810 810>
LayerCount: 2
Fore
SplineSet
485 0 m 1xdc
 236 0 l 1
 236 810 l 1
 5 810 l 1
 5 1030 l 1
 236 1030 l 1
 236 1041 l 2
 236 1184 253 1289 286 1361 c 0
 320 1433 376 1494 443 1540 c 0
 514 1585 607 1609 722 1609 c 0xec
 810 1609 905 1599 1006 1578 c 1xdc
 1006 1327 l 1
 885 1367 793 1388 729 1388 c 0xec
 634 1388 557 1351 516 1276 c 1
 516 1277 l 1
 496 1236 485 1161 485 1059 c 2
 485 1030 l 1
 1093 1030 l 1
 1093 0 l 1
 844 0 l 1
 844 810 l 1
 485 810 l 1
 485 0 l 1xdc
EndSplineSet
EndChar

StartChar: fl
Encoding: 64258 64258 193
Width: 1229
Flags: MW
HStem: 0 21G<185 435 185 185 880 880 880 1130> 810 220<-16 185 -16 185 435 819> 1388 221<631.5 706.5> 1560 20G<920 1130 1130 1130>
VStem: 185 250<0 810 1030 1041 1041 1059> 880 250<0 1354 1354 1354>
LayerCount: 2
Fore
SplineSet
435 0 m 1xdc
 185 0 l 1
 185 810 l 1
 -16 810 l 1
 -16 1030 l 1
 185 1030 l 1
 185 1041 l 2
 185 1184 203 1289 236 1361 c 0
 269 1433 325 1494 393 1540 c 0
 464 1585 557 1609 670 1609 c 0xec
 751 1609 836 1600 920 1580 c 1
 1130 1580 l 1xdc
 1130 0 l 1
 880 0 l 1
 880 1354 l 1
 809 1374 734 1388 679 1388 c 0xec
 584 1388 507 1351 465 1276 c 1
 466 1277 l 1
 446 1236 435 1161 435 1059 c 2
 435 1030 l 1
 819 1030 l 1
 819 810 l 1
 435 810 l 1
 435 0 l 1xdc
EndSplineSet
EndChar

StartChar: daggerdbl
Encoding: 8225 8225 194
Width: 1229
Flags: MW
HStem: -4 21G<148 148 1051 1051> 1532 20G<452 750 750 750>
VStem: 452 298<-354 -354> 487 224<264 937 264 938 264 938>
LayerCount: 2
Fore
SplineSet
715 30 m 1xd0
 750 -354 l 1xe0
 452 -354 l 1
 483 30 l 1
 148 -4 l 1
 148 293 l 1
 487 264 l 1
 487 938 l 1xd0
 379 929 254 918 148 911 c 1
 148 1198 l 1
 483 1168 l 1
 474 1292 461 1431 452 1552 c 1xe0
 750 1552 l 1
 715 1169 l 1
 790 1175 l 2
 871 1183 978 1192 1051 1198 c 1
 1051 911 l 1
 711 937 l 1
 711 264 l 1
 818 274 l 2
 890 281 985 289 1051 292 c 1
 1051 -4 l 1
 715 30 l 1xd0
EndSplineSet
EndChar

StartChar: middot
Encoding: 183 183 195
Width: 1229
Flags: MW
HStem: 361 387<570.5 626.5>
VStem: 405 387<530 579.5>
LayerCount: 2
Fore
SplineSet
598 748 m 0
 655 748 701 727 738 688 c 0
 773 651 792 605 792 555 c 0
 792 504 773 458 738 420 c 0
 701 381 655 361 598 361 c 0
 543 361 496 381 459 420 c 0
 422 460 405 505 405 555 c 0
 405 604 423 650 460 687 c 1
 459 687 l 1
 497 728 543 748 598 748 c 0
EndSplineSet
EndChar

StartChar: quotesinglbase
Encoding: 8218 8218 196
Width: 1229
Flags: MW
HStem: -418 21G<380 380> -31 21G
VStem: 380 438<-418 105 -227 105>
LayerCount: 2
Fore
SplineSet
380 -418 m 1
 380 -227 l 1
 478 -202 519 -161 539 -112 c 0
 549 -93 555 -64 559 -31 c 1
 507 -25 469 -4 441 30 c 0
 408 71 390 115 390 163 c 0
 390 219 409 266 448 301 c 1
 448 300 l 1
 487 338 533 358 584 358 c 0
 647 358 704 330 750 275 c 0
 794 221 818 149 818 61 c 0
 815 -160 649 -385 380 -418 c 1
EndSplineSet
EndChar

StartChar: quotedblbase
Encoding: 8222 8222 197
Width: 1229
Flags: MW
HStem: -418 21G<148 148 612 612> -31 21G
VStem: 148 903<-418 105 -227 105>
LayerCount: 2
Fore
SplineSet
148 -418 m 1
 148 -227 l 1
 245 -202 287 -161 307 -112 c 0
 317 -93 323 -64 327 -31 c 1
 275 -25 237 -4 209 30 c 0
 176 71 158 115 158 163 c 0
 158 219 177 266 216 301 c 1
 216 300 l 1
 255 338 301 358 352 358 c 0
 415 358 472 330 518 275 c 0
 562 221 586 149 586 61 c 0
 583 -160 417 -385 148 -418 c 1
612 -418 m 1
 612 -227 l 1
 710 -202 752 -162 772 -112 c 0
 782 -93 788 -64 792 -31 c 1
 740 -25 702 -4 674 30 c 0
 641 71 623 115 623 163 c 0
 623 218 642 265 680 301 c 1
 680 300 l 1
 719 338 765 358 816 358 c 0
 880 358 937 330 983 275 c 0
 1026 221 1051 149 1051 61 c 0
 1048 -160 882 -385 612 -418 c 1
EndSplineSet
EndChar

StartChar: perthousand
Encoding: 8240 8240 198
Width: 1229
Flags: MW
HStem: 0 180<489.5 528 489.5 550.5 901.5 933> 575 181<490 527.5 895 933> 796 180<264 301.5 264 326.5> 1372 180<264 301.5>
VStem: -22 195<1148 1200.5 1148 1231> 205 195<351.5 404.5 351.5 436.5> 391 196<1147 1201> 617 188<351.5 404.5 351.5 405.5> 1023 197<350.5 405.5>
LayerCount: 2
Fore
SplineSet
283 1552 m 0xfd80
 369 1552 443 1517 501 1451 c 0
 554 1386 587 1289 587 1174 c 0
 587 1055 557 961 501 896 c 0
 443 829 370 796 283 796 c 0
 194 796 122 830 63 897 c 0
 6 963 -22 1055 -22 1174 c 0
 -22 1288 11 1385 63 1451 c 1
 121 1515 196 1552 283 1552 c 0xfd80
283 1372 m 0
 245 1372 217 1354 203 1319 c 0
 183 1276 173 1227 173 1174 c 0
 173 1122 185 1069 203 1028 c 0
 218 995 245 976 283 976 c 0
 320 976 347 994 362 1027 c 0
 381 1069 391 1120 391 1174 c 0
 391 1228 382 1277 362 1319 c 0
 347 1354 320 1372 283 1372 c 0
1220 1214 m 1
 -22 402 l 1
 -22 615 l 1
 1220 1431 l 1
 1220 1214 l 1
514 756 m 0
 593 756 660 726 712 671 c 1
 779 743 842 756 915 756 c 0
 1005 756 1078 721 1136 655 c 0
 1193 589 1220 497 1220 378 c 0
 1220 254 1191 160 1135 97 c 0
 1075 32 1004 0 919 0 c 0
 884 0 847 6 805 19 c 0
 774 31 742 53 712 84 c 1
 660 25 593 0 508 0 c 0
 425 0 346 39 289 100 c 1
 237 165 205 262 205 378 c 0
 205 495 232 586 285 652 c 0
 343 721 418 756 514 756 c 0
509 575 m 0
 471 575 442 558 428 524 c 0
 408 481 400 431 400 378 c 0x3a
 400 325 408 275 428 232 c 0
 442 198 470 180 509 180 c 0xfd80
 547 180 574 198 588 231 c 0
 608 273 617 323 617 378 c 0
 617 433 608 482 588 524 c 0x22
 573 558 546 575 509 575 c 0
914 575 m 0
 876 575 849 558 834 524 c 0
 814 481 805 431 805 378 c 0
 805 325 814 275 834 232 c 0
 849 198 876 180 914 180 c 0xfd80
 952 180 980 198 993 231 c 0
 1014 273 1023 323 1023 378 c 0
 1023 433 1014 482 993 524 c 0
 979 558 952 575 914 575 c 0
EndSplineSet
EndChar

StartChar: Acircumflex
Encoding: 194 194 199
Width: 1229
Flags: MW
HStem: 0 21G<-5 260 -5 -5 921 921 921 1205> 324 225<359 753 429 753 429 821> 1532 20G<472 724 724 724> 1658 386<245 677 245 677 521 955 521 714>
VStem: -5 1210<0 0>
LayerCount: 2
Fore
SplineSet
359 324 m 1
 260 0 l 1
 -5 0 l 1
 472 1552 l 1
 724 1552 l 1
 1205 0 l 1
 921 0 l 1
 821 324 l 1
 359 324 l 1
592 1064 m 1
 592 1061 l 1
 592 1064 l 1
587 1058 m 1
 429 549 l 1
 753 549 l 1
 698 722 648 885 593 1058 c 1
 593 1059 l 2
 592 1060 592 1060 592 1061 c 1
 593 1060 592 1061 590 1067 c 2
 590 1067 591 1065 592 1064 c 1
 591 1067 590 1067 590 1067 c 1
 590 1069 l 1
 587 1058 l 1
714 1658 m 1
 599 1796 l 1
 526 1708 l 1
 484 1658 l 1
 245 1658 l 1
 521 2044 l 1
 677 2044 l 1
 955 1658 l 1
 714 1658 l 1
EndSplineSet
EndChar

StartChar: Ecircumflex
Encoding: 202 202 200
Width: 1229
Flags: MW
HStem: 0 240<439 1043 439 1043> 679 224<439 969 439 969> 1327 225<439 1028 439 439> 1658 386<245 677 245 677 521 955 521 714>
VStem: 170 269<240 240 240 679 903 1327>
LayerCount: 2
Fore
SplineSet
439 240 m 1
 1043 240 l 1
 1043 0 l 1
 170 0 l 1
 170 1552 l 1
 1028 1552 l 1
 1028 1327 l 1
 439 1327 l 1
 439 903 l 1
 969 903 l 1
 969 679 l 1
 439 679 l 1
 439 240 l 1
714 1658 m 1
 599 1796 l 1
 526 1708 l 1
 484 1658 l 1
 245 1658 l 1
 521 2044 l 1
 677 2044 l 1
 955 1658 l 1
 714 1658 l 1
EndSplineSet
EndChar

StartChar: Aacute
Encoding: 193 193 201
Width: 1229
Flags: MW
HStem: 0 21G<-5 260 -5 -5 921 921 921 1205> 324 225<359 753 429 753 429 821> 1532 20G<472 724 724 724> 1658 386<266 938 266 938>
VStem: -5 1210<0 0>
LayerCount: 2
Fore
SplineSet
359 324 m 1
 260 0 l 1
 -5 0 l 1
 472 1552 l 1
 724 1552 l 1
 1205 0 l 1
 921 0 l 1
 821 324 l 1
 359 324 l 1
592 1064 m 1
 592 1061 l 1
 592 1064 l 1
587 1058 m 1
 429 549 l 1
 753 549 l 1
 698 722 648 885 593 1058 c 1
 593 1059 l 2
 592 1060 592 1060 592 1061 c 1
 593 1060 592 1061 590 1067 c 2
 590 1067 591 1065 592 1064 c 1
 591 1067 590 1067 590 1067 c 1
 590 1069 l 1
 587 1058 l 1
533 1658 m 1
 266 1658 l 1
 617 2044 l 1
 938 2044 l 1
 533 1658 l 1
EndSplineSet
EndChar

StartChar: Edieresis
Encoding: 203 203 202
Width: 1229
Flags: MW
HStem: 0 240<439 1043 439 1043> 679 224<439 969 439 969> 1327 225<439 1028 439 439>
VStem: 170 269<240 240 240 679 903 1327>
LayerCount: 2
Fore
SplineSet
439 240 m 1
 1043 240 l 1
 1043 0 l 1
 170 0 l 1
 170 1552 l 1
 1028 1552 l 1
 1028 1327 l 1
 439 1327 l 1
 439 903 l 1
 969 903 l 1
 969 679 l 1
 439 679 l 1
 439 240 l 1
401 1658 m 0
 358 1658 322 1673 290 1703 c 0
 259 1734 244 1771 244 1814 c 0
 244 1859 259 1895 291 1925 c 0
 324 1956 360 1970 401 1970 c 0
 442 1970 477 1956 510 1925 c 0
 541 1895 557 1859 557 1814 c 0
 557 1770 541 1734 510 1704 c 0
 480 1673 444 1658 401 1658 c 0
814 1658 m 0
 771 1658 735 1673 703 1703 c 0
 672 1734 656 1770 656 1814 c 0
 656 1859 672 1895 703 1925 c 0
 736 1956 773 1970 814 1970 c 0
 855 1970 890 1956 923 1925 c 1
 923 1926 l 1
 955 1895 970 1859 970 1814 c 0
 970 1770 955 1734 923 1703 c 1
 923 1704 l 1
 892 1673 855 1658 814 1658 c 0
EndSplineSet
EndChar

StartChar: Egrave
Encoding: 200 200 203
Width: 1229
Flags: MW
HStem: 0 240<439 1043 439 1043> 679 224<439 969 439 969> 1327 225<439 1028 439 439>
VStem: 170 269<240 240 240 679 903 1327>
LayerCount: 2
Fore
SplineSet
439 240 m 1
 1043 240 l 1
 1043 0 l 1
 170 0 l 1
 170 1552 l 1
 1028 1552 l 1
 1028 1327 l 1
 439 1327 l 1
 439 903 l 1
 969 903 l 1
 969 679 l 1
 439 679 l 1
 439 240 l 1
588 2044 m 1
 938 1658 l 1
 673 1658 l 1
 267 2044 l 1
 588 2044 l 1
EndSplineSet
EndChar

StartChar: Iacute
Encoding: 205 205 204
Width: 1229
Flags: MW
HStem: 0 224<140 464 733 1058 140 464> 1327 225<140 464 140 1058 733 733 733 1058> 1658 386<269 941 269 941>
VStem: 464 269<224 1327 224 1327>
LayerCount: 2
Fore
SplineSet
1058 0 m 1
 140 0 l 1
 140 224 l 1
 464 224 l 1
 464 1327 l 1
 140 1327 l 1
 140 1552 l 1
 1058 1552 l 1
 1058 1327 l 1
 733 1327 l 1
 733 224 l 1
 1058 224 l 1
 1058 0 l 1
536 1658 m 1
 269 1658 l 1
 620 2044 l 1
 941 2044 l 1
 536 1658 l 1
EndSplineSet
EndChar

StartChar: Icircumflex
Encoding: 206 206 205
Width: 1229
Flags: MW
HStem: 0 224<140 464 733 1058 140 464> 1327 225<140 464 140 1058 733 733 733 1058> 1658 386<245 677 245 677 521 955 521 714>
VStem: 464 269<224 1327 224 1327>
LayerCount: 2
Fore
SplineSet
1058 0 m 1
 140 0 l 1
 140 224 l 1
 464 224 l 1
 464 1327 l 1
 140 1327 l 1
 140 1552 l 1
 1058 1552 l 1
 1058 1327 l 1
 733 1327 l 1
 733 224 l 1
 1058 224 l 1
 1058 0 l 1
714 1658 m 1
 599 1796 l 1
 526 1708 l 1
 484 1658 l 1
 245 1658 l 1
 521 2044 l 1
 677 2044 l 1
 955 1658 l 1
 714 1658 l 1
EndSplineSet
EndChar

StartChar: Idieresis
Encoding: 207 207 206
Width: 1229
Flags: MW
HStem: 0 224<140 464 733 1058 140 464> 1327 225<140 464 140 1058 733 733 733 1058>
VStem: 464 269<224 1327 224 1327>
LayerCount: 2
Fore
SplineSet
1058 0 m 1
 140 0 l 1
 140 224 l 1
 464 224 l 1
 464 1327 l 1
 140 1327 l 1
 140 1552 l 1
 1058 1552 l 1
 1058 1327 l 1
 733 1327 l 1
 733 224 l 1
 1058 224 l 1
 1058 0 l 1
393 1658 m 0
 350 1658 314 1673 282 1703 c 0
 251 1734 236 1771 236 1814 c 0
 236 1859 251 1895 283 1925 c 0
 316 1956 352 1970 393 1970 c 0
 434 1970 469 1956 502 1925 c 0
 533 1895 549 1859 549 1814 c 0
 549 1770 533 1734 502 1704 c 0
 472 1673 436 1658 393 1658 c 0
806 1658 m 0
 763 1658 727 1673 695 1703 c 0
 664 1734 648 1770 648 1814 c 0
 648 1859 664 1895 695 1925 c 0
 728 1956 765 1970 806 1970 c 0
 847 1970 882 1956 915 1925 c 1
 915 1926 l 1
 947 1895 962 1859 962 1814 c 0
 962 1770 947 1734 915 1703 c 1
 915 1704 l 1
 884 1673 847 1658 806 1658 c 0
EndSplineSet
EndChar

StartChar: Igrave
Encoding: 204 204 207
Width: 1229
Flags: MW
HStem: 0 224<140 464 733 1058 140 464> 1327 225<140 464 140 1058 733 733 733 1058>
VStem: 464 269<224 1327 224 1327>
LayerCount: 2
Fore
SplineSet
1058 0 m 1
 140 0 l 1
 140 224 l 1
 464 224 l 1
 464 1327 l 1
 140 1327 l 1
 140 1552 l 1
 1058 1552 l 1
 1058 1327 l 1
 733 1327 l 1
 733 224 l 1
 1058 224 l 1
 1058 0 l 1
580 2044 m 1
 930 1658 l 1
 665 1658 l 1
 259 2044 l 1
 580 2044 l 1
EndSplineSet
EndChar

StartChar: Oacute
Encoding: 211 211 208
Width: 1229
Flags: MW
HStem: -45 225<560.5 636 560.5 690> 1372 224<560 636.5> 1658 386<269 941 269 941>
VStem: 44 269<677.5 877 677.5 898> 884 269<673.5 877>
LayerCount: 2
Fore
SplineSet
598 -45 m 0
 418 -45 278 31 182 183 c 0
 90 331 44 528 44 776 c 0
 44 1020 91 1221 182 1367 c 0
 277 1516 419 1596 598 1596 c 0
 781 1596 919 1520 1016 1367 c 0
 1107 1220 1153 1023 1153 776 c 0
 1153 528 1107 331 1016 183 c 0
 919 31 782 -45 598 -45 c 0
598 180 m 0
 674 180 744 232 797 319 c 1
 797 318 l 1
 853 418 884 571 884 776 c 0
 884 978 852 1134 797 1233 c 1
 744 1320 675 1372 598 1372 c 0
 522 1372 452 1320 400 1233 c 0
 345 1134 313 978 313 776 c 0
 313 579 348 418 400 318 c 1
 452 233 523 180 598 180 c 0
536 1658 m 1
 269 1658 l 1
 620 2044 l 1
 941 2044 l 1
 536 1658 l 1
EndSplineSet
EndChar

StartChar: Ocircumflex
Encoding: 212 212 209
Width: 1229
Flags: MW
HStem: -45 225<560.5 636 560.5 690> 1372 224<560 636.5> 1658 386<245 677 245 677 521 955 521 714>
VStem: 44 269<677.5 877 677.5 898> 884 269<673.5 877>
LayerCount: 2
Fore
SplineSet
598 -45 m 0
 418 -45 278 31 182 183 c 0
 90 331 44 528 44 776 c 0
 44 1020 91 1221 182 1367 c 0
 277 1516 419 1596 598 1596 c 0
 781 1596 919 1520 1016 1367 c 0
 1107 1220 1153 1023 1153 776 c 0
 1153 528 1107 331 1016 183 c 0
 919 31 782 -45 598 -45 c 0
598 180 m 0
 674 180 744 232 797 319 c 1
 797 318 l 1
 853 418 884 571 884 776 c 0
 884 978 852 1134 797 1233 c 1
 744 1320 675 1372 598 1372 c 0
 522 1372 452 1320 400 1233 c 0
 345 1134 313 978 313 776 c 0
 313 579 348 418 400 318 c 1
 452 233 523 180 598 180 c 0
714 1658 m 1
 599 1796 l 1
 526 1708 l 1
 484 1658 l 1
 245 1658 l 1
 521 2044 l 1
 677 2044 l 1
 955 1658 l 1
 714 1658 l 1
EndSplineSet
EndChar

StartChar: apple
Encoding: 63743 63743 210
Width: 1229
Flags: MW
HStem: 0 21G<387.5 432 820 852> 895 42<562 620>
VStem: 57 1104
LayerCount: 2
Fore
SplineSet
1120 847 m 1
 1112 806 l 1
 1017 739 988 677 988 604 c 0
 988 548 1010 500 1044 456 c 0
 1062 435 1103 408 1161 377 c 1
 1136 302 1101 230 1061 172 c 0
 1020 111 981 67 948 43 c 0
 910 17 870 0 834 0 c 0
 806 0 772 8 730 23 c 1
 731 23 l 1
 714 29 l 1
 681 44 l 2
 667 48 646 51 626 51 c 0
 605 51 578 44 551 35 c 1
 552 35 l 1
 527 26 l 1
 499 16 l 1
 500 16 l 1
 475 5 446 0 418 0 c 0
 357 0 296 37 234 114 c 1
 235 114 l 1
 175 186 130 264 101 343 c 0
 72 425 57 508 57 593 c 0
 57 704 90 797 154 873 c 0
 219 949 307 988 419 988 c 0
 458 988 500 979 535 965 c 0
 542 963 554 957 561 955 c 2
 571 950 l 1
 579 947 l 2
 595 940 605 937 614 937 c 0
 626 937 638 941 654 946 c 2
 684 956 l 1
 704 964 l 2
 746 979 792 988 837 988 c 0
 952 988 1047 941 1120 847 c 1
845 1260 m 1
 880 1228 l 2
 880 1226 881 1216 881 1215 c 2
 881 1214 l 2
 882 1207 882 1193 882 1187 c 0
 882 1142 870 1094 843 1047 c 1
 844 1048 l 1
 820 1001 786 965 740 935 c 0
 697 909 638 895 562 895 c 1
 562 896 561 912 561 918 c 0
 559 941 558 956 558 967 c 0
 557 1083 673 1238 819 1256 c 1
 818 1256 l 1
 845 1260 l 1
EndSplineSet
EndChar

StartChar: Ograve
Encoding: 210 210 211
Width: 1229
Flags: MW
HStem: -45 225<560.5 636 560.5 690> 1372 224<560 636.5>
VStem: 44 269<677.5 877 677.5 898> 884 269<673.5 877>
LayerCount: 2
Fore
SplineSet
598 -45 m 0
 418 -45 278 31 182 183 c 0
 90 331 44 528 44 776 c 0
 44 1020 91 1221 182 1367 c 0
 277 1516 419 1596 598 1596 c 0
 781 1596 919 1520 1016 1367 c 0
 1107 1220 1153 1023 1153 776 c 0
 1153 528 1107 331 1016 183 c 0
 919 31 782 -45 598 -45 c 0
598 180 m 0
 674 180 744 232 797 319 c 1
 797 318 l 1
 853 418 884 571 884 776 c 0
 884 978 852 1134 797 1233 c 1
 744 1320 675 1372 598 1372 c 0
 522 1372 452 1320 400 1233 c 0
 345 1134 313 978 313 776 c 0
 313 579 348 418 400 318 c 1
 452 233 523 180 598 180 c 0
580 2044 m 1
 930 1658 l 1
 665 1658 l 1
 259 2044 l 1
 580 2044 l 1
EndSplineSet
EndChar

StartChar: Uacute
Encoding: 218 218 212
Width: 1229
Flags: MW
HStem: -45 224<579 644> 1532 20G<96 365 365 365 848 1101 1101 1101> 1658 386<269 941 269 941>
VStem: 96 269<569 1552> 848 253<620 1552>
LayerCount: 2
Fore
SplineSet
96 569 m 2
 96 1552 l 1
 365 1552 l 1
 365 545 l 2
 365 423 375 340 393 299 c 1
 393 300 l 1
 412 262 440 230 475 211 c 1
 474 212 l 1
 514 190 555 179 603 179 c 0
 698 179 782 230 818 317 c 1
 836 371 848 475 848 620 c 2
 848 1552 l 1
 1101 1552 l 1
 1101 551 l 2
 1101 407 1079 294 1036 211 c 0
 992 129 933 63 862 20 c 0
 790 -19 695 -45 593 -45 c 0
 393 -45 235 31 155 181 c 0
 117 256 96 385 96 569 c 2
536 1658 m 1
 269 1658 l 1
 620 2044 l 1
 941 2044 l 1
 536 1658 l 1
EndSplineSet
EndChar

StartChar: Ucircumflex
Encoding: 219 219 213
Width: 1229
Flags: MW
HStem: -45 224<579 644> 1532 20G<96 365 365 365 848 1101 1101 1101> 1658 386<245 677 245 677 521 955 521 714>
VStem: 96 269<569 1552> 848 253<620 1552>
LayerCount: 2
Fore
SplineSet
96 569 m 2
 96 1552 l 1
 365 1552 l 1
 365 545 l 2
 365 423 375 340 393 299 c 1
 393 300 l 1
 412 262 440 230 475 211 c 1
 474 212 l 1
 514 190 555 179 603 179 c 0
 698 179 782 230 818 317 c 1
 836 371 848 475 848 620 c 2
 848 1552 l 1
 1101 1552 l 1
 1101 551 l 2
 1101 407 1079 294 1036 211 c 0
 992 129 933 63 862 20 c 0
 790 -19 695 -45 593 -45 c 0
 393 -45 235 31 155 181 c 0
 117 256 96 385 96 569 c 2
714 1658 m 1
 599 1796 l 1
 526 1708 l 1
 484 1658 l 1
 245 1658 l 1
 521 2044 l 1
 677 2044 l 1
 955 1658 l 1
 714 1658 l 1
EndSplineSet
EndChar

StartChar: Ugrave
Encoding: 217 217 214
Width: 1229
Flags: MW
HStem: -45 224<579 644> 1532 20G<96 365 365 365 848 1101 1101 1101>
VStem: 96 269<569 1552> 848 253<620 1552>
LayerCount: 2
Fore
SplineSet
96 569 m 2
 96 1552 l 1
 365 1552 l 1
 365 545 l 2
 365 423 375 340 393 299 c 1
 393 300 l 1
 412 262 440 230 475 211 c 1
 474 212 l 1
 514 190 555 179 603 179 c 0
 698 179 782 230 818 317 c 1
 836 371 848 475 848 620 c 2
 848 1552 l 1
 1101 1552 l 1
 1101 551 l 2
 1101 407 1079 294 1036 211 c 0
 992 129 933 63 862 20 c 0
 790 -19 695 -45 593 -45 c 0
 393 -45 235 31 155 181 c 0
 117 256 96 385 96 569 c 2
580 2044 m 1
 930 1658 l 1
 665 1658 l 1
 259 2044 l 1
 580 2044 l 1
EndSplineSet
EndChar

StartChar: dotlessi
Encoding: 305 305 215
Width: 1229
Flags: MW
HStem: 0 220<665 956 665 956> 897 220<127 416 127 665>
VStem: 416 249<220 897 897 897>
LayerCount: 2
Fore
SplineSet
956 0 m 1
 416 0 l 1
 416 897 l 1
 127 897 l 1
 127 1117 l 1
 665 1117 l 1
 665 220 l 1
 956 220 l 1
 956 0 l 1
EndSplineSet
EndChar

StartChar: circumflex
Encoding: 710 710 216
Width: 1229
Flags: MW
HStem: 1224 386<245 677 245 677 521 955 521 714>
VStem: 245 710<1224 1224>
LayerCount: 2
Fore
SplineSet
714 1224 m 1
 599 1362 l 1
 526 1274 l 1
 484 1224 l 1
 245 1224 l 1
 521 1610 l 1
 677 1610 l 1
 955 1224 l 1
 714 1224 l 1
EndSplineSet
EndChar

StartChar: tilde
Encoding: 732 732 217
Width: 1229
Flags: MW
HStem: 1223 210<724.5 738.5 724.5 753> 1223 321<750 753> 1224 320<402 447 251 486>
VStem: 251 196<1224 1254.5 1224 1334> 750 200<1507 1544>
LayerCount: 2
Fore
SplineSet
447 1224 m 1x38
 251 1224 l 1
 251 1444 342 1544 462 1544 c 0
 510 1544 556 1531 601 1500 c 1
 600 1500 l 1x38
 640 1477 l 2
 687 1448 717 1433 732 1433 c 0
 745 1433 750 1470 750 1544 c 1
 950 1544 l 1
 944 1451 933 1383 918 1349 c 0
 904 1315 877 1284 844 1260 c 0
 811 1236 774 1223 732 1223 c 0
 684 1223 629 1242 577 1275 c 2
 535 1302 l 1
 512 1318 l 2x98
 496 1329 481 1335 472 1335 c 0
 469 1335 463 1331 457 1325 c 0
 450 1318 447 1285 447 1224 c 1x38
EndSplineSet
EndChar

StartChar: overscore
Encoding: 175 175 218
Width: 1229
Flags: MW
HStem: 1224 195<295 904 295 904>
VStem: 295 609<1224 1419 1224 1419>
LayerCount: 2
Fore
SplineSet
904 1224 m 1
 295 1224 l 1
 295 1419 l 1
 904 1419 l 1
 904 1224 l 1
EndSplineSet
EndChar

StartChar: breve
Encoding: 728 728 219
Width: 1229
Flags: MW
HStem: 1224 202<600 600>
VStem: 277 645<1610 1610>
LayerCount: 2
Fore
SplineSet
277 1610 m 1
 476 1610 l 1
 483 1546 499 1498 525 1468 c 0
 549 1441 573 1426 600 1426 c 0
 627 1426 652 1441 674 1468 c 1
 673 1468 l 1
 700 1500 716 1549 724 1610 c 1
 922 1610 l 1
 896 1353 744 1231 600 1224 c 1
 458 1231 305 1353 277 1610 c 1
EndSplineSet
EndChar

StartChar: dotaccent
Encoding: 729 729 220
Width: 1229
Flags: MW
HStem: 1299 310<578.5 619.5 578.5 619.5>
VStem: 444 310<1432 1473.5>
LayerCount: 2
Fore
SplineSet
599 1299 m 0
 557 1299 520 1313 490 1343 c 0
 460 1374 444 1411 444 1453 c 0
 444 1494 460 1532 490 1563 c 0
 522 1593 558 1609 599 1609 c 0
 640 1609 676 1593 708 1563 c 0
 739 1532 754 1495 754 1453 c 0
 754 1411 739 1374 709 1343 c 0
 676 1313 640 1299 599 1299 c 0
EndSplineSet
EndChar

StartChar: ring
Encoding: 730 730 221
Width: 1229
Flags: MW
HStem: 1224 165<584.5 612.5 584.5 628.5> 1490 164<584.5 612.5>
VStem: 383 166<1425.5 1452.5 1425.5 1467.5> 648 166<1425.5 1452.5>
LayerCount: 2
Fore
SplineSet
598 1389 m 0
 627 1389 648 1412 648 1439 c 0
 648 1466 627 1490 598 1490 c 0
 571 1490 549 1466 549 1439 c 0
 549 1412 571 1389 598 1389 c 0
598 1224 m 0
 540 1224 488 1246 446 1289 c 0
 404 1333 383 1383 383 1439 c 0
 383 1496 404 1547 446 1590 c 0
 489 1633 541 1654 598 1654 c 0
 659 1654 710 1633 751 1590 c 0
 793 1546 814 1496 814 1439 c 0
 814 1383 793 1333 751 1289 c 0
 710 1246 659 1224 598 1224 c 0
EndSplineSet
EndChar

StartChar: cedilla
Encoding: 184 184 222
Width: 1229
Flags: MW
HStem: -413 159<534.5 624.5> -413 490<560 624.5>
VStem: 398 401<-259 -181>
LayerCount: 2
Fore
SplineSet
541 77 m 1x60
 732 77 l 1
 656 -60 l 1
 706 -75 740 -97 760 -125 c 0
 788 -159 799 -197 799 -236 c 0
 799 -282 782 -323 749 -358 c 0
 713 -395 660 -413 589 -413 c 0
 531 -413 469 -401 399 -375 c 1
 399 -198 l 1
 471 -237 518 -254 551 -254 c 0
 562 -254 576 -250 587 -243 c 0
 594 -238 598 -233 598 -231 c 0
 598 -213 531 -196 398 -181 c 1xa0
 541 77 l 1x60
EndSplineSet
EndChar

StartChar: hungarumlaut
Encoding: 733 733 223
Width: 1229
Flags: MW
HStem: 1224 386<519 545 352 721 610 610 610 721 781 804>
VStem: 352 633<1224 1610>
LayerCount: 2
Fore
SplineSet
721 1610 m 1
 545 1224 l 1
 352 1224 l 1
 519 1610 l 1
 721 1610 l 1
985 1610 m 1
 804 1224 l 1
 610 1224 l 1
 781 1610 l 1
 985 1610 l 1
EndSplineSet
EndChar

StartChar: ogonek
Encoding: 731 731 224
Width: 1229
Flags: MW
HStem: -412 178<657.5 662.5> 15 62<560 799>
VStem: 399 210<-200 -179.5 -200 -161> 399 400<-236.5 -197 -371 -161>
LayerCount: 2
Fore
SplineSet
560 77 m 1xd0
 786 77 l 1
 799 15 l 1
 736 -15 685 -54 653 -96 c 0
 627 -135 609 -170 609 -189 c 0
 609 -211 630 -234 685 -234 c 0
 703 -234 741 -222 799 -197 c 1
 799 -371 l 1
 738 -399 685 -412 640 -412 c 0
 572 -412 515 -395 469 -356 c 0
 422 -317 399 -267 399 -206 c 0xe0
 399 -116 453 -23 560 77 c 1xd0
EndSplineSet
EndChar

StartChar: caron
Encoding: 711 711 225
Width: 1229
Flags: MW
HStem: 1224 386<245 677 245 521>
VStem: 245 710<1610 1610>
LayerCount: 2
Fore
SplineSet
484 1610 m 1
 599 1472 l 1
 714 1610 l 1
 955 1610 l 1
 677 1224 l 1
 521 1224 l 1
 245 1610 l 1
 484 1610 l 1
EndSplineSet
EndChar

StartChar: Lslash
Encoding: 321 321 226
Width: 1229
Flags: MW
HStem: 0 240<452 1057 452 1057> 1532 20G<183 452 452 452>
VStem: 183 269<240 240 240 645 645 645 981 1552>
LayerCount: 2
Fore
SplineSet
452 240 m 1
 1057 240 l 1
 1057 0 l 1
 183 0 l 1
 183 645 l 1
 -24 571 l 1
 -24 806 l 1
 183 883 l 1
 183 1552 l 1
 452 1552 l 1
 452 981 l 1
 521 1005 599 1033 666 1056 c 1
 666 819 l 1
 452 744 l 1
 452 240 l 1
EndSplineSet
EndChar

StartChar: lslash
Encoding: 322 322 227
Width: 1229
Flags: MW
HStem: 0 220<651 977 651 977> 1359 221<90 402 90 651>
VStem: 402 249<220 628 628 628 964 1359 1359 1359>
LayerCount: 2
Fore
SplineSet
977 0 m 1
 402 0 l 1
 402 628 l 1
 304 591 185 547 90 511 c 1
 90 748 l 1
 402 869 l 1
 402 1359 l 1
 90 1359 l 1
 90 1580 l 1
 651 1580 l 1
 651 964 l 1
 755 1003 877 1050 977 1088 c 1
 977 851 l 1
 651 725 l 1
 651 220 l 1
 977 220 l 1
 977 0 l 1
EndSplineSet
EndChar

StartChar: Scaron
Encoding: 352 352 228
Width: 1229
Flags: MW
HStem: -45 225<520 603.5 520 636.5> 1372 224<608 693.5> 1658 386<245 677 245 521>
VStem: 141 268<1164.5 1214 1164.5 1223.5> 835 120
LayerCount: 2
Fore
SplineSet
126 43 m 1
 126 312 l 1
 311 224 461 180 579 180 c 0
 628 180 671 188 713 207 c 0
 753 222 784 249 803 279 c 0
 823 311 835 345 835 379 c 0
 835 422 819 462 792 500 c 0
 763 537 692 592 614 639 c 2
 577 660 l 1
 517 695 l 2
 486 714 450 732 419 751 c 0
 234 860 141 999 141 1164 c 0
 141 1283 185 1388 268 1470 c 0
 354 1550 486 1596 656 1596 c 0
 767 1596 881 1576 999 1540 c 1
 999 1292 l 1
 862 1344 743 1372 644 1372 c 0
 572 1372 514 1353 471 1316 c 0
 430 1281 409 1239 409 1189 c 0
 409 1140 425 1099 456 1067 c 0
 493 1028 539 993 597 962 c 2
 671 917 l 1
 762 861 l 1
 840 815 l 2
 1016 709 1103 573 1103 410 c 0
 1103 287 1057 179 966 90 c 0
 875 0 733 -45 540 -45 c 0
 479 -45 417 -39 366 -29 c 0
 315 -19 233 4 126 43 c 1
484 2044 m 1
 599 1906 l 1
 714 2044 l 1
 955 2044 l 1
 677 1658 l 1
 521 1658 l 1
 245 2044 l 1
 484 2044 l 1
EndSplineSet
EndChar

StartChar: scaron
Encoding: 353 353 229
Width: 1229
Flags: MW
HStem: -29 220<569.5 634.5 569.5 668.5> 926 220<587.5 668> 1224 386<252 684 252 528>
VStem: 140 922<267 348 348 348>
LayerCount: 2
Fore
SplineSet
140 67 m 1
 140 348 l 1
 247 276 336 234 407 216 c 1
 406 217 l 1
 481 201 543 191 596 191 c 0
 673 191 731 204 763 226 c 0
 790 247 805 274 805 302 c 0
 805 321 799 336 788 349 c 1
 788 348 l 1
 773 363 732 385 667 411 c 1
 668 411 l 1
 609 435 l 1
 488 483 l 2
 368 531 264 589 228 634 c 0
 191 682 169 746 169 814 c 0
 169 910 205 991 281 1053 c 0
 354 1114 470 1146 627 1146 c 0
 740 1146 858 1127 982 1086 c 1
 982 847 l 1
 835 900 715 926 621 926 c 0
 554 926 504 914 468 892 c 0
 440 875 425 853 425 828 c 0
 425 804 437 786 461 771 c 0
 493 752 551 725 627 698 c 2
 709 668 l 1
 708 668 l 1
 744 655 l 2
 856 614 936 568 985 517 c 0
 1037 463 1062 397 1062 319 c 0
 1062 215 1023 133 944 68 c 0
 868 4 749 -29 588 -29 c 0
 449 -29 300 3 140 67 c 1
491 1610 m 1
 606 1472 l 1
 721 1610 l 1
 962 1610 l 1
 684 1224 l 1
 528 1224 l 1
 252 1610 l 1
 491 1610 l 1
EndSplineSet
EndChar

StartChar: Zcaron
Encoding: 381 381 230
Width: 1229
Flags: MW
HStem: 0 240<420 1105 420 1105> 1327 225<115 764 115 1092> 1658 386<245 677 245 521>
VStem: 92 1013<0 211 211 211>
LayerCount: 2
Fore
SplineSet
1105 0 m 1
 92 0 l 1
 92 211 l 1
 764 1327 l 1
 115 1327 l 1
 115 1552 l 1
 1092 1552 l 1
 1092 1356 l 1
 420 240 l 1
 1105 240 l 1
 1105 0 l 1
484 2044 m 1
 599 1906 l 1
 714 2044 l 1
 955 2044 l 1
 677 1658 l 1
 521 1658 l 1
 245 2044 l 1
 484 2044 l 1
EndSplineSet
EndChar

StartChar: zcaron
Encoding: 382 382 231
Width: 1229
Flags: MW
HStem: 0 236<453 1071 453 1071> 897 220<121 700 121 1050> 1224 386<245 677 245 521>
VStem: 107 964<0 210 210 210>
LayerCount: 2
Fore
SplineSet
1071 0 m 1
 107 0 l 1
 107 210 l 1
 700 897 l 1
 121 897 l 1
 121 1117 l 1
 1050 1117 l 1
 1050 921 l 1
 453 236 l 1
 1071 236 l 1
 1071 0 l 1
484 1610 m 1
 599 1472 l 1
 714 1610 l 1
 955 1610 l 1
 677 1224 l 1
 521 1224 l 1
 245 1610 l 1
 484 1610 l 1
EndSplineSet
EndChar

StartChar: brokenbar
Encoding: 166 166 232
Width: 1229
Flags: MW
HStem: -45 21G<483 715 483 483> 1576 20G<483 715 715 715>
VStem: 483 232<-45 726 826 1596>
LayerCount: 2
Fore
SplineSet
715 -45 m 1
 483 -45 l 1
 483 726 l 1
 715 726 l 1
 715 -45 l 1
715 826 m 1
 483 826 l 1
 483 1596 l 1
 715 1596 l 1
 715 826 l 1
EndSplineSet
EndChar

StartChar: Eth
Encoding: 208 208 233
Width: 1229
Flags: MW
HStem: 0 240<394 484 484 546.5 394 553> 679 224<-22 125 -22 125 394 629> 1327 225<394 498 394 394>
VStem: 125 269<240 679 240 679 240 679 903 1327> 878 268<731.5 852.5 695.5 871.5>
LayerCount: 2
Fore
SplineSet
553 0 m 2
 125 0 l 1
 125 679 l 1
 -22 679 l 1
 -22 903 l 1
 125 903 l 1
 125 1552 l 1
 513 1552 l 2
 693 1552 822 1526 898 1471 c 0
 974 1417 1036 1327 1080 1199 c 0
 1124 1074 1146 933 1146 772 c 0
 1146 619 1124 485 1080 366 c 0
 1036 244 975 152 900 92 c 1
 901 93 l 1
 825 30 709 0 553 0 c 2
394 679 m 1
 394 240 l 1
 484 240 l 2
 609 240 697 258 740 291 c 1
 739 290 l 1
 781 325 816 384 840 465 c 0
 864 549 878 661 878 802 c 0
 878 941 864 1047 840 1123 c 0
 816 1195 783 1247 743 1280 c 1
 744 1279 l 1
 704 1310 623 1327 498 1327 c 2
 394 1327 l 1
 394 903 l 1
 629 903 l 1
 629 679 l 1
 394 679 l 1
EndSplineSet
EndChar

StartChar: eth
Encoding: 240 240 234
Width: 1229
Flags: MW
HStem: -29 220<554 633 554 676.5> 868 220<553.5 597.5 533 634> 1359 221<143 204 143 212> 1531 20G<939 939>
VStem: 64 256<481.5 579.5 481.5 648> 867 256<513.5 580>
LayerCount: 2
Fore
SplineSet
696 1075 m 0xec
 715 1071 736 1064 761 1053 c 1
 749 1073 737 1091 726 1107 c 1
 726 1106 l 1
 696 1148 649 1196 592 1242 c 1
 493 1153 l 1
 375 1047 l 1
 231 1214 l 1
 373 1341 l 1
 320 1352 261 1359 204 1359 c 2
 143 1359 l 1
 143 1580 l 1
 212 1580 l 2
 288 1580 356 1577 413 1570 c 0
 466 1563 519 1550 581 1526 c 1xec
 792 1717 l 1
 939 1551 l 1xdc
 779 1408 l 1
 857 1338 921 1268 965 1196 c 0
 1014 1119 1055 1019 1082 916 c 0
 1109 815 1123 707 1123 609 c 0
 1123 418 1078 265 986 150 c 0
 894 31 762 -29 591 -29 c 0
 433 -29 305 24 207 130 c 0
 113 237 64 373 64 538 c 0
 64 758 160 927 319 1019 c 0
 401 1064 489 1088 577 1088 c 0
 618 1088 656 1083 696 1075 c 0xec
594 191 m 0
 672 191 738 224 790 284 c 1
 789 283 l 1
 838 346 867 433 867 530 c 0
 867 630 842 713 790 775 c 0
 739 836 674 868 594 868 c 0
 513 868 448 836 398 775 c 0
 345 712 320 629 320 530 c 0
 320 433 349 346 399 283 c 1
 398 284 l 1
 449 224 514 191 594 191 c 0
EndSplineSet
EndChar

StartChar: Yacute
Encoding: 221 221 235
Width: 1229
Flags: MW
HStem: 0 21G<465 734 465 465> 1532 20G<-2 303 303 303 916 1201 1201 1201> 1658 386<269 941 269 941>
VStem: 465 269<0 710>
LayerCount: 2
Fore
SplineSet
734 0 m 1
 465 0 l 1
 465 711 l 1
 -2 1552 l 1
 303 1552 l 1
 610 1005 l 1
 751 1259 l 1
 916 1552 l 1
 1201 1552 l 1
 734 710 l 1
 734 0 l 1
536 1658 m 1
 269 1658 l 1
 620 2044 l 1
 941 2044 l 1
 536 1658 l 1
EndSplineSet
EndChar

StartChar: yacute
Encoding: 253 253 236
Width: 1229
Flags: MW
HStem: -434 220<184.5 254.5 184.5 274> 1097 20G<24 300 300 300 952 1210 1210 1210> 1224 386<363 1035 363 1035>
VStem: 24 1186<1117 1117>
LayerCount: 2
Fore
SplineSet
513 53 m 2
 524 78 l 1
 24 1117 l 1
 300 1117 l 1
 655 392 l 1
 704 513 755 636 804 755 c 0
 850 870 906 1003 952 1117 c 1
 1210 1117 l 1
 784 97 l 2
 704 -95 607 -252 531 -324 c 1
 448 -395 339 -434 209 -434 c 0
 153 -434 93 -428 29 -413 c 1
 29 -179 l 1
 106 -203 164 -214 205 -214 c 0
 304 -214 377 -181 441 -83 c 0
 476 -30 499 15 513 53 c 2
630 1224 m 1
 363 1224 l 1
 714 1610 l 1
 1035 1610 l 1
 630 1224 l 1
EndSplineSet
EndChar

StartChar: Thorn
Encoding: 222 222 237
Width: 1229
Flags: MW
HStem: 0 21G<145 414 145 145> 288 224<414 454 414 459> 1077 224<414 550 414 491> 1532 20G<145 414 414 414>
VStem: 145 269<0 288 0 512 512 1077 1301 1552> 863 269<808.5 875>
LayerCount: 2
Fore
SplineSet
454 288 m 2
 414 288 l 1
 414 0 l 1
 145 0 l 1
 145 1552 l 1
 414 1552 l 1
 414 1301 l 1
 550 1301 l 2
 705 1301 822 1281 897 1246 c 0
 968 1211 1033 1152 1072 1082 c 0
 1113 1010 1132 931 1132 845 c 0
 1132 749 1102 645 1052 561 c 0
 999 475 924 403 830 358 c 0
 735 312 611 288 454 288 c 2
414 1077 m 1
 414 512 l 1
 459 512 l 2
 571 512 653 525 705 554 c 1
 704 554 l 1
 755 581 793 618 820 670 c 0
 850 722 863 779 863 838 c 0
 863 912 840 970 792 1011 c 0
 745 1056 643 1077 491 1077 c 2
 414 1077 l 1
EndSplineSet
EndChar

StartChar: thorn
Encoding: 254 254 238
Width: 1229
Flags: MW
HStem: -14 221<499 538 475.5 563> -4 21G<360 361.5> 1126 20G<683 767>
VStem: 111 249<-405 -4 -405 222 222 629 962 1522> 830 265<565.5 676.5>
LayerCount: 2
Fore
SplineSet
360 1522 m 1x70
 360 962 l 1
 401 1006 449 1047 494 1074 c 0
 572 1121 649 1146 717 1146 c 0
 817 1146 903 1104 981 1021 c 0
 1056 940 1095 818 1095 653 c 0
 1095 463 1040 303 931 174 c 0
 878 113 821 66 756 34 c 0
 689 2 610 -14 516 -14 c 0xb8
 482 -14 430 -12 363 -5 c 1
 363 -5 363 -4 360 -4 c 2
 360 -405 l 1
 111 -405 l 1
 111 1522 l 1
 360 1522 l 1x70
360 629 m 1
 360 222 l 1
 408 212 456 207 495 207 c 0
 581 207 670 256 732 316 c 1
 793 391 830 502 830 629 c 0
 830 724 812 796 779 841 c 0
 747 882 712 904 676 904 c 0
 634 904 576 875 522 830 c 1
 522 831 l 1
 463 780 408 713 360 629 c 1
EndSplineSet
EndChar

StartChar: minus
Encoding: 8722 8722 239
Width: 1229
Flags: MW
HStem: 442 225<44 1153 44 1153>
VStem: 44 1109<442 667 442 667>
LayerCount: 2
Fore
SplineSet
44 667 m 1
 1153 667 l 1
 1153 442 l 1
 44 442 l 1
 44 667 l 1
EndSplineSet
EndChar

StartChar: multiply
Encoding: 215 215 240
Width: 1229
Flags: MW
HStem: -16 21G<190 190 1007 1007> 1105 20G<190 190 1007 1007>
VStem: 27 1144<971 971>
LayerCount: 2
Fore
SplineSet
1169 145 m 1
 1007 -16 l 1
 599 399 l 1
 190 -16 l 1
 29 145 l 1
 442 554 l 1
 27 971 l 1
 190 1125 l 1
 599 717 l 1
 1007 1125 l 1
 1171 971 l 1
 758 554 l 1
 1169 145 l 1
EndSplineSet
EndChar

StartChar: onesuperior
Encoding: 185 185 241
Width: 1229
Flags: MW
HStem: 612 195<233 528 738 1025 233 528> 1553 20G<559 738 738 738>
VStem: 528 210<807 1336 1336 1336>
LayerCount: 2
Fore
SplineSet
233 807 m 1
 528 807 l 1
 528 1336 l 1
 448 1298 348 1262 233 1234 c 1
 233 1431 l 1
 363 1469 472 1518 559 1573 c 1
 738 1573 l 1
 738 807 l 1
 1025 807 l 1
 1025 612 l 1
 233 612 l 1
 233 807 l 1
EndSplineSet
EndChar

StartChar: twosuperior
Encoding: 178 178 242
Width: 1229
Flags: MW
HStem: 612 202<449 994 449 994> 1401 195<580 614.5>
VStem: 203 791<612 760 760 783>
LayerCount: 2
Fore
SplineSet
994 814 m 1
 994 612 l 1
 203 612 l 1
 203 760 l 2
 203 806 222 856 257 904 c 0
 291 949 353 1007 439 1071 c 2
 518 1130 l 2
 604 1194 676 1251 712 1283 c 0
 741 1308 756 1330 756 1345 c 0
 756 1359 742 1370 714 1379 c 0
 674 1393 634 1401 595 1401 c 0
 565 1401 526 1399 483 1394 c 0
 439 1389 355 1371 232 1336 c 1
 232 1533 l 1
 364 1573 493 1596 619 1596 c 0
 740 1596 830 1573 888 1532 c 0
 947 1489 981 1430 981 1362 c 0
 981 1311 962 1260 926 1214 c 0
 893 1173 824 1109 738 1047 c 2
 652 986 l 1
 580 934 l 2
 521 891 474 851 449 814 c 1
 994 814 l 1
EndSplineSet
EndChar

StartChar: threesuperior
Encoding: 179 179 243
Width: 1229
Flags: MW
HStem: 590 195<661 742.5 661 753.5> 1032 195<486 603 486 634> 1401 195<655 757>
VStem: 361 807<638 972.5 856 972.5> 944 224<894 951>
LayerCount: 2
Fore
SplineSet
361 638 m 1xf0
 361 856 l 1
 503 810 618 785 704 785 c 0
 781 785 839 799 884 827 c 0
 924 851 944 878 944 910 c 0
 944 992 831 1032 603 1032 c 2
 486 1032 l 1
 486 1227 l 1
 634 1227 l 2
 722 1227 788 1241 830 1266 c 0
 864 1289 884 1313 884 1335 c 0
 884 1373 818 1401 696 1401 c 0
 614 1401 511 1383 383 1348 c 1
 383 1555 l 1
 507 1582 609 1596 692 1596 c 0
 833 1596 939 1572 1007 1527 c 0
 1067 1485 1109 1413 1109 1347 c 0
 1109 1306 1095 1263 1067 1221 c 0
 1052 1197 1030 1175 1004 1156 c 1
 1117 1106 1168 1027 1168 918 c 0xe8
 1168 821 1116 736 1027 676 c 0
 943 623 823 590 684 590 c 0
 579 590 471 606 361 638 c 1xf0
EndSplineSet
EndChar

StartChar: onehalf
Encoding: 189 189 244
Width: 1229
Flags: MW
HStem: -45 21G<-54 190 -54 -54> 0 195<829 1176 829 1176> 612 195<865 878> 738 194<-22 200 432 542 -22 200> 1532 20G<227 432 432 432> 1576 20G<1001 1254 1254 1254>
VStem: 200 232<932 1295 1295 1295>
LayerCount: 2
Fore
SplineSet
542 738 m 1xde
 -22 738 l 1
 -22 932 l 1
 200 932 l 1
 200 1295 l 1
 -22 1146 l 1
 -22 1388 l 1
 227 1552 l 1
 432 1552 l 1
 432 932 l 1
 542 932 l 1
 542 738 l 1xde
1254 1596 m 1
 190 -45 l 1
 -54 -45 l 1
 1001 1596 l 1
 1254 1596 l 1
1176 195 m 1
 1176 0 l 1
 575 0 l 1
 575 156 l 2
 575 204 634 302 798 417 c 2
 856 458 l 1
 855 457 l 1
 905 492 934 517 943 530 c 0
 949 540 951 551 951 564 c 0
 951 580 945 591 934 597 c 0
 914 607 891 612 865 612 c 0
 819 612 746 585 642 530 c 1
 642 744 l 1
 746 786 832 807 898 807 c 0
 981 807 1052 782 1099 741 c 0xee
 1150 696 1176 640 1176 571 c 0
 1176 515 1155 465 1116 421 c 0
 1080 382 1030 341 972 302 c 2
 929 274 l 2
 896 252 866 229 847 213 c 2
 829 195 l 1
 1176 195 l 1
EndSplineSet
EndChar

StartChar: onequarter
Encoding: 188 188 245
Width: 1229
Flags: MW
HStem: -45 21G<-54 194 -54 -54> 0 21G<856 1080 856 856> 147 195<743 856 743 856 1080 1220> 738 194<-22 200 432 542 -22 200> 1532 20G<227 432 432 432> 1576 20G<1000 1254 1254 1254>
VStem: 200 232<932 1295 1295 1295> 856 224<0 147 0 147 342 476 476 476>
LayerCount: 2
Fore
SplineSet
542 738 m 1
 -22 738 l 1
 -22 932 l 1
 200 932 l 1
 200 1295 l 1
 -22 1146 l 1
 -22 1388 l 1
 227 1552 l 1
 432 1552 l 1
 432 932 l 1
 542 932 l 1
 542 738 l 1
1254 1596 m 1
 194 -45 l 1
 -54 -45 l 1
 1000 1596 l 1
 1254 1596 l 1
1080 147 m 1
 1080 0 l 1
 856 0 l 1
 856 147 l 1
 465 147 l 1
 465 317 l 1
 877 807 l 1
 1080 807 l 1
 1080 342 l 1
 1220 342 l 1
 1220 147 l 1
 1080 147 l 1
743 342 m 1
 856 342 l 1
 856 476 l 1
 838 455 823 438 806 417 c 2
 743 342 l 1
EndSplineSet
EndChar

StartChar: threequarters
Encoding: 190 190 246
Width: 1229
Flags: MW
HStem: -45 21G<-54 194 -54 -54> 0 21G<856 1080 856 856> 147 195<743 856 743 856 1080 1220> 738 194<274.5 320 274.5 339> 1047 195<96 205 96 212> 1356 196<285 296.5> 1532 20G<285 367> 1576 20G<1000 1254 1254 1254>
VStem: 856 224<0 147 0 147 342 476 476 476>
LayerCount: 2
Fore
SplineSet
205 1047 m 2xfb80
 96 1047 l 1
 96 1242 l 1
 212 1242 l 2
 287 1242 331 1250 343 1262 c 1
 342 1262 l 1
 356 1280 362 1293 362 1304 c 0
 362 1314 357 1326 344 1339 c 1
 345 1339 l 1
 333 1350 312 1356 281 1356 c 0
 239 1356 165 1340 52 1304 c 1
 52 1499 l 1
 162 1534 249 1552 321 1552 c 0
 413 1552 482 1528 525 1479 c 0
 568 1431 587 1381 587 1328 c 0
 587 1262 563 1209 511 1162 c 1
 577 1121 609 1064 609 992 c 0
 609 930 581 871 526 818 c 0
 471 764 391 738 287 738 c 0
 215 738 139 752 52 779 c 1
 52 991 l 1
 171 952 253 932 296 932 c 0
 344 932 384 954 384 984 c 0
 384 998 376 1011 357 1024 c 0
 335 1040 284 1047 205 1047 c 2xfb80
1254 1596 m 1
 194 -45 l 1
 -54 -45 l 1
 1000 1596 l 1
 1254 1596 l 1
1080 147 m 1
 1080 0 l 1
 856 0 l 1
 856 147 l 1
 465 147 l 1
 465 317 l 1
 877 807 l 1
 1080 807 l 1
 1080 342 l 1
 1220 342 l 1
 1220 147 l 1xfd80
 1080 147 l 1
743 342 m 1
 856 342 l 1
 856 476 l 1
 838 455 823 438 806 417 c 2
 743 342 l 1
EndSplineSet
EndChar

StartChar: franc
Encoding: 8355 8355 247
Width: 1229
Flags: MW
HStem: 0 21G<190 443 190 190> 207 224<-17 190 -17 190 443 724> 679 224<443 1019 443 1019> 1327 225<443 1078 443 443>
VStem: 190 253<0 207 0 207 431 679 903 1327>
LayerCount: 2
Fore
SplineSet
443 0 m 1
 190 0 l 1
 190 207 l 1
 -17 207 l 1
 -17 431 l 1
 190 431 l 1
 190 1552 l 1
 1078 1552 l 1
 1078 1327 l 1
 443 1327 l 1
 443 903 l 1
 1019 903 l 1
 1019 679 l 1
 443 679 l 1
 443 431 l 1
 724 431 l 1
 724 207 l 1
 443 207 l 1
 443 0 l 1
EndSplineSet
EndChar

StartChar: Gbreve
Encoding: 286 286 248
Width: 1229
Flags: MW
HStem: -45 224<709 790 709 808> 583 224<671 819 671 1088> 1372 225<689 791> 1658 202<743 743>
VStem: 88 276<697.5 828.5 697.5 854.5> 819 269<180 583 583 583>
LayerCount: 2
Fore
SplineSet
1088 807 m 1
 1088 11 l 1
 963 -25 853 -45 763 -45 c 0
 502 -45 290 85 174 344 c 0
 118 473 88 615 88 776 c 0
 88 933 117 1075 172 1203 c 0
 229 1334 308 1431 411 1496 c 0
 513 1564 627 1597 751 1597 c 0
 843 1597 955 1571 1087 1524 c 1
 1087 1255 l 1
 953 1333 838 1372 744 1372 c 0
 616 1372 491 1259 419 1090 c 1
 386 994 364 883 364 774 c 0
 364 621 398 483 469 357 c 1
 468 357 l 1
 534 240 638 179 780 179 c 0
 800 179 787 177 819 180 c 1
 819 583 l 1
 671 583 l 1
 671 807 l 1
 1088 807 l 1
420 2044 m 1
 619 2044 l 1
 626 1980 642 1932 668 1902 c 0
 692 1875 716 1860 743 1860 c 0
 770 1860 795 1875 817 1902 c 1
 816 1902 l 1
 843 1934 859 1983 867 2044 c 1
 1065 2044 l 1
 1039 1787 887 1665 743 1658 c 1
 601 1665 448 1787 420 2044 c 1
EndSplineSet
EndChar

StartChar: gbreve
Encoding: 287 287 249
Width: 1229
Flags: MW
HStem: -433 220<493.5 571 493.5 582.5> -29 21G<419.5 502.5> 910 221<647.5 687 610 713> 1097 20G<865 1076 1076 1076> 1102 20G<823 823> 1224 202<667 667>
VStem: 92 265<440.5 526> 826 250<125 343 158 343 488 895 895 895>
LayerCount: 2
Fore
SplineSet
826 125 m 2xcd
 826 158 l 1
 787 116 734 70 692 43 c 0
 614 -4 536 -29 469 -29 c 0
 370 -29 283 13 205 96 c 0
 129 179 92 301 92 464 c 0
 92 588 118 705 166 803 c 0
 212 899 283 985 361 1042 c 0
 444 1101 550 1131 670 1131 c 0xe7
 704 1131 758 1129 823 1122 c 2xcd
 845 1119 l 1
 844 1119 l 2
 852 1118 860 1117 865 1117 c 2
 1076 1117 l 1xd5
 1076 343 l 2
 1076 174 1073 62 1068 18 c 0
 1065 -18 1056 -63 1044 -106 c 0
 1016 -204 952 -291 857 -348 c 0
 762 -405 648 -433 517 -433 c 0
 384 -433 243 -397 96 -323 c 1
 96 -52 l 1
 179 -107 260 -151 328 -176 c 0
 397 -199 463 -213 524 -213 c 0
 618 -213 707 -182 760 -128 c 0
 785 -101 803 -70 811 -34 c 0
 820 6 826 58 826 125 c 2xcd
826 488 m 1
 826 895 l 1
 778 905 733 910 693 910 c 0
 602 910 517 866 453 799 c 1
 453 800 l 1
 392 725 357 618 357 488 c 0
 357 393 375 322 407 276 c 0
 438 235 473 213 509 213 c 0
 555 213 606 237 664 286 c 0
 726 337 779 405 826 488 c 1
344 1610 m 1
 543 1610 l 1
 550 1546 566 1498 592 1468 c 0
 616 1441 640 1426 667 1426 c 0
 694 1426 719 1441 741 1468 c 1
 740 1468 l 1
 767 1500 783 1549 791 1610 c 1
 989 1610 l 1
 963 1353 811 1231 667 1224 c 1
 525 1231 372 1353 344 1610 c 1
EndSplineSet
EndChar

StartChar: Idot
Encoding: 304 304 250
Width: 1229
Flags: MW
HStem: 0 224<140 464 733 1058 140 464> 1327 225<140 464 140 1058 733 733 733 1058>
VStem: 464 269<224 1327 224 1327>
LayerCount: 2
Fore
SplineSet
1058 0 m 1
 140 0 l 1
 140 224 l 1
 464 224 l 1
 464 1327 l 1
 140 1327 l 1
 140 1552 l 1
 1058 1552 l 1
 1058 1327 l 1
 733 1327 l 1
 733 224 l 1
 1058 224 l 1
 1058 0 l 1
592 1633 m 0
 550 1633 513 1647 483 1677 c 0
 453 1708 437 1745 437 1787 c 0
 437 1828 453 1866 483 1897 c 0
 515 1927 551 1943 592 1943 c 0
 633 1943 669 1927 701 1897 c 0
 732 1866 747 1829 747 1787 c 0
 747 1745 732 1708 702 1677 c 0
 669 1647 633 1633 592 1633 c 0
EndSplineSet
EndChar

StartChar: Scedilla
Encoding: 350 350 251
Width: 1229
Flags: MW
HStem: -413 159<521 610.5> -44 21G<459 459> -40 21G -36 21G<387 388.5> 1372 224<609 693.5>
VStem: 126 977<43 489.5 312 489.5> 141 276<1165 1214 1165 1223.5> 835 268<362 400.5>
LayerCount: 2
Fore
SplineSet
383 -181 m 1x9c
 459 -44 l 1xca
 439 -43 419 -40 397 -37 c 0
 394 -37 390 -36 387 -36 c 0
 329 -30 242 -4 126 43 c 1
 126 312 l 1
 311 224 461 180 579 180 c 0
 628 180 671 188 713 207 c 0
 753 222 784 249 803 279 c 0
 823 311 835 345 835 379 c 0
 835 422 819 462 792 500 c 0
 763 537 692 592 614 639 c 2
 577 660 l 1
 517 695 l 1
 517 694 l 1
 419 748 l 1
 234 856 141 994 141 1164 c 0
 141 1283 185 1388 268 1470 c 0
 354 1550 486 1596 656 1596 c 0
 767 1596 881 1576 999 1540 c 1
 999 1292 l 1
 862 1344 743 1372 644 1372 c 0
 574 1372 516 1351 475 1316 c 0
 439 1282 417 1239 417 1189 c 0
 417 1141 433 1101 466 1066 c 0
 505 1025 549 990 597 962 c 2
 624 946 l 2
 640 936 655 926 671 917 c 2
 762 861 l 1
 840 815 l 2
 1016 709 1103 572 1103 407 c 0x9b
 1103 292 1065 193 990 109 c 0
 914 27 810 -21 654 -40 c 1
 651 -47 648 -50 642 -61 c 1
 693 -77 727 -97 748 -125 c 0xac
 774 -159 787 -196 787 -236 c 0
 787 -282 768 -323 735 -358 c 0
 700 -395 646 -413 575 -413 c 0
 518 -413 455 -401 386 -375 c 1
 386 -198 l 1
 456 -236 505 -254 537 -254 c 0
 551 -254 563 -250 575 -242 c 2
 574 -243 l 2
 581 -238 585 -233 585 -231 c 0
 585 -212 519 -196 383 -181 c 1x9c
EndSplineSet
EndChar

StartChar: scedilla
Encoding: 351 351 252
Width: 1229
Flags: MW
HStem: -405 156<535.5 623> -25 21G<485 485> 926 220<587.5 668>
VStem: 140 922<264 348 348 348>
LayerCount: 2
Fore
SplineSet
401 -178 m 1
 485 -25 l 1
 446 -21 400 -14 358 -5 c 0
 290 12 217 34 140 69 c 1
 140 348 l 1
 247 276 336 234 407 216 c 1
 406 217 l 1
 481 201 543 191 596 191 c 0
 673 191 731 204 763 226 c 0
 790 247 805 274 805 302 c 0
 805 321 799 336 788 349 c 0
 775 363 737 384 667 411 c 2
 488 484 l 1
 489 484 l 1
 417 511 l 1
 245 580 169 670 169 814 c 0
 169 910 205 991 281 1053 c 0
 354 1114 470 1146 627 1146 c 0
 740 1146 858 1127 982 1086 c 1
 982 847 l 1
 835 900 715 926 621 926 c 0
 554 926 502 913 468 890 c 0
 439 871 425 851 425 829 c 0
 425 797 447 773 490 754 c 1
 489 755 l 1
 516 744 543 732 571 721 c 2
 628 697 l 1
 627 698 l 1
 709 668 l 1
 708 668 l 1
 744 655 l 2
 859 613 943 564 989 516 c 0
 1036 464 1062 397 1062 319 c 0
 1062 209 1010 114 932 58 c 0
 898 35 863 15 828 3 c 1
 827 3 l 1
 794 -9 738 -18 675 -25 c 1
 668 -37 662 -44 656 -54 c 0
 655 -55 655 -55 655 -56 c 1
 655 -55 655 -56 655 -57 c 1
 655 -56 l 1
 655 -57 l 2
 654 -57 654 -58 654 -59 c 0
 703 -73 738 -94 759 -122 c 0
 785 -155 797 -192 797 -232 c 0
 797 -273 777 -316 745 -350 c 0
 711 -386 656 -405 590 -405 c 0
 533 -405 472 -393 403 -368 c 1
 403 -195 l 1
 472 -232 520 -249 551 -249 c 0
 565 -249 577 -245 587 -237 c 0
 595 -232 599 -228 599 -227 c 0
 599 -208 533 -192 401 -178 c 1
EndSplineSet
EndChar

StartChar: Cacute
Encoding: 262 262 253
Width: 1229
Flags: MW
HStem: -45 224<711.5 791.5 711.5 798> 1372 225<689.5 791.5> 1658 386<451 1123 451 1123>
VStem: 88 276<719 832 719 854.5> 802 286
LayerCount: 2
Fore
SplineSet
1088 295 m 1
 1088 28 l 1
 956 -19 844 -45 752 -45 c 0
 629 -45 515 -13 413 54 c 0
 310 119 231 215 173 346 c 0
 117 475 88 618 88 776 c 0
 88 933 117 1075 172 1203 c 0
 229 1334 308 1431 411 1496 c 0
 513 1564 627 1597 752 1597 c 0
 844 1597 956 1571 1088 1524 c 1
 1088 1255 l 1
 954 1333 839 1372 744 1372 c 0
 610 1372 489 1275 420 1090 c 0
 383 992 364 888 364 776 c 0
 364 662 384 557 422 458 c 0
 459 363 507 292 563 246 c 1
 562 247 l 1
 619 203 679 179 744 179 c 0
 839 179 953 218 1088 295 c 1
718 1658 m 1
 451 1658 l 1
 802 2044 l 1
 1123 2044 l 1
 718 1658 l 1
EndSplineSet
EndChar

StartChar: cacute
Encoding: 263 263 254
Width: 1229
Flags: MW
HStem: -29 236<710 743.5 670.5 764> 926 220<688.5 755.5 623 761.5> 1224 386<404 1076 404 1076>
VStem: 136 265<558 596.5 520.5 641.5> 136 943<42 641.5>
LayerCount: 2
Fore
SplineSet
1079 288 m 1xe8
 1079 42 l 1
 941 -6 818 -29 710 -29 c 0
 378 -31 132 224 136 558 c 0
 136 725 191 866 301 978 c 0
 411 1090 545 1146 701 1146 c 0
 810 1146 937 1122 1079 1074 c 1
 1079 822 l 1
 928 890 807 926 716 926 c 0
 661 926 607 911 556 881 c 0
 507 854 469 811 442 753 c 0
 413 693 401 628 401 565 c 0
 401 476 427 394 480 317 c 0xf0
 531 243 614 207 727 207 c 0
 760 207 798 209 833 214 c 0
 867 219 952 245 1079 288 c 1xe8
671 1224 m 1
 404 1224 l 1
 755 1610 l 1
 1076 1610 l 1
 671 1224 l 1
EndSplineSet
EndChar

StartChar: Ccaron
Encoding: 268 268 255
Width: 1229
Flags: MW
HStem: -45 224<711.5 791.5 711.5 798> 1372 225<689.5 791.5> 1658 386<380 812 380 656>
VStem: 88 276<719 832 719 854.5> 849 239
LayerCount: 2
Fore
SplineSet
1088 295 m 1
 1088 28 l 1
 956 -19 844 -45 752 -45 c 0
 629 -45 515 -13 413 54 c 0
 310 119 231 215 173 346 c 0
 117 475 88 618 88 776 c 0
 88 933 117 1075 172 1203 c 0
 229 1334 308 1431 411 1496 c 0
 513 1564 627 1597 752 1597 c 0
 844 1597 956 1571 1088 1524 c 1
 1088 1255 l 1
 954 1333 839 1372 744 1372 c 0
 610 1372 489 1275 420 1090 c 0
 383 992 364 888 364 776 c 0
 364 662 384 557 422 458 c 0
 459 363 507 292 563 246 c 1
 562 247 l 1
 619 203 679 179 744 179 c 0
 839 179 953 218 1088 295 c 1
619 2044 m 1
 734 1906 l 1
 849 2044 l 1
 1090 2044 l 1
 812 1658 l 1
 656 1658 l 1
 380 2044 l 1
 619 2044 l 1
EndSplineSet
EndChar

StartChar: ccaron
Encoding: 269 269 256
Width: 1229
Flags: MW
HStem: -29 236<710 743.5 670.5 764> 926 220<688.5 755.5 623 761.5> 1224 386<380 812 380 656>
VStem: 136 265<558 596.5 520.5 641.5> 136 954
LayerCount: 2
Fore
SplineSet
1079 288 m 1xe8
 1079 42 l 1
 941 -6 818 -29 710 -29 c 0
 378 -31 132 224 136 558 c 0
 136 725 191 866 301 978 c 0
 411 1090 545 1146 701 1146 c 0
 810 1146 937 1122 1079 1074 c 1
 1079 822 l 1
 928 890 807 926 716 926 c 0
 661 926 607 911 556 881 c 0
 507 854 469 811 442 753 c 0
 413 693 401 628 401 565 c 0
 401 476 427 394 480 317 c 0xf0
 531 243 614 207 727 207 c 0
 760 207 798 209 833 214 c 0
 867 219 952 245 1079 288 c 1xe8
619 1610 m 1
 734 1472 l 1
 849 1610 l 1
 1090 1610 l 1
 812 1224 l 1
 656 1224 l 1
 380 1610 l 1
 619 1610 l 1
EndSplineSet
EndChar

StartChar: dslash
Encoding: 273 273 257
Width: 1229
Flags: MW
HStem: -29 21G<422.5 505> 0 21G<829 829 829 1080> 910 221<650 690.5 612.5 715.5> 1102 20G<825 825> 1172 205<656 829 656 829 1080 1252> 1560 20G<829 1080 1080 1080>
VStem: 96 263<439.5 527> 829 251<0 158 158 158 488 895 895 895 1121 1172 0 1172 1377 1580>
LayerCount: 2
Fore
SplineSet
829 0 m 1x5d
 829 158 l 1
 789 116 737 70 695 43 c 0
 616 -4 539 -29 471 -29 c 0
 374 -29 286 13 209 96 c 0
 133 178 96 300 96 464 c 0
 96 590 121 704 168 803 c 0
 216 902 285 984 364 1042 c 0
 447 1101 552 1131 673 1131 c 0xef
 708 1131 760 1129 825 1122 c 1
 825 1122 826 1121 829 1121 c 2
 829 1172 l 1
 656 1172 l 1
 656 1377 l 1
 829 1377 l 1
 829 1580 l 1
 1080 1580 l 1
 1080 1377 l 1
 1252 1377 l 1
 1252 1172 l 1
 1080 1172 l 1
 1080 0 l 1
 829 0 l 1x5d
829 488 m 1
 829 895 l 1
 780 905 736 910 695 910 c 0
 605 910 519 866 457 799 c 1
 457 800 l 1
 395 725 359 617 359 488 c 0
 359 391 378 321 410 275 c 1
 410 276 l 1
 441 234 476 213 513 213 c 0
 556 213 610 237 667 286 c 0
 726 337 782 405 829 488 c 1
EndSplineSet
EndChar

StartChar: Amacron
Encoding: 256 256 258
Width: 1229
Flags: MW
HStem: 0 21G<-5 260 -5 -5 921 921 921 1205> 324 225<359 753 429 753 429 821> 1532 20G<472 724 724 724> 1590 195<296 905 296 905>
VStem: -5 1210<0 0>
LayerCount: 2
Fore
SplineSet
359 324 m 1
 260 0 l 1
 -5 0 l 1
 472 1552 l 1
 724 1552 l 1
 1205 0 l 1
 921 0 l 1
 821 324 l 1
 359 324 l 1
592 1064 m 1
 592 1061 l 1
 592 1064 l 1
587 1058 m 1
 429 549 l 1
 753 549 l 1
 698 722 648 885 593 1058 c 1
 593 1059 l 2
 592 1060 592 1060 592 1061 c 1
 593 1060 592 1061 590 1067 c 2
 590 1067 591 1065 592 1064 c 1
 591 1067 590 1067 590 1067 c 1
 590 1069 l 1
 587 1058 l 1
905 1590 m 1
 296 1590 l 1
 296 1785 l 1
 905 1785 l 1
 905 1590 l 1
EndSplineSet
EndChar

StartChar: amacron
Encoding: 257 257 259
Width: 1229
Flags: MW
HStem: -29 21G<405.5 488> 0 21G<868 868 868 1116> 910 221<632.5 672.5 595 698> 1097 20G<849 1062 1062 1062> 1102 20G<808 812> 1179 195<295 904 295 904>
VStem: 78 264<439.5 527> 812 250<488 895 895 895>
LayerCount: 2
Fore
SplineSet
868 0 m 1x4d
 849 14 l 1x67
 837 63 828 114 821 170 c 1
 778 119 728 74 678 43 c 0
 598 -4 521 -29 455 -29 c 0
 356 -29 268 13 191 96 c 0
 115 178 78 300 78 464 c 0
 78 590 103 704 150 803 c 0
 198 902 267 984 346 1042 c 0
 429 1101 535 1131 655 1131 c 0xe7
 690 1131 744 1129 808 1122 c 0x4d
 816 1122 821 1121 828 1120 c 2
 849 1117 l 1
 1062 1117 l 1x55
 1062 344 l 2
 1062 224 1080 110 1116 0 c 1
 868 0 l 1x4d
812 488 m 1
 812 895 l 1
 764 905 718 910 678 910 c 0
 587 910 501 866 439 799 c 1
 439 800 l 1
 377 725 342 617 342 488 c 0
 342 391 360 321 392 275 c 1
 392 276 l 1
 424 234 458 213 495 213 c 0
 539 213 593 237 650 286 c 0
 708 337 764 405 812 488 c 1
904 1179 m 1
 295 1179 l 1
 295 1374 l 1
 904 1374 l 1
 904 1179 l 1
EndSplineSet
EndChar

StartChar: Abreve
Encoding: 258 258 260
Width: 1229
Flags: MW
HStem: 0 21G<-5 260 -5 -5 921 921 921 1205> 324 225<359 753 429 753 429 821> 1532 20G<472 724 724 724> 1590 202<600 600>
VStem: -5 1210<0 0>
LayerCount: 2
Fore
SplineSet
359 324 m 1
 260 0 l 1
 -5 0 l 1
 472 1552 l 1
 724 1552 l 1
 1205 0 l 1
 921 0 l 1
 821 324 l 1
 359 324 l 1
592 1064 m 1
 592 1061 l 1
 592 1064 l 1
587 1058 m 1
 429 549 l 1
 753 549 l 1
 698 722 648 885 593 1058 c 1
 593 1059 l 2
 592 1060 592 1060 592 1061 c 1
 593 1060 592 1061 590 1067 c 2
 590 1067 591 1065 592 1064 c 1
 591 1067 590 1067 590 1067 c 1
 590 1069 l 1
 587 1058 l 1
277 1976 m 1
 476 1976 l 1
 483 1912 499 1864 525 1834 c 0
 549 1807 573 1792 600 1792 c 0
 627 1792 652 1807 674 1834 c 1
 673 1834 l 1
 700 1866 716 1915 724 1976 c 1
 922 1976 l 1
 896 1719 744 1597 600 1590 c 1
 458 1597 305 1719 277 1976 c 1
EndSplineSet
EndChar

StartChar: abreve
Encoding: 259 259 261
Width: 1229
Flags: MW
HStem: -29 21G<405.5 488> 0 21G<868 868 868 1116> 910 221<632.5 672.5 595 698> 1097 20G<849 1062 1062 1062> 1102 20G<808 812> 1179 202<600 600> 1545 20G<277 476 476 476 724 922 922 922>
VStem: 78 264<439.5 527> 812 250<488 895 895 895>
LayerCount: 2
Fore
SplineSet
868 0 m 1x4e80
 849 14 l 1x6780
 837 63 828 114 821 170 c 1
 778 119 728 74 678 43 c 0
 598 -4 521 -29 455 -29 c 0
 356 -29 268 13 191 96 c 0
 115 178 78 300 78 464 c 0
 78 590 103 704 150 803 c 0
 198 902 267 984 346 1042 c 0
 429 1101 535 1131 655 1131 c 0xe780
 690 1131 744 1129 808 1122 c 0x4e80
 816 1122 821 1121 828 1120 c 2
 849 1117 l 1
 1062 1117 l 1x5680
 1062 344 l 2
 1062 224 1080 110 1116 0 c 1
 868 0 l 1x4e80
812 488 m 1
 812 895 l 1
 764 905 718 910 678 910 c 0
 587 910 501 866 439 799 c 1
 439 800 l 1
 377 725 342 617 342 488 c 0
 342 391 360 321 392 275 c 1
 392 276 l 1
 424 234 458 213 495 213 c 0
 539 213 593 237 650 286 c 0
 708 337 764 405 812 488 c 1
277 1565 m 1
 476 1565 l 1
 483 1501 499 1453 525 1423 c 0
 549 1396 573 1381 600 1381 c 0
 627 1381 652 1396 674 1423 c 1
 673 1423 l 1
 700 1455 716 1504 724 1565 c 1
 922 1565 l 1
 896 1308 744 1186 600 1179 c 1
 458 1186 305 1308 277 1565 c 1
EndSplineSet
EndChar

StartChar: Aogonek
Encoding: 260 260 262
Width: 1229
Flags: MW
HStem: -402 178<1069.5 1074.5> 0 87<921 1198 972 1198 972 1205> 25 62<972 1211> 324 225<359 753 429 753 429 821> 1532 20G<472 724 724 724>
VStem: -5 1216<-361 0> 811 210<-190 -169.5 -190 -151>
LayerCount: 2
Fore
SplineSet
359 324 m 1x5c
 260 0 l 1
 -5 0 l 1
 472 1552 l 1
 724 1552 l 1
 1205 0 l 1
 921 0 l 1
 821 324 l 1
 359 324 l 1x5c
592 1064 m 1
 592 1061 l 1
 592 1064 l 1
587 1058 m 1
 429 549 l 1xda
 753 549 l 1
 698 722 648 885 593 1058 c 1
 593 1059 l 2
 592 1060 592 1060 592 1061 c 1
 593 1060 592 1061 590 1067 c 2
 590 1067 591 1065 592 1064 c 1
 591 1067 590 1067 590 1067 c 1
 590 1069 l 1
 587 1058 l 1
972 87 m 1
 1198 87 l 1
 1211 25 l 1
 1148 -5 1097 -44 1065 -86 c 0x5c
 1039 -125 1021 -160 1021 -179 c 0x3c
 1021 -201 1042 -224 1097 -224 c 0
 1115 -224 1153 -212 1211 -187 c 1
 1211 -361 l 1
 1150 -389 1097 -402 1052 -402 c 0
 984 -402 927 -385 881 -346 c 0
 834 -307 811 -257 811 -196 c 0
 811 -106 865 -13 972 87 c 1
EndSplineSet
EndChar

StartChar: aogonek
Encoding: 261 261 263
Width: 1229
Flags: MW
HStem: -403 178<990.5 995.5> -29 21G<405.5 488> 0 86<868 1119 893 1116> 24 62<893 1132> 910 221<632.5 672.5 595 698> 1097 20G<849 1062 1062 1062> 1102 20G<808 812>
VStem: 78 264<439.5 527> 732 210<-191 -170.5 -191 -152> 812 250<488 895 895 895>
LayerCount: 2
Fore
SplineSet
868 0 m 1xa240
 849 14 l 1xa940
 837 63 828 114 821 170 c 1
 778 119 728 74 678 43 c 0
 598 -4 521 -29 455 -29 c 0
 356 -29 268 13 191 96 c 0
 115 178 78 300 78 464 c 0
 78 590 103 704 150 803 c 0
 198 902 267 984 346 1042 c 0
 429 1101 535 1131 655 1131 c 0xe940
 690 1131 744 1129 808 1122 c 0xa240
 816 1122 821 1121 828 1120 c 2
 849 1117 l 1
 1062 1117 l 1xa440
 1062 344 l 2
 1062 224 1080 110 1116 0 c 1
 868 0 l 1xa240
812 488 m 1
 812 895 l 1
 764 905 718 910 678 910 c 0
 587 910 501 866 439 799 c 1
 439 800 l 1
 377 725 342 617 342 488 c 0
 342 391 360 321 392 275 c 1
 392 276 l 1
 424 234 458 213 495 213 c 0
 539 213 593 237 650 286 c 0
 708 337 764 405 812 488 c 1
893 86 m 1
 1119 86 l 1xa240
 1132 24 l 1x9240
 1069 -6 1018 -45 986 -87 c 0
 960 -126 942 -161 942 -180 c 0
 942 -202 963 -225 1018 -225 c 0
 1036 -225 1074 -213 1132 -188 c 1
 1132 -362 l 1
 1071 -390 1018 -403 973 -403 c 0
 905 -403 848 -386 802 -347 c 0
 755 -308 732 -258 732 -197 c 0xa280
 732 -107 786 -14 893 86 c 1
EndSplineSet
EndChar

StartChar: Ccircumflex
Encoding: 264 264 264
Width: 1229
Flags: MW
HStem: -45 224<711.5 791.5 711.5 798> 1372 225<689.5 791.5> 1637 386<343 775 343 775 619 1053 619 812>
VStem: 88 276<719 832 719 854.5> 88 1000<28 854.5>
LayerCount: 2
Fore
SplineSet
1088 295 m 1xe8
 1088 28 l 1
 956 -19 844 -45 752 -45 c 0
 629 -45 515 -13 413 54 c 0
 310 119 231 215 173 346 c 0
 117 475 88 618 88 776 c 0
 88 933 117 1075 172 1203 c 0
 229 1334 308 1431 411 1496 c 0
 513 1564 627 1597 752 1597 c 0
 844 1597 956 1571 1088 1524 c 1
 1088 1255 l 1
 954 1333 839 1372 744 1372 c 0
 610 1372 489 1275 420 1090 c 0
 383 992 364 888 364 776 c 0
 364 662 384 557 422 458 c 0xf0
 459 363 507 292 563 246 c 1
 562 247 l 1
 619 203 679 179 744 179 c 0
 839 179 953 218 1088 295 c 1xe8
812 1637 m 1
 697 1775 l 1
 624 1687 l 1
 582 1637 l 1
 343 1637 l 1
 619 2023 l 1
 775 2023 l 1
 1053 1637 l 1
 812 1637 l 1
EndSplineSet
EndChar

StartChar: ccircumflex
Encoding: 265 265 265
Width: 1229
Flags: MW
HStem: -29 236<710 743.5 670.5 764> 926 220<688.5 755.5 623 761.5> 1194 386<309 741 309 741 585 1019 585 778> 1560 20G<585 741 741 741>
VStem: 136 265<558 596.5 520.5 641.5> 136 943<42 641.5>
LayerCount: 2
Fore
SplineSet
1079 288 m 1xd4
 1079 42 l 1
 941 -6 818 -29 710 -29 c 0
 378 -31 132 224 136 558 c 0
 136 725 191 866 301 978 c 0
 411 1090 545 1146 701 1146 c 0
 810 1146 937 1122 1079 1074 c 1
 1079 822 l 1
 928 890 807 926 716 926 c 0
 661 926 607 911 556 881 c 0
 507 854 469 811 442 753 c 0
 413 693 401 628 401 565 c 0
 401 476 427 394 480 317 c 0xe8
 531 243 614 207 727 207 c 0
 760 207 798 209 833 214 c 0
 867 219 952 245 1079 288 c 1xd4
778 1194 m 1
 663 1332 l 1
 590 1244 l 1
 548 1194 l 1
 309 1194 l 1
 585 1580 l 1
 741 1580 l 1
 1019 1194 l 1
 778 1194 l 1
EndSplineSet
EndChar

